<svg width="13" height="13" viewBox="0 0 13 13" fill="none" xmlns="http://www.w3.org/2000/svg">
<path d="M2.3335 0H11.0002C11.5306 0 12.0393 0.210714 12.4144 0.585786C12.7894 0.960859 13.0002 1.46957 13.0002 2V8C13.0002 8.53043 12.7894 9.03914 12.4144 9.41421C12.0393 9.78929 11.5306 10 11.0002 10H7.94283L5.4715 12.4713C5.37826 12.5645 5.25949 12.628 5.13018 12.6537C5.00088 12.6794 4.86686 12.6662 4.74506 12.6158C4.62326 12.5653 4.51915 12.4799 4.44589 12.3703C4.37264 12.2607 4.33352 12.1318 4.3335 12V10H2.3335C1.80306 10 1.29436 9.78929 0.919283 9.41421C0.54421 9.03914 0.333496 8.53043 0.333496 8V2C0.333496 1.46957 0.54421 0.960859 0.919283 0.585786C1.29436 0.210714 1.80306 0 2.3335 0ZM11.0002 0.666667H2.3335C1.97987 0.666667 1.64074 0.807142 1.39069 1.05719C1.14064 1.30724 1.00016 1.64638 1.00016 2V8C1.00016 8.35362 1.14064 8.69276 1.39069 8.94281C1.64074 9.19286 1.97987 9.33333 2.3335 9.33333H5.00016V12L7.66683 9.33333H11.0002C11.3538 9.33333 11.6929 9.19286 11.943 8.94281C12.193 8.69276 12.3335 8.35362 12.3335 8V2C12.3335 1.64638 12.193 1.30724 11.943 1.05719C11.6929 0.807142 11.3538 0.666667 11.0002 0.666667ZM6.3335 2H7.00016V5.33333H6.3335V2ZM6.3335 6.66667H7.00016V8H6.3335V6.66667Z" fill="#C42222"/>
</svg>
