<svg width="10" height="18" viewBox="0 0 10 18" fill="#DFA008" xmlns="http://www.w3.org/2000/svg">
    <path d="M8.50024 0.250074C8.79231 0.249504 9.07535 0.351221 9.30024 0.537573C9.42681 0.642509 9.53144 0.771387 9.60813 0.916821C9.68482 1.06226 9.73207 1.22139 9.74716 1.38511C9.76226 1.54883 9.7449 1.71392 9.6961 1.87092C9.64729 2.02793 9.56799 2.17376 9.46274 2.30007L3.86274 9.00007L9.26274 15.7126C9.36657 15.8404 9.44411 15.9876 9.4909 16.1455C9.53769 16.3034 9.55281 16.469 9.53539 16.6328C9.51796 16.7966 9.46834 16.9553 9.38937 17.0999C9.31041 17.2444 9.20365 17.3719 9.07524 17.4751C8.94591 17.5889 8.79445 17.6747 8.63037 17.7272C8.4663 17.7797 8.29314 17.7977 8.12177 17.7801C7.95041 17.7625 7.78453 17.7096 7.63455 17.6249C7.48457 17.5401 7.35373 17.4253 7.25024 17.2876L1.21274 9.78757C1.02889 9.56391 0.928381 9.28335 0.928381 8.99382C0.928381 8.70429 1.02889 8.42374 1.21274 8.20007L7.46274 0.700075C7.58814 0.548803 7.74743 0.429222 7.92769 0.351036C8.10795 0.272852 8.30411 0.23826 8.50024 0.250074Z" fill="#DFA008"/>
</svg>
