<svg width="54" height="60" viewBox="0 0 54 60" fill="none" xmlns="http://www.w3.org/2000/svg">
<path d="M43.0634 49.0646C43.2811 48.8891 43.4206 48.6206 43.4206 48.3191C43.4206 48.3107 43.4206 4.78723 43.4206 4.78723C43.4206 4.25834 42.9921 3.82979 42.4632 3.82979H14.763C14.0799 1.61451 12.0137 0 9.57731 0C7.18012 0 5.08255 1.59753 4.39255 3.82979H1.32463C0.795741 3.82979 0.367188 4.25834 0.367188 4.78723V59.0426C0.367188 59.5714 0.795741 60 1.32463 60H31.7315C32.0411 60 32.3094 59.8606 32.4849 59.6433L43.0634 49.0646ZM32.6972 56.7227V49.2766H40.1432L32.6972 56.7227ZM9.57731 1.91489C10.9385 1.91489 12.1205 2.69426 12.7027 3.82979H6.4517C7.03944 2.68749 8.23574 1.91489 9.57731 1.91489ZM2.28208 5.74468H13.088V12.4468C13.088 13.3268 12.3722 14.0426 11.4922 14.0426C10.6122 14.0426 9.89646 13.3268 9.89646 12.4468V8.61702C9.89646 8.08813 9.46791 7.65957 8.93902 7.65957C8.41012 7.65957 7.98157 8.08813 7.98157 8.61702V12.4468C7.98157 14.3825 9.55651 15.9574 11.4922 15.9574C13.4279 15.9574 15.0028 14.3825 15.0028 12.4468V5.74468H41.5057V47.3617H31.7398C31.2109 47.3617 30.7823 47.7903 30.7823 48.3191V58.0851H2.28208V5.74468Z" fill="white"/>
<path d="M34.8032 44.1063C35.3321 44.1063 35.7607 43.6777 35.7607 43.1489C35.7607 42.62 35.3321 42.1914 34.8032 42.1914H8.98381C8.45492 42.1914 8.02637 42.62 8.02637 43.1489C8.02637 43.6777 8.45492 44.1063 8.98381 44.1063H34.8032Z" fill="white"/>
<path d="M8.98381 38.3617H34.8032C35.3321 38.3617 35.7607 37.9331 35.7607 37.4042C35.7607 36.8753 35.3321 36.4468 34.8032 36.4468H8.98381C8.45492 36.4468 8.02637 36.8753 8.02637 37.4042C8.02637 37.9331 8.45492 38.3617 8.98381 38.3617Z" fill="white"/>
<path d="M8.98381 32.617H34.8032C35.3321 32.617 35.7607 32.1885 35.7607 31.6596C35.7607 31.1307 35.3321 30.7021 34.8032 30.7021H8.98381C8.45492 30.7021 8.02637 31.1307 8.02637 31.6596C8.02637 32.1885 8.45492 32.617 8.98381 32.617Z" fill="white"/>
<path d="M8.98381 26.8724H34.8032C35.3321 26.8724 35.7607 26.4439 35.7607 25.915C35.7607 25.3861 35.3321 24.9575 34.8032 24.9575H8.98381C8.45492 24.9575 8.02637 25.3861 8.02637 25.915C8.02637 26.4439 8.45492 26.8724 8.98381 26.8724Z" fill="white"/>
<path d="M8.98381 21.1278H34.8032C35.3321 21.1278 35.7607 20.6992 35.7607 20.1703C35.7607 19.6414 35.3321 19.2129 34.8032 19.2129H8.98381C8.45492 19.2129 8.02637 19.6414 8.02637 20.1703C8.02637 20.6992 8.45492 21.1278 8.98381 21.1278Z" fill="white"/>
<path d="M47.5695 3.82959H46.2929C45.764 3.82959 45.3354 4.25814 45.3354 4.78704C45.3354 5.31593 45.764 5.74448 46.2929 5.74448H46.612V58.0849H36.3901C35.8612 58.0849 35.4326 58.5135 35.4326 59.0424C35.4326 59.5713 35.8612 59.9998 36.3901 59.9998H47.5695C48.0984 59.9998 48.5269 59.5713 48.5269 59.0424V4.78704C48.5269 4.25814 48.0984 3.82959 47.5695 3.82959Z" fill="white"/>
<path d="M52.6764 3.82959H51.3998C50.8709 3.82959 50.4424 4.25814 50.4424 4.78704C50.4424 5.31593 50.8709 5.74448 51.3998 5.74448H51.719V58.0849H51.3998C50.8709 58.0849 50.4424 58.5135 50.4424 59.0424C50.4424 59.5713 50.8709 59.9998 51.3998 59.9998H52.6764C53.2053 59.9998 53.6339 59.5713 53.6339 59.0424V4.78704C53.6339 4.25814 53.2053 3.82959 52.6764 3.82959Z" fill="white"/>
</svg>
