<svg width="20" height="20" viewBox="0 0 20 20" fill="none" xmlns="http://www.w3.org/2000/svg">
<path d="M5.83325 14.1778L9.51075 14.1653L17.5374 6.21533C17.8524 5.90033 18.0258 5.48199 18.0258 5.03699C18.0258 4.59199 17.8524 4.17366 17.5374 3.85866L16.2158 2.53699C15.5858 1.90699 14.4866 1.91033 13.8616 2.53449L5.83325 10.4862V14.1778ZM15.0374 3.71533L16.3616 5.03449L15.0308 6.35283L13.7091 5.03199L15.0374 3.71533ZM7.49992 11.1812L12.5249 6.20366L13.8466 7.52533L8.82242 12.5012L7.49992 12.5053V11.1812Z" fill="#C4C4C4"/>
<path d="M4.16667 17.5H15.8333C16.7525 17.5 17.5 16.7525 17.5 15.8333V8.61L15.8333 10.2767V15.8333H6.79833C6.77667 15.8333 6.75417 15.8417 6.7325 15.8417C6.705 15.8417 6.6775 15.8342 6.64917 15.8333H4.16667V4.16667H9.8725L11.5392 2.5H4.16667C3.2475 2.5 2.5 3.2475 2.5 4.16667V15.8333C2.5 16.7525 3.2475 17.5 4.16667 17.5Z" fill="#C4C4C4"/>
</svg>
