<svg width="46" height="60" viewBox="0 0 46 60" fill="none" xmlns="http://www.w3.org/2000/svg">
<path d="M45.7752 47.504C45.7897 47.4854 45.8042 47.4668 45.8173 47.4471C45.8209 47.4419 45.8237 47.4363 45.8271 47.4309C45.8407 47.41 45.8538 47.3886 45.8656 47.3666C45.8677 47.3627 45.8693 47.3585 45.8713 47.3546C45.8836 47.3307 45.8953 47.3067 45.9057 47.2819C45.9068 47.2791 45.9076 47.2762 45.9087 47.2735C45.9192 47.2474 45.929 47.221 45.9372 47.194C45.9382 47.1908 45.9387 47.1873 45.9397 47.1841C45.9475 47.1576 45.9546 47.1308 45.96 47.1034C45.9616 47.0957 45.9622 47.0879 45.9636 47.0801C45.9676 47.057 45.9717 47.0341 45.974 47.0105C45.9771 46.9789 45.9788 46.9469 45.9788 46.9149V0.957447C45.9788 0.428553 45.5501 0 45.0214 0L0.978804 0C0.450165 0 0.0214844 0.428553 0.0214844 0.957447L0.0214844 59.0426C0.0214844 59.5714 0.450165 60 0.978931 60H32.8938C32.9259 60 32.9578 59.9983 32.9894 59.9951C33.0132 59.9927 33.0364 59.9888 33.0595 59.9847C33.0671 59.9834 33.0747 59.9828 33.0823 59.9814C33.1096 59.9759 33.1363 59.9687 33.1627 59.9612C33.166 59.9602 33.1696 59.9595 33.1729 59.9585C33.1994 59.9505 33.2252 59.9409 33.2506 59.9307C33.2541 59.9293 33.2575 59.9283 33.261 59.927C33.2851 59.9169 33.3083 59.9055 33.3314 59.8937C33.3362 59.8911 33.3411 59.8892 33.3457 59.8866C33.3668 59.8754 33.387 59.8628 33.407 59.85C33.4134 59.846 33.42 59.8425 33.4263 59.8383C33.4449 59.8257 33.4627 59.8121 33.4803 59.7983C33.4873 59.7928 33.4947 59.788 33.5016 59.7823C33.5232 59.7646 33.5437 59.7457 33.5637 59.7263C33.566 59.7239 33.5686 59.7221 33.5709 59.7197L45.6986 47.592C45.7005 47.5901 45.702 47.588 45.704 47.5861C45.724 47.5657 45.7433 47.5448 45.7615 47.5226C45.7663 47.5166 45.7705 47.51 45.7752 47.504ZM1.93638 1.91489L44.064 1.91489V45.9574H32.8938C32.3651 45.9574 31.9364 46.386 31.9364 46.9149V58.0851H1.93638L1.93638 1.91489ZM42.7101 47.8723L33.8513 56.7312V47.8723H42.7101Z" fill="white"/>
<path d="M19.0063 12.1278L37.3621 12.1278C37.8908 12.1278 38.3195 11.6992 38.3195 11.1703C38.3195 10.6414 37.8908 10.2129 37.3621 10.2129L19.0063 10.2129C18.4775 10.2129 18.0488 10.6414 18.0488 11.1703C18.0488 11.6992 18.4775 12.1278 19.0063 12.1278Z" fill="white"/>
<path d="M10.5147 14.4005C10.7016 14.5874 10.9467 14.6808 11.1916 14.6808C11.4366 14.6808 11.6817 14.5874 11.8686 14.4005L16.975 9.29409C17.3489 8.92005 17.3489 8.31392 16.975 7.94001C16.6011 7.56622 15.9948 7.56622 15.6211 7.94001L11.1916 12.3694L9.95373 11.1315C9.57981 10.7577 8.97356 10.7577 8.59977 11.1315C8.22586 11.5055 8.22586 12.1117 8.59977 12.4856L10.5147 14.4005Z" fill="white"/>
<path d="M16.6172 20.1064C16.6172 20.6353 17.0459 21.0638 17.5746 21.0638H37.3619C37.8906 21.0638 38.3193 20.6353 38.3193 20.1064C38.3193 19.5775 37.8906 19.1489 37.3619 19.1489H17.5746C17.0459 19.1489 16.6172 19.5775 16.6172 20.1064Z" fill="white"/>
<path d="M13.7445 16.5957H8.63811C8.10934 16.5957 7.68066 17.0243 7.68066 17.5531V22.6595C7.68066 23.1884 8.10934 23.617 8.63811 23.617H13.7445C14.2733 23.617 14.7019 23.1884 14.7019 22.6595V17.5531C14.7019 17.0243 14.2733 16.5957 13.7445 16.5957ZM12.787 21.7021H9.59556V18.5106H12.787V21.7021Z" fill="white"/>
<path d="M37.3619 28.085H17.5746C17.0459 28.085 16.6172 28.5135 16.6172 29.0424C16.6172 29.5713 17.0459 29.9999 17.5746 29.9999H37.3619C37.8906 29.9999 38.3193 29.5713 38.3193 29.0424C38.3193 28.5135 37.8906 28.085 37.3619 28.085Z" fill="white"/>
<path d="M13.7445 25.5317H8.63811C8.10934 25.5317 7.68066 25.9603 7.68066 26.4892V31.5956C7.68066 32.1245 8.10934 32.553 8.63811 32.553H13.7445C14.2733 32.553 14.7019 32.1245 14.7019 31.5956V26.4892C14.7019 25.9603 14.2733 25.5317 13.7445 25.5317ZM12.787 30.6381H9.59556V27.4466H12.787V30.6381Z" fill="white"/>
<path d="M37.3619 37.0215H17.5746C17.0459 37.0215 16.6172 37.45 16.6172 37.9789C16.6172 38.5078 17.0459 38.9364 17.5746 38.9364H37.3619C37.8906 38.9364 38.3193 38.5078 38.3193 37.9789C38.3193 37.45 37.8906 37.0215 37.3619 37.0215Z" fill="white"/>
<path d="M13.7445 34.4683H8.63811C8.10934 34.4683 7.68066 34.8968 7.68066 35.4257V40.5321C7.68066 41.061 8.10934 41.4895 8.63811 41.4895H13.7445C14.2733 41.4895 14.7019 41.061 14.7019 40.5321V35.4257C14.7019 34.8968 14.2733 34.4683 13.7445 34.4683ZM12.787 39.5746H9.59556V36.3832H12.787V39.5746Z" fill="white"/>
<path d="M29.064 45.9575H17.5746C17.0459 45.9575 16.6172 46.3861 16.6172 46.915C16.6172 47.4439 17.0459 47.8724 17.5746 47.8724H29.064C29.5928 47.8724 30.0214 47.4439 30.0214 46.915C30.0214 46.3861 29.5928 45.9575 29.064 45.9575Z" fill="white"/>
<path d="M13.7445 43.4043H8.63811C8.10934 43.4043 7.68066 43.8328 7.68066 44.3617V49.4681C7.68066 49.997 8.10934 50.4256 8.63811 50.4256H13.7445C14.2733 50.4256 14.7019 49.997 14.7019 49.4681V44.3617C14.7019 43.8328 14.2733 43.4043 13.7445 43.4043ZM12.787 48.5107H9.59556V45.3192H12.787V48.5107Z" fill="white"/>
</svg>
