<svg width="30" height="30" viewBox="0 0 30 30" fill="none" xmlns="http://www.w3.org/2000/svg">
<path fill-rule="evenodd" clip-rule="evenodd" d="M3.00801 16.02C2.73958 15.6043 2.53214 15.2542 2.38775 15C2.53214 14.7458 2.73958 14.3957 3.00801 13.98C3.59012 13.0787 4.45254 11.8794 5.57329 10.6839C7.83302 8.27356 11.0245 6 15 6C18.9755 6 22.167 8.27356 24.4267 10.6839C25.5475 11.8794 26.4099 13.0787 26.992 13.98C27.2604 14.3957 27.4679 14.7458 27.6122 15C27.4679 15.2542 27.2604 15.6043 26.992 16.02C26.4099 16.9213 25.5475 18.1206 24.4267 19.3161C22.167 21.7264 18.9755 24 15 24C11.0245 24 7.83302 21.7264 5.57329 19.3161C4.45254 18.1206 3.59012 16.9213 3.00801 16.02ZM29.6441 14.5521C29.6443 14.5524 29.6444 14.5528 28.75 15C29.6444 15.4472 29.6443 15.4476 29.6441 15.4479L29.6436 15.4489L29.6423 15.4515L29.6383 15.4594L29.6247 15.4859C29.6133 15.5082 29.5969 15.5398 29.5756 15.58C29.5331 15.6604 29.471 15.7754 29.3896 15.9199C29.2271 16.209 28.9871 16.6172 28.6721 17.105C28.0432 18.0787 27.1088 19.3794 25.8858 20.6839C23.458 23.2736 19.7745 26 15 26C10.2255 26 6.54198 23.2736 4.11421 20.6839C2.89121 19.3794 1.95675 18.0787 1.32793 17.105C1.0129 16.6172 0.77294 16.209 0.610358 15.9199C0.529029 15.7754 0.466949 15.6604 0.424411 15.58C0.403139 15.5398 0.386743 15.5082 0.37526 15.4859L0.361721 15.4594L0.357722 15.4515L0.356416 15.4489L0.355936 15.4479C0.355745 15.4476 0.355573 15.4472 1.25 15C0.355573 14.5528 0.355745 14.5524 0.355936 14.5521L0.356416 14.5511L0.357722 14.5485L0.361721 14.5406L0.37526 14.5141C0.386743 14.4918 0.403139 14.4602 0.424411 14.42C0.466949 14.3396 0.529029 14.2246 0.610358 14.0801C0.77294 13.791 1.0129 13.3828 1.32793 12.895C1.95675 11.9213 2.89121 10.6206 4.11421 9.31606C6.54198 6.72644 10.2255 4 15 4C19.7745 4 23.458 6.72644 25.8858 9.31606C27.1088 10.6206 28.0432 11.9213 28.6721 12.895C28.9871 13.3828 29.2271 13.791 29.3896 14.0801C29.471 14.2246 29.5331 14.3396 29.5756 14.42C29.5969 14.4602 29.6133 14.4918 29.6247 14.5141L29.6383 14.5406L29.6423 14.5485L29.6436 14.5511L29.6441 14.5521ZM1.25 15L0.355573 15.4472C0.214809 15.1657 0.214809 14.8343 0.355573 14.5528L1.25 15ZM28.75 15L29.6444 14.5528C29.7852 14.8343 29.7852 15.1657 29.6444 15.4472L28.75 15ZM12.25 15C12.25 13.4812 13.4812 12.25 15 12.25C16.5188 12.25 17.75 13.4812 17.75 15C17.75 16.5188 16.5188 17.75 15 17.75C13.4812 17.75 12.25 16.5188 12.25 15ZM15 10.25C12.3766 10.25 10.25 12.3766 10.25 15C10.25 17.6234 12.3766 19.75 15 19.75C17.6234 19.75 19.75 17.6234 19.75 15C19.75 12.3766 17.6234 10.25 15 10.25Z" fill="#171717"/>
</svg>

