<svg xmlns="http://www.w3.org/2000/svg" viewBox="0 0 30 30">
    <defs>
        <style>
            .cls-1{fill:#eda2a2}
        </style>
    </defs>
    <g id="Group_55" data-name="Group 55" transform="translate(-785.3 -168.5)">
        <path id="Path_305" d="M785.3 168.5v30h30v-30zm27.6 27.6h-25.2v-25.2h25.2z" class="cls-1" data-name="Path 305"/>
        <path id="Path_306" d="M796 178.7a4.207 4.207 0 0 1 3 1.2l2.1-2a7.006 7.006 0 0 0-5.1-2.1 7.6 7.6 0 0 0 0 15.2 7.008 7.008 0 0 0 7.3-7.4 5.284 5.284 0 0 0-.1-1.3H796v2.6h4.3a4.149 4.149 0 0 1-4.3 3.3 4.781 4.781 0 0 1-4.7-4.8 4.694 4.694 0 0 1 4.7-4.7z" class="cls-1" data-name="Path 306"/>
        <path id="Path_307" d="M807.9 186.8h2.2v-2.2h2.2v-2.2h-2.2v-2.2h-2.2v2.2h-2.2v2.2h2.2z" class="cls-1" data-name="Path 307"/>
    </g>
</svg>
