<svg xmlns="http://www.w3.org/2000/svg" viewBox="0 0 30 30">
    <defs>
        <style>
            .cls-1{fill:#eda2a2}
        </style>
    </defs>
    <g id="Group_54" data-name="Group 54" transform="translate(-654.3 -168.5)">
        <path id="Path_303" d="M663.2 185.6a11.12 11.12 0 0 0 2.7 2.6 8.219 8.219 0 0 0 4.1.9c.7 0 .9-.2.9-.9a2.768 2.768 0 0 1 .3-1.3.534.534 0 0 1 .9-.2 1.2 1.2 0 0 1 .5.5c.4.4.7.8 1.1 1.2a2.086 2.086 0 0 0 1.8.7h2.8c.5 0 .7-.6.4-1.1a3.592 3.592 0 0 0-.7-1c-.6-.7-1.3-1.3-1.9-1.9s-.6-.9-.2-1.6c.5-.7 1.1-1.4 1.6-2.1a6.345 6.345 0 0 0 1.2-2.1c.2-.5 0-.7-.5-.8h-3.4a.666.666 0 0 0-.7.5c-.2.5-.4.9-.6 1.3a10.313 10.313 0 0 1-1.8 2.8c-.2.2-.4.4-.6.3-.4-.1-.5-.7-.5-.9v-3.6c-.1-.5-.2-.7-.7-.8H667a1.489 1.489 0 0 0-.9.4c-.1.2-.2.3.1.3a1.071 1.071 0 0 1 .9 1 11.307 11.307 0 0 1 0 2.6 1.853 1.853 0 0 1-.2.7c-.2.4-.4.4-.7.2a2.7 2.7 0 0 1-.7-.8 17.036 17.036 0 0 1-1.9-3.5.76.76 0 0 0-.8-.6H660c-.6 0-.7.3-.5.8a50.7 50.7 0 0 0 3.7 6.4z" class="cls-1" data-name="Path 303"/>
        <path id="Path_304" d="M654.3 168.5v30h30v-30zm28.1 28.2h-26.3v-26.3h26.3z" class="cls-1" data-name="Path 304"/>
    </g>
</svg>
