<svg width="525" height="75" viewBox="0 0 525 75" fill="none" xmlns="http://www.w3.org/2000/svg">
<path d="M105.9 21.74C106.847 21.9667 107.56 22.3733 108.04 22.96C108.533 23.5333 108.78 24.2733 108.78 25.18C108.78 26.3933 108.333 27.3333 107.44 28C106.56 28.6667 105.273 29 103.58 29H97.18V15H103.2C104.733 15 105.927 15.3133 106.78 15.94C107.647 16.5533 108.08 17.44 108.08 18.6C108.08 19.36 107.887 20.0067 107.5 20.54C107.127 21.0733 106.593 21.4733 105.9 21.74ZM99.16 21.16H103.06C104.033 21.16 104.773 20.9667 105.28 20.58C105.8 20.1933 106.06 19.6267 106.06 18.88C106.06 18.1333 105.8 17.5667 105.28 17.18C104.76 16.78 104.02 16.58 103.06 16.58H99.16V21.16ZM103.54 27.42C105.687 27.42 106.76 26.62 106.76 25.02C106.76 24.22 106.487 23.6333 105.94 23.26C105.407 22.8733 104.607 22.68 103.54 22.68H99.16V27.42H103.54ZM122.281 27.26V29H112.121V15H122.001V16.74H114.121V21.04H121.141V22.74H114.121V27.26H122.281ZM136.862 15V29H134.902V16.74H128.702L128.562 20.84C128.496 22.7733 128.336 24.34 128.082 25.54C127.842 26.74 127.456 27.6467 126.922 28.26C126.389 28.86 125.669 29.16 124.762 29.16C124.349 29.16 123.929 29.1067 123.502 29L123.642 27.22C123.856 27.2733 124.069 27.3 124.282 27.3C124.856 27.3 125.316 27.0733 125.662 26.62C126.009 26.1533 126.269 25.46 126.442 24.54C126.616 23.62 126.729 22.4067 126.782 20.9L127.002 15H136.862ZM147.363 19.88C149.03 19.88 150.303 20.2533 151.183 21C152.076 21.7467 152.523 22.8467 152.523 24.3C152.523 25.8333 152.043 27 151.083 27.8C150.136 28.6 148.776 29 147.003 29H141.223V15H143.203V19.88H147.363ZM146.923 27.42C148.083 27.42 148.97 27.16 149.583 26.64C150.21 26.1067 150.523 25.34 150.523 24.34C150.523 22.42 149.323 21.46 146.923 21.46H143.203V27.42H146.923ZM161.741 29.16C160.341 29.16 159.074 28.8533 157.941 28.24C156.821 27.6133 155.941 26.76 155.301 25.68C154.661 24.5867 154.341 23.36 154.341 22C154.341 20.64 154.661 19.42 155.301 18.34C155.941 17.2467 156.827 16.3933 157.961 15.78C159.094 15.1533 160.361 14.84 161.761 14.84C162.854 14.84 163.854 15.0267 164.761 15.4C165.667 15.76 166.441 16.3 167.081 17.02L165.781 18.28C164.727 17.1733 163.414 16.62 161.841 16.62C160.801 16.62 159.861 16.8533 159.021 17.32C158.181 17.7867 157.521 18.4333 157.041 19.26C156.574 20.0733 156.341 20.9867 156.341 22C156.341 23.0133 156.574 23.9333 157.041 24.76C157.521 25.5733 158.181 26.2133 159.021 26.68C159.861 27.1467 160.801 27.38 161.841 27.38C163.401 27.38 164.714 26.82 165.781 25.7L167.081 26.96C166.441 27.68 165.661 28.2267 164.741 28.6C163.834 28.9733 162.834 29.16 161.741 29.16ZM174.716 22.84H171.796V29H169.836V15H171.796V21.08H174.756L179.156 15H181.296L176.296 21.78L181.536 29H179.256L174.716 22.84ZM183.586 15H185.566V25.8L193.846 15H195.686V29H193.726V18.22L185.426 29H183.586V15ZM200.051 15H202.031V25.8L210.311 15H212.151V29H210.191V18.22L201.891 29H200.051V15ZM206.071 14.02C204.978 14.02 204.131 13.7867 203.531 13.32C202.944 12.84 202.644 12.16 202.631 11.28H204.051C204.064 11.8 204.244 12.2067 204.591 12.5C204.951 12.78 205.444 12.92 206.071 12.92C206.671 12.92 207.151 12.78 207.511 12.5C207.884 12.2067 208.078 11.8 208.091 11.28H209.491C209.478 12.1467 209.171 12.82 208.571 13.3C207.984 13.78 207.151 14.02 206.071 14.02ZM228.147 29.16C226.747 29.16 225.48 28.8533 224.347 28.24C223.227 27.6133 222.347 26.76 221.707 25.68C221.067 24.5867 220.747 23.36 220.747 22C220.747 20.64 221.067 19.42 221.707 18.34C222.347 17.2467 223.234 16.3933 224.367 15.78C225.5 15.1533 226.767 14.84 228.167 14.84C229.26 14.84 230.26 15.0267 231.167 15.4C232.074 15.76 232.847 16.3 233.487 17.02L232.187 18.28C231.134 17.1733 229.82 16.62 228.247 16.62C227.207 16.62 226.267 16.8533 225.427 17.32C224.587 17.7867 223.927 18.4333 223.447 19.26C222.98 20.0733 222.747 20.9867 222.747 22C222.747 23.0133 222.98 23.9333 223.447 24.76C223.927 25.5733 224.587 26.2133 225.427 26.68C226.267 27.1467 227.207 27.38 228.247 27.38C229.807 27.38 231.12 26.82 232.187 25.7L233.487 26.96C232.847 27.68 232.067 28.2267 231.147 28.6C230.24 28.9733 229.24 29.16 228.147 29.16ZM246.403 27.26V29H236.243V15H246.123V16.74H238.243V21.04H245.263V22.74H238.243V27.26H246.403ZM260.983 15V29H259.023V16.74H252.823L252.683 20.84C252.617 22.7733 252.457 24.34 252.203 25.54C251.963 26.74 251.577 27.6467 251.043 28.26C250.51 28.86 249.79 29.16 248.883 29.16C248.47 29.16 248.05 29.1067 247.623 29L247.763 27.22C247.977 27.2733 248.19 27.3 248.403 27.3C248.977 27.3 249.437 27.0733 249.783 26.62C250.13 26.1533 250.39 25.46 250.563 24.54C250.737 23.62 250.85 22.4067 250.903 20.9L251.123 15H260.983ZM271.484 19.88C273.151 19.88 274.424 20.2533 275.304 21C276.197 21.7467 276.644 22.8467 276.644 24.3C276.644 25.8333 276.164 27 275.204 27.8C274.257 28.6 272.897 29 271.124 29H265.344V15H267.324V19.88H271.484ZM271.044 27.42C272.204 27.42 273.091 27.16 273.704 26.64C274.331 26.1067 274.644 25.34 274.644 24.34C274.644 22.42 273.444 21.46 271.044 21.46H267.324V27.42H271.044ZM285.862 29.16C284.462 29.16 283.195 28.8533 282.062 28.24C280.942 27.6133 280.062 26.76 279.422 25.68C278.782 24.5867 278.462 23.36 278.462 22C278.462 20.64 278.782 19.42 279.422 18.34C280.062 17.2467 280.949 16.3933 282.082 15.78C283.215 15.1533 284.482 14.84 285.882 14.84C286.975 14.84 287.975 15.0267 288.882 15.4C289.789 15.76 290.562 16.3 291.202 17.02L289.902 18.28C288.849 17.1733 287.535 16.62 285.962 16.62C284.922 16.62 283.982 16.8533 283.142 17.32C282.302 17.7867 281.642 18.4333 281.162 19.26C280.695 20.0733 280.462 20.9867 280.462 22C280.462 23.0133 280.695 23.9333 281.162 24.76C281.642 25.5733 282.302 26.2133 283.142 26.68C283.982 27.1467 284.922 27.38 285.962 27.38C287.522 27.38 288.835 26.82 289.902 25.7L291.202 26.96C290.562 27.68 289.782 28.2267 288.862 28.6C287.955 28.9733 286.955 29.16 285.862 29.16ZM298.837 22.84H295.917V29H293.957V15H295.917V21.08H298.877L303.277 15H305.417L300.417 21.78L305.657 29H303.377L298.837 22.84ZM313.968 29.16C312.555 29.16 311.282 28.8533 310.148 28.24C309.015 27.6133 308.122 26.7533 307.468 25.66C306.828 24.5667 306.508 23.3467 306.508 22C306.508 20.6533 306.828 19.4333 307.468 18.34C308.122 17.2467 309.015 16.3933 310.148 15.78C311.282 15.1533 312.555 14.84 313.968 14.84C315.368 14.84 316.635 15.1533 317.768 15.78C318.902 16.3933 319.788 17.2467 320.428 18.34C321.068 19.42 321.388 20.64 321.388 22C321.388 23.36 321.068 24.5867 320.428 25.68C319.788 26.76 318.902 27.6133 317.768 28.24C316.635 28.8533 315.368 29.16 313.968 29.16ZM313.968 27.38C314.995 27.38 315.915 27.1467 316.728 26.68C317.555 26.2133 318.202 25.5733 318.668 24.76C319.148 23.9333 319.388 23.0133 319.388 22C319.388 20.9867 319.148 20.0733 318.668 19.26C318.202 18.4333 317.555 17.7867 316.728 17.32C315.915 16.8533 314.995 16.62 313.968 16.62C312.942 16.62 312.008 16.8533 311.168 17.32C310.342 17.7867 309.688 18.4333 309.208 19.26C308.742 20.0733 308.508 20.9867 308.508 22C308.508 23.0133 308.742 23.9333 309.208 24.76C309.688 25.5733 310.342 26.2133 311.168 26.68C312.008 27.1467 312.942 27.38 313.968 27.38ZM324.914 15L328.574 20.12L332.234 15H334.574L329.834 21.72L334.954 29H332.594L328.574 23.42L324.574 29H322.274L327.374 21.8L322.614 15H324.914ZM343.265 29.16C341.852 29.16 340.578 28.8533 339.445 28.24C338.312 27.6133 337.418 26.7533 336.765 25.66C336.125 24.5667 335.805 23.3467 335.805 22C335.805 20.6533 336.125 19.4333 336.765 18.34C337.418 17.2467 338.312 16.3933 339.445 15.78C340.578 15.1533 341.852 14.84 343.265 14.84C344.665 14.84 345.932 15.1533 347.065 15.78C348.198 16.3933 349.085 17.2467 349.725 18.34C350.365 19.42 350.685 20.64 350.685 22C350.685 23.36 350.365 24.5867 349.725 25.68C349.085 26.76 348.198 27.6133 347.065 28.24C345.932 28.8533 344.665 29.16 343.265 29.16ZM343.265 27.38C344.292 27.38 345.212 27.1467 346.025 26.68C346.852 26.2133 347.498 25.5733 347.965 24.76C348.445 23.9333 348.685 23.0133 348.685 22C348.685 20.9867 348.445 20.0733 347.965 19.26C347.498 18.4333 346.852 17.7867 346.025 17.32C345.212 16.8533 344.292 16.62 343.265 16.62C342.238 16.62 341.305 16.8533 340.465 17.32C339.638 17.7867 338.985 18.4333 338.505 19.26C338.038 20.0733 337.805 20.9867 337.805 22C337.805 23.0133 338.038 23.9333 338.505 24.76C338.985 25.5733 339.638 26.2133 340.465 26.68C341.305 27.1467 342.238 27.38 343.265 27.38ZM360.228 21.7C361.108 21.94 361.794 22.36 362.288 22.96C362.781 23.5467 363.028 24.2533 363.028 25.08C363.028 25.9067 362.761 26.6333 362.228 27.26C361.708 27.8733 361.008 28.3467 360.128 28.68C359.261 29 358.314 29.16 357.288 29.16C356.354 29.16 355.428 29.02 354.508 28.74C353.588 28.46 352.748 28.04 351.988 27.48L352.688 26C353.301 26.48 353.988 26.84 354.748 27.08C355.508 27.32 356.274 27.44 357.048 27.44C358.168 27.44 359.108 27.2067 359.868 26.74C360.628 26.26 361.008 25.6067 361.008 24.78C361.008 24.0733 360.721 23.5333 360.148 23.16C359.574 22.7733 358.768 22.58 357.728 22.58H354.608V20.96H357.588C358.481 20.96 359.174 20.78 359.668 20.42C360.174 20.0467 360.428 19.5333 360.428 18.88C360.428 18.1467 360.101 17.5667 359.448 17.14C358.794 16.7133 357.968 16.5 356.968 16.5C356.314 16.5 355.648 16.5933 354.968 16.78C354.301 16.9667 353.668 17.2467 353.068 17.62L352.428 15.98C353.134 15.58 353.881 15.28 354.668 15.08C355.454 14.88 356.241 14.78 357.028 14.78C358.014 14.78 358.921 14.9333 359.748 15.24C360.574 15.5467 361.228 15.9933 361.708 16.58C362.201 17.1667 362.448 17.8533 362.448 18.64C362.448 19.3467 362.248 19.9667 361.848 20.5C361.461 21.0333 360.921 21.4333 360.228 21.7ZM376.424 15V29H374.464V24.92H370.604C370.364 24.92 370.184 24.9133 370.064 24.9L367.264 29H365.144L368.244 24.56C367.244 24.2267 366.478 23.6733 365.944 22.9C365.411 22.1133 365.144 21.16 365.144 20.04C365.144 18.4533 365.651 17.22 366.664 16.34C367.691 15.4467 369.071 15 370.804 15H376.424ZM367.164 20.02C367.164 21.06 367.464 21.86 368.064 22.42C368.678 22.9667 369.578 23.24 370.764 23.24H374.464V16.74H370.884C369.684 16.74 368.764 17.02 368.124 17.58C367.484 18.14 367.164 18.9533 367.164 20.02ZM380.793 15H382.773V25.8L391.053 15H392.893V29H390.933V18.22L382.633 29H380.793V15ZM386.813 14.02C385.72 14.02 384.873 13.7867 384.273 13.32C383.687 12.84 383.387 12.16 383.373 11.28H384.793C384.807 11.8 384.987 12.2067 385.333 12.5C385.693 12.78 386.187 12.92 386.813 12.92C387.413 12.92 387.893 12.78 388.253 12.5C388.627 12.2067 388.82 11.8 388.833 11.28H390.233C390.22 12.1467 389.913 12.82 389.313 13.3C388.727 13.78 387.893 14.02 386.813 14.02ZM403.518 29.16C402.118 29.16 400.851 28.8533 399.718 28.24C398.598 27.6133 397.718 26.76 397.078 25.68C396.438 24.5867 396.118 23.36 396.118 22C396.118 20.64 396.438 19.42 397.078 18.34C397.718 17.2467 398.605 16.3933 399.738 15.78C400.871 15.1533 402.138 14.84 403.538 14.84C404.631 14.84 405.631 15.0267 406.538 15.4C407.445 15.76 408.218 16.3 408.858 17.02L407.558 18.28C406.505 17.1733 405.191 16.62 403.618 16.62C402.578 16.62 401.638 16.8533 400.798 17.32C399.958 17.7867 399.298 18.4333 398.818 19.26C398.351 20.0733 398.118 20.9867 398.118 22C398.118 23.0133 398.351 23.9333 398.818 24.76C399.298 25.5733 399.958 26.2133 400.798 26.68C401.638 27.1467 402.578 27.38 403.618 27.38C405.178 27.38 406.491 26.82 407.558 25.7L408.858 26.96C408.218 27.68 407.438 28.2267 406.518 28.6C405.611 28.9733 404.611 29.16 403.518 29.16ZM421.077 16.74H416.277V29H414.317V16.74H409.537V15H421.077V16.74ZM432.228 21.74C433.175 21.9667 433.888 22.3733 434.368 22.96C434.861 23.5333 435.108 24.2733 435.108 25.18C435.108 26.3933 434.661 27.3333 433.768 28C432.888 28.6667 431.601 29 429.908 29H423.508V15H429.528C431.061 15 432.255 15.3133 433.108 15.94C433.975 16.5533 434.408 17.44 434.408 18.6C434.408 19.36 434.215 20.0067 433.828 20.54C433.455 21.0733 432.921 21.4733 432.228 21.74ZM425.488 21.16H429.388C430.361 21.16 431.101 20.9667 431.608 20.58C432.128 20.1933 432.388 19.6267 432.388 18.88C432.388 18.1333 432.128 17.5667 431.608 17.18C431.088 16.78 430.348 16.58 429.388 16.58H425.488V21.16ZM429.868 27.42C432.015 27.42 433.088 26.62 433.088 25.02C433.088 24.22 432.815 23.6333 432.268 23.26C431.735 22.8733 430.935 22.68 429.868 22.68H425.488V27.42H429.868ZM448.61 27.26V29H438.45V15H448.33V16.74H440.45V21.04H447.47V22.74H440.45V27.26H448.61ZM463.79 15V29H461.79V22.76H453.75V29H451.75V15H453.75V21.02H461.79V15H463.79ZM480.197 15V29H478.197V22.76H470.157V29H468.157V15H470.157V21.02H478.197V15H480.197ZM490.703 19.88C492.369 19.88 493.643 20.2533 494.523 21C495.416 21.7467 495.863 22.8467 495.863 24.3C495.863 25.8333 495.383 27 494.423 27.8C493.476 28.6 492.116 29 490.343 29H484.563V15H486.543V19.88H490.703ZM490.263 27.42C491.423 27.42 492.309 27.16 492.923 26.64C493.549 26.1067 493.863 25.34 493.863 24.34C493.863 22.42 492.663 21.46 490.263 21.46H486.543V27.42H490.263ZM498.083 15H500.063V29H498.083V15ZM504.426 15H506.406V25.8L514.686 15H516.526V29H514.566V18.22L506.266 29H504.426V15ZM510.446 14.02C509.353 14.02 508.506 13.7867 507.906 13.32C507.319 12.84 507.019 12.16 507.006 11.28H508.426C508.439 11.8 508.619 12.2067 508.966 12.5C509.326 12.78 509.819 12.92 510.446 12.92C511.046 12.92 511.526 12.78 511.886 12.5C512.259 12.2067 512.453 11.8 512.466 11.28H513.866C513.853 12.1467 513.546 12.82 512.946 13.3C512.359 13.78 511.526 14.02 510.446 14.02ZM106.8 46.74H102V59H100.04V46.74H95.26V45H106.8V46.74ZM119.391 57.26V59H109.231V45H119.111V46.74H111.231V51.04H118.251V52.74H111.231V57.26H119.391ZM123.175 45L126.835 50.12L130.495 45H132.835L128.095 51.72L133.215 59H130.855L126.835 53.42L122.835 59H120.535L125.635 51.8L120.875 45H123.175ZM147.306 45V59H145.306V52.76H137.266V59H135.266V45H137.266V51.02H145.306V45H147.306ZM151.672 45H153.652V55.8L161.932 45H163.772V59H161.812V48.22L153.512 59H151.672V45ZM173.017 52.84H170.097V59H168.137V45H170.097V51.08H173.057L177.457 45H179.597L174.597 51.78L179.837 59H177.557L173.017 52.84ZM193.445 45L187.225 56.54C186.731 57.46 186.151 58.1467 185.485 58.6C184.818 59.0533 184.091 59.28 183.305 59.28C182.691 59.28 182.065 59.14 181.425 58.86L181.945 57.26C182.438 57.4333 182.878 57.52 183.265 57.52C184.145 57.52 184.871 57.0533 185.445 56.12L185.765 55.62L180.125 45H182.265L186.805 53.88L191.465 45H193.445ZM208.5 59L208.48 48.8L203.42 57.3H202.5L197.44 48.86V59H195.52V45H197.16L203 54.84L208.76 45H210.4L210.42 59H208.5ZM220.149 45H222.129V55.8L230.409 45H232.249V59H230.289V48.22L221.989 59H220.149V45ZM249.594 59L249.574 48.8L244.514 57.3H243.594L238.534 48.86V59H236.614V45H238.254L244.094 54.84L249.854 45H251.494L251.514 59H249.594ZM266.031 57.26V59H255.871V45H265.751V46.74H257.871V51.04H264.891V52.74H257.871V57.26H266.031ZM281.212 45V59H279.212V52.76H271.172V59H269.172V45H271.172V51.02H279.212V45H281.212ZM285.578 45H287.558V55.8L295.838 45H297.678V59H295.718V48.22L287.418 59H285.578V45ZM316.574 46.74H309.374L309.394 59H307.414V45H316.594L316.574 46.74ZM315.425 59.12C315.051 59.12 314.731 58.9933 314.465 58.74C314.198 58.4733 314.065 58.14 314.065 57.74C314.065 57.3533 314.198 57.0333 314.465 56.78C314.731 56.5133 315.051 56.38 315.425 56.38C315.798 56.38 316.111 56.5067 316.365 56.76C316.618 57.0133 316.745 57.34 316.745 57.74C316.745 58.14 316.611 58.4733 316.345 58.74C316.091 58.9933 315.785 59.12 315.425 59.12ZM319.856 45H321.836V55.8L330.116 45H331.956V59H329.996V48.22L321.696 59H319.856V45ZM336.421 59.12C336.047 59.12 335.727 58.9933 335.461 58.74C335.194 58.4733 335.061 58.14 335.061 57.74C335.061 57.3533 335.194 57.0333 335.461 56.78C335.727 56.5133 336.047 56.38 336.421 56.38C336.794 56.38 337.107 56.5067 337.361 56.76C337.614 57.0133 337.741 57.34 337.741 57.74C337.741 58.14 337.607 58.4733 337.341 58.74C337.087 58.9933 336.781 59.12 336.421 59.12ZM363.763 45V59H346.223V45H348.203V57.26H354.023V45H355.983V57.26H361.803V45H363.763ZM368.118 45H370.098V55.8L378.378 45H380.218V59H378.258V48.22L369.958 59H368.118V45ZM384.582 45H395.142V46.7H386.562V50.7H390.922C392.589 50.7 393.856 51.0467 394.722 51.74C395.589 52.4333 396.022 53.4333 396.022 54.74C396.022 56.1133 395.549 57.1667 394.602 57.9C393.669 58.6333 392.329 59 390.582 59H384.582V45ZM390.502 57.42C391.649 57.42 392.522 57.2 393.122 56.76C393.722 56.32 394.022 55.6733 394.022 54.82C394.022 53.1267 392.849 52.28 390.502 52.28H386.562V57.42H390.502ZM408.253 55.5H400.813L399.273 59H397.213L403.553 45H405.533L411.893 59H409.793L408.253 55.5ZM407.553 53.9L404.533 47.04L401.513 53.9H407.553ZM426.349 45V59H424.349V52.76H416.309V59H414.309V45H416.309V51.02H424.349V45H426.349ZM437.015 59.16C435.602 59.16 434.328 58.8533 433.195 58.24C432.062 57.6133 431.168 56.7533 430.515 55.66C429.875 54.5667 429.555 53.3467 429.555 52C429.555 50.6533 429.875 49.4333 430.515 48.34C431.168 47.2467 432.062 46.3933 433.195 45.78C434.328 45.1533 435.602 44.84 437.015 44.84C438.415 44.84 439.682 45.1533 440.815 45.78C441.948 46.3933 442.835 47.2467 443.475 48.34C444.115 49.42 444.435 50.64 444.435 52C444.435 53.36 444.115 54.5867 443.475 55.68C442.835 56.76 441.948 57.6133 440.815 58.24C439.682 58.8533 438.415 59.16 437.015 59.16ZM437.015 57.38C438.042 57.38 438.962 57.1467 439.775 56.68C440.602 56.2133 441.248 55.5733 441.715 54.76C442.195 53.9333 442.435 53.0133 442.435 52C442.435 50.9867 442.195 50.0733 441.715 49.26C441.248 48.4333 440.602 47.7867 439.775 47.32C438.962 46.8533 438.042 46.62 437.015 46.62C435.988 46.62 435.055 46.8533 434.215 47.32C433.388 47.7867 432.735 48.4333 432.255 49.26C431.788 50.0733 431.555 50.9867 431.555 52C431.555 53.0133 431.788 53.9333 432.255 54.76C432.735 55.5733 433.388 56.2133 434.215 56.68C435.055 57.1467 435.988 57.38 437.015 57.38ZM456.388 51.74C457.335 51.9667 458.048 52.3733 458.528 52.96C459.022 53.5333 459.268 54.2733 459.268 55.18C459.268 56.3933 458.822 57.3333 457.928 58C457.048 58.6667 455.762 59 454.068 59H447.668V45H453.688C455.222 45 456.415 45.3133 457.268 45.94C458.135 46.5533 458.568 47.44 458.568 48.6C458.568 49.36 458.375 50.0067 457.988 50.54C457.615 51.0733 457.082 51.4733 456.388 51.74ZM449.648 51.16H453.548C454.522 51.16 455.262 50.9667 455.768 50.58C456.288 50.1933 456.548 49.6267 456.548 48.88C456.548 48.1333 456.288 47.5667 455.768 47.18C455.248 46.78 454.508 46.58 453.548 46.58H449.648V51.16ZM454.028 57.42C456.175 57.42 457.248 56.62 457.248 55.02C457.248 54.22 456.975 53.6333 456.428 53.26C455.895 52.8733 455.095 52.68 454.028 52.68H449.648V57.42H454.028ZM471.71 55.5H464.27L462.73 59H460.67L467.01 45H468.99L475.35 59H473.25L471.71 55.5ZM471.01 53.9L467.99 47.04L464.97 53.9H471.01Z" fill="white"/>
<path d="M73.8161 28.7979L66.9558 27.0813C66.5941 26.0697 66.1699 25.0564 65.6878 24.0508L69.3331 17.9748C69.7024 17.3599 69.6047 16.5725 69.0981 16.066L58.9343 5.90054C58.4277 5.39238 57.6373 5.29775 57.0255 5.66558L50.9478 9.31245C49.9438 8.83022 48.9306 8.40601 47.9189 8.04448L46.2021 1.18403C46.0283 0.488232 45.4041 0 44.687 0H30.3132C29.5961 0 28.972 0.488232 28.798 1.18403L27.0814 8.04434C26.0697 8.40601 25.0565 8.83022 24.0525 9.3123L17.9748 5.66543C17.3599 5.29922 16.5725 5.39224 16.066 5.90039L5.90216 16.0658C5.39562 16.5724 5.29791 17.3597 5.6672 17.9747L9.31247 24.0507C8.83024 25.0563 8.40602 26.0694 8.0445 27.0812L1.18404 28.7979C0.488233 28.9718 0 29.596 0 30.3132V44.687C0 45.4041 0.488233 46.0282 1.18404 46.2022L8.04435 47.9188C8.40602 48.9305 8.83024 49.9437 9.31232 50.9493L5.66705 57.0253C5.29776 57.6403 5.39547 58.4276 5.90201 58.9342L16.0659 69.098C16.5695 69.6031 17.3583 69.6992 17.9747 69.333L24.0507 65.6877C25.0563 66.1699 26.0694 66.5941 27.0812 66.9557L28.7979 73.816C28.9719 74.5118 29.5959 75 30.3131 75H44.6869C45.4041 75 46.0281 74.5118 46.2021 73.816L47.9188 66.9557C48.9304 66.594 49.9436 66.1698 50.9493 65.6877L57.0253 69.333C57.6402 69.7006 58.4276 69.6062 58.9341 69.098L69.098 58.9342C69.6045 58.4276 69.7022 57.6403 69.3329 57.0253L65.6877 50.9493C66.1699 49.9437 66.5941 48.9306 66.9557 47.9188L73.816 46.2022C74.5118 46.0282 75 45.4041 75 44.687V30.3132C75.0001 29.596 74.5119 28.9718 73.8161 28.7979ZM71.8752 43.4678L65.3719 45.0943C64.8485 45.224 64.4288 45.6163 64.264 46.129C63.8153 47.5175 63.2279 48.9229 62.5183 50.3068C62.2711 50.786 62.291 51.3598 62.5687 51.8235L66.0264 57.5868L57.5866 66.0265L51.825 62.5689C51.3626 62.2942 50.7919 62.2729 50.3083 62.5185C48.9228 63.2281 47.5174 63.8155 46.1289 64.2642C45.6162 64.429 45.2241 64.8486 45.0943 65.372L43.4677 71.8753H31.5323L29.9057 65.372C29.7761 64.8486 29.3838 64.429 28.8711 64.2642C27.4826 63.8155 26.0772 63.2281 24.6917 62.5185C24.2095 62.2698 23.6359 62.2912 23.175 62.5689L17.4134 66.0265L8.97365 57.5867L12.4313 51.8234C12.709 51.3595 12.7288 50.7858 12.4817 50.3067C11.7721 48.9227 11.1847 47.5173 10.736 46.1288C10.5712 45.6161 10.1515 45.224 9.62814 45.0942L3.12496 43.4678V31.5322L9.62829 29.9057C10.1517 29.776 10.5714 29.3837 10.7362 28.871C11.1848 27.4825 11.7722 26.0771 12.4818 24.6932C12.7291 24.214 12.7092 23.6402 12.4314 23.1765L8.97365 17.4133L17.4134 8.97217L23.1767 12.4314C23.6406 12.7106 24.2142 12.732 24.6934 12.4818C26.0773 11.7722 27.4827 11.1848 28.8712 10.7361C29.3839 10.5713 29.7761 10.1517 29.9059 9.62827L31.5324 3.12495H43.4679L45.0944 9.62827C45.2241 10.1517 45.6163 10.5713 46.129 10.7361C47.5176 11.1848 48.9229 11.7722 50.3069 12.4818C50.7845 12.7291 51.3599 12.7077 51.8236 12.4314L57.5869 8.97217L66.0266 17.4133L62.569 23.1766C62.2913 23.6405 62.2715 24.2142 62.5186 24.6933C63.2282 26.0773 63.8156 27.4827 64.2643 28.8712C64.4291 29.3839 64.8488 29.776 65.3721 29.9058L71.8755 31.5324V43.4678H71.8752Z" fill="#FFB401"/>
<path d="M53.4437 38.4349C53.3129 37.9851 52.9771 37.6177 52.5309 37.4534C52.4408 37.4202 51.7107 37.1601 50.5767 36.9931C55.4215 31.8023 53.8219 25.7378 53.4437 24.5534C53.3129 24.1035 52.9771 23.7361 52.5309 23.5718C52.3229 23.4951 48.6967 22.2077 44.5653 23.6554C44.7986 22.6918 44.935 21.6324 44.935 20.4699C44.935 13.0324 39.3415 9.7634 38.219 9.18307C37.8106 8.95785 37.3148 8.93727 36.8841 9.13892C36.6064 9.26883 30.081 12.4133 30.081 20.4699C30.081 21.6348 30.218 22.6964 30.4522 23.6615C26.3135 22.2041 22.6776 23.4949 22.4693 23.5718C22.023 23.7361 21.6872 24.1035 21.5564 24.5534C21.1783 25.7378 19.5787 31.8023 24.4235 36.9931C23.2895 37.1601 22.5594 37.4202 22.4693 37.4534C22.023 37.6177 21.6871 37.9852 21.5563 38.435C21.1703 39.6442 19.5104 45.9388 24.7335 51.198C27.7561 54.2415 31.1107 54.9676 33.6241 54.9676C34.5546 54.9676 35.3679 54.8678 36.0083 54.7494V64.5085C36.0083 65.3321 36.6714 66 37.4895 66C38.3076 66 38.9707 65.3321 38.9707 64.5085V54.7456C39.614 54.8656 40.4353 54.9674 41.3759 54.9674C43.8891 54.9674 47.2442 54.2411 50.2665 51.1979C55.4896 45.9385 53.8297 39.644 53.4437 38.4349ZM36.0083 50.1C35.9754 50.777 35.881 51.346 35.7908 51.7551C34.2075 52.1093 30.2462 52.5302 26.8284 49.0886C23.462 45.6993 23.8148 41.7765 24.1875 40.0649C25.183 39.847 27.1257 39.6042 29.2764 40.307C29.418 40.3604 29.5592 40.4108 29.6996 40.4578C30.8386 40.8927 32.0213 41.6026 33.1421 42.7311C35.2779 44.8816 35.9157 47.2456 36.0083 49.1049V50.1ZM36.0083 36.2187C35.9754 36.8957 35.881 37.4647 35.7908 37.8736C34.8098 38.0933 32.9159 38.3372 30.8041 37.6735C30.5901 37.5904 30.3772 37.5148 30.1659 37.4463C29.0612 37.007 27.9172 36.3036 26.8282 35.2072C23.462 31.8177 23.8148 27.8951 24.1875 26.1836C25.7693 25.8373 29.7418 25.426 33.1421 28.8498C33.1637 28.8716 33.1833 28.8935 33.2045 28.9151C33.3344 29.0619 33.4647 29.2022 33.5949 29.337C35.3678 31.3522 35.9226 33.5038 36.0083 35.2236V36.2187ZM37.5104 28.7354C37.0462 28.4356 36.3772 27.9415 35.6978 27.2272C35.6285 27.1507 35.5584 27.0742 35.4864 26.998C34.2489 25.6137 33.0433 23.4903 33.0433 20.4699C33.0433 15.6082 36.1331 13.0857 37.5004 12.2075C38.9648 13.151 41.9724 15.6735 41.9724 20.4699C41.9724 23.3201 40.9102 25.3653 39.756 26.7476C39.5161 26.9895 39.2915 27.2338 39.0799 27.4793C38.4877 28.059 37.9205 28.4723 37.5104 28.7354ZM38.9799 35.7353C38.9778 33.9843 39.4277 31.6672 41.2694 29.4911C41.4876 29.2728 41.707 29.0379 41.9244 28.7854C45.3234 25.4189 49.2385 25.8301 50.8119 26.1806C51.1847 27.8906 51.5399 31.8157 48.1716 35.2072C47.0847 36.3018 45.943 37.0046 44.8402 37.4443C44.6253 37.5138 44.4089 37.5906 44.1911 37.6751C42.0796 38.3378 40.1869 38.093 39.2098 37.8741C39.1002 37.377 38.984 36.6469 38.9797 35.7734C38.9797 35.7607 38.9799 35.748 38.9799 35.7353ZM48.1716 49.0886C44.7532 52.5308 40.7917 52.1092 39.2121 51.7563C38.8678 50.1697 38.4514 46.1612 41.8579 42.7311C42.9478 41.6336 44.0926 40.9301 45.1982 40.4907C45.4091 40.4224 45.6214 40.3473 45.8348 40.2643C47.942 39.6021 49.8316 39.8437 50.8119 40.0619C51.1847 41.7721 51.5399 45.6972 48.1716 49.0886Z" fill="#FFB401"/>
</svg>
