<svg width="60" height="52" viewBox="0 0 60 52" fill="none" xmlns="http://www.w3.org/2000/svg">
<path d="M19.309 46.0425C18.7801 46.0425 18.3516 46.4712 18.3516 46.9999V49.8723C18.3516 50.401 18.7801 50.8297 19.309 50.8297C19.8379 50.8297 20.2665 50.401 20.2665 49.8723V46.9999C20.2665 46.4712 19.8379 46.0425 19.309 46.0425Z" fill="white"/>
<path d="M40.6913 46.0425C40.1624 46.0425 39.7339 46.4712 39.7339 46.9999V50.8297C39.7339 51.3585 40.1624 51.7872 40.6913 51.7872C41.2202 51.7872 41.6488 51.3585 41.6488 50.8297V46.9999C41.6488 46.4712 41.2202 46.0425 40.6913 46.0425Z" fill="white"/>
<path d="M3.51067 14.1278H16.7554C17.2842 14.1278 17.7128 13.6991 17.7128 13.1703C17.7128 12.6416 17.2842 12.2129 16.7554 12.2129H3.51067C2.98178 12.2129 2.55322 12.6416 2.55322 13.1703C2.55322 13.6991 2.98178 14.1278 3.51067 14.1278Z" fill="white"/>
<path d="M3.51067 10.2982H16.7554C17.2842 10.2982 17.7128 9.86952 17.7128 9.34075C17.7128 8.81198 17.2842 8.3833 16.7554 8.3833H3.51067C2.98178 8.3833 2.55322 8.81198 2.55322 9.34075C2.55322 9.86952 2.98178 10.2982 3.51067 10.2982Z" fill="white"/>
<path d="M8.61711 40.2979H51.3831C51.912 40.2979 52.3405 39.8692 52.3405 39.3404V24.6596C52.3405 24.1308 51.912 23.7021 51.3831 23.7021H44.7607C44.2318 23.7021 43.8033 24.1308 43.8033 24.6596C43.8033 25.1884 44.2318 25.617 44.7607 25.617H50.4256V38.383H9.57456V25.617H40.931C41.4598 25.617 41.8884 25.1884 41.8884 24.6596C41.8884 24.1308 41.4598 23.7021 40.931 23.7021H8.61711C8.08822 23.7021 7.65967 24.1308 7.65967 24.6596V39.3404C7.65967 39.8692 8.08822 40.2979 8.61711 40.2979Z" fill="white"/>
<path d="M20.8171 14.1247C21.3437 14.1667 21.8058 13.7744 21.8483 13.2473L22.5081 5.06472C22.6366 3.47268 24.0944 2.12778 25.6915 2.12778H34.3085C35.9057 2.12778 37.3634 3.47268 37.492 5.06472L38.1517 13.2473C38.1921 13.7483 38.6112 14.1279 39.1051 14.1279C39.1307 14.1279 39.1568 14.1269 39.183 14.1247C39.7101 14.0822 40.1029 13.6205 40.0604 13.0934L39.4006 4.91076C39.1915 2.3203 36.9072 0.212891 34.3085 0.212891H25.6915C23.0929 0.212891 20.8085 2.3203 20.5994 4.91076L19.9397 13.0934C19.8972 13.6205 20.29 14.0822 20.8171 14.1247Z" fill="white"/>
<path d="M59.0426 16.0426H52.3404V9.34046C52.3404 8.81169 51.9119 8.38301 51.383 8.38301H49.7872V5.51067C49.7872 4.9819 49.3587 4.55322 48.8298 4.55322C48.3009 4.55322 47.8723 4.9819 47.8723 5.51067V8.38301H46.2766C45.7477 8.38301 45.3191 8.81169 45.3191 9.34046V16.0426H0.957447C0.428553 16.0426 0 16.4713 0 17V20.8298C0 21.3586 0.428553 21.7873 0.957447 21.7873H3.82979V50.8298C3.82979 51.3586 4.25834 51.7873 4.78723 51.7873C5.31613 51.7873 5.74468 51.3586 5.74468 50.8298V44.1277H54.2553V50.8298C54.2553 51.3586 54.6839 51.7873 55.2128 51.7873C55.7417 51.7873 56.1702 51.3586 56.1702 50.8298V21.7873H59.0426C59.5714 21.7873 60 21.3586 60 20.8298V17C60 16.4713 59.5714 16.0426 59.0426 16.0426ZM47.234 10.2979H50.4255V16.0426H47.234V10.2979ZM54.2553 42.2128H5.74468V21.7873H54.2553V42.2128ZM58.0851 19.8724H1.91489V17.9575H58.0851V19.8724Z" fill="white"/>
</svg>
