<svg width="60" height="58" viewBox="0 0 60 58" fill="none" xmlns="http://www.w3.org/2000/svg">
<path d="M52.6275 50.064H11.9679C11.936 50.064 11.9042 50.0656 11.8726 50.0688C11.8474 50.0714 11.8228 50.0755 11.7981 50.0799C11.792 50.0811 11.7856 50.0815 11.7795 50.0827C11.7491 50.0887 11.7194 50.0964 11.6901 50.1052C11.6555 50.1157 11.6231 50.1274 11.5917 50.1409L5.47209 52.6906C5.11528 52.8393 4.88281 53.1879 4.88281 53.5743C4.88281 53.9609 5.11515 54.3095 5.47196 54.4581L11.5911 57.008C11.6509 57.0337 11.714 57.0535 11.7795 57.0665C11.7854 57.0676 11.7915 57.0681 11.7974 57.0692C11.8221 57.0736 11.847 57.0778 11.8724 57.0804C11.9041 57.0836 11.9359 57.0852 11.9678 57.0852H52.6274C54 57.0852 55.1167 55.9683 55.1167 54.5956V52.5531C55.1169 51.1806 54.0001 50.064 52.6275 50.064ZM12.9254 51.9789H45.1594V55.1703H12.9254V51.9789ZM47.0743 51.9789H48.9892V55.1703H47.0743V51.9789ZM11.0105 52.4575V54.6915L8.32962 53.5743L11.0105 52.4575ZM53.202 54.5956C53.202 54.9071 52.9389 55.1703 52.6275 55.1703H50.9041V51.9789H52.6275C52.9389 51.9789 53.202 52.2418 53.202 52.5531V54.5956Z" fill="white"/>
<path d="M59.8383 34.9575C59.8423 34.9515 59.8457 34.9451 59.8495 34.939C59.8624 34.9187 59.8751 34.8983 59.8866 34.877C59.8892 34.8724 59.8911 34.8674 59.8935 34.8627C59.9054 34.8396 59.9169 34.8162 59.9268 34.7922C59.9283 34.7888 59.9293 34.7853 59.9307 34.7819C59.9409 34.7565 59.9505 34.7307 59.9585 34.7043C59.9597 34.7004 59.9604 34.6965 59.9614 34.6926C59.969 34.6667 59.9759 34.6404 59.9812 34.6136C59.9829 34.6056 59.9835 34.5973 59.9849 34.5892C59.9889 34.5666 59.9929 34.5439 59.9951 34.5207C59.9983 34.4891 60 34.4572 60 34.4252V1.872C60 1.34323 59.5713 0.914551 59.0426 0.914551H0.957447C0.428681 0.914551 0 1.34323 0 1.872V45.9146C0 46.4433 0.428681 46.872 0.957447 46.872H47.5532C47.5852 46.872 47.6171 46.8703 47.6488 46.8671C47.672 46.8648 47.6946 46.8609 47.7174 46.8569C47.7254 46.8555 47.7337 46.8549 47.7417 46.8532C47.7686 46.8479 47.7949 46.841 47.8208 46.8333C47.8246 46.8322 47.8286 46.8315 47.8324 46.8304C47.8588 46.8223 47.8846 46.8128 47.91 46.8026C47.9134 46.8011 47.917 46.8001 47.9203 46.7987C47.9445 46.7888 47.9678 46.7773 47.9908 46.7654C47.9955 46.763 48.0004 46.7611 48.0051 46.7585C48.0264 46.747 48.0469 46.7344 48.0672 46.7214C48.0733 46.7174 48.0797 46.7141 48.0857 46.7101C48.1049 46.6972 48.1233 46.6831 48.1416 46.6688C48.148 46.6638 48.1546 46.6594 48.1609 46.6543C48.185 46.6344 48.2082 46.6135 48.2304 46.5914L59.7194 35.1023C59.7415 35.0802 59.7626 35.057 59.7823 35.0327C59.7874 35.0265 59.7918 35.0198 59.7968 35.0134C59.8111 34.9952 59.8254 34.9769 59.8383 34.9575ZM1.91489 2.82944H58.0851V33.4677H47.5532C47.0244 33.4677 46.5957 33.8964 46.5957 34.4252V44.9571H1.91489V2.82944ZM56.7312 35.3826L48.5106 43.6031V35.3826H56.7312Z" fill="white"/>
<path d="M43.7235 39.8508H38.9362V16.1337H52.9788V30.5955C52.9788 31.1242 53.4075 31.5529 53.9362 31.5529C54.465 31.5529 54.8937 31.1242 54.8937 30.5955V6.97844C54.8937 6.44968 54.465 6.021 53.9362 6.021H13.7235C13.1947 6.021 12.766 6.44968 12.766 6.97844C12.766 7.50721 13.1947 7.93589 13.7235 7.93589H52.9788V14.2188H7.02134V7.93589H9.89368C10.4224 7.93589 10.8511 7.50721 10.8511 6.97844C10.8511 6.44968 10.4224 6.021 9.89368 6.021H6.06389C5.53513 6.021 5.10645 6.44968 5.10645 6.97844V40.8082C5.10645 41.337 5.53513 41.7657 6.06389 41.7657H43.7235C44.2522 41.7657 44.6809 41.337 44.6809 40.8082C44.6809 40.2795 44.2522 39.8508 43.7235 39.8508ZM37.0213 39.8508H22.9788V16.1337H37.0213V39.8508ZM7.02134 16.1337H21.0639V39.8508H7.02134V16.1337Z" fill="white"/>
</svg>
