<svg width="20" height="20" viewBox="0 0 20 20" fill="none" xmlns="http://www.w3.org/2000/svg">
<path d="M0.666512 9.99996L0.0478448 9.75196C-0.0159483 9.91114 -0.0159483 10.0888 0.0478448 10.248L0.666512 9.99996ZM19.3332 9.99996L19.9518 10.248C20.0156 10.0888 20.0156 9.91114 19.9518 9.75196L19.3332 9.99996ZM9.99985 16C6.91451 16 4.74785 14.464 3.32918 12.888C2.55398 12.0208 1.9037 11.0497 1.39718 10.0026C1.36007 9.92332 1.32451 9.84331 1.29051 9.76263L1.28518 9.75329V9.75196L0.666512 9.99996L0.0478448 10.248V10.2506L0.0518449 10.256C0.0629468 10.2841 0.0745038 10.3121 0.0865115 10.34L0.190512 10.5706C0.75252 11.7351 1.47512 12.8149 2.33718 13.7786C3.91985 15.536 6.41851 17.3333 9.99985 17.3333V16ZM0.666512 9.99996L1.28518 10.248L1.29051 10.2373C1.32305 10.156 1.35863 10.0759 1.39718 9.99729C1.9037 8.95025 2.55398 7.97909 3.32918 7.11196C4.74651 5.53596 6.91451 3.99996 9.99985 3.99996V2.66663C6.41851 2.66663 3.91851 4.46396 2.33718 6.22129C1.4751 7.18496 0.752505 8.26482 0.190512 9.42929C0.142059 9.53318 0.095826 9.6381 0.0518449 9.74396L0.0491782 9.74929V9.75063H0.0465115L0.666512 9.99996ZM9.99985 3.99996C13.0852 3.99996 15.2518 5.53596 16.6705 7.11196C17.4457 7.97911 18.096 8.95027 18.6025 9.99729C18.6397 10.0765 18.6753 10.1566 18.7092 10.2373L18.7145 10.2466V10.248L19.3332 9.99996L19.9518 9.75196V9.74929L19.9478 9.74396C19.9378 9.71538 19.9262 9.68734 19.9132 9.65996C19.7563 9.30834 19.5828 8.9644 19.3932 8.62929C18.9043 7.76688 18.3241 6.95956 17.6625 6.22129C16.0798 4.46396 13.5812 2.66663 9.99985 2.66663V3.99996ZM19.3332 9.99996C19.1267 9.91804 18.9204 9.83537 18.7145 9.75196L18.7105 9.76263L18.6905 9.80929L18.6025 10.0026C18.096 11.0496 17.4457 12.0208 16.6705 12.888C15.2532 14.464 13.0852 16 9.99985 16V17.3333C13.5812 17.3333 16.0812 15.536 17.6625 13.78C18.5247 12.8159 19.2473 11.7356 19.8092 10.5706C19.8576 10.4667 19.9038 10.3618 19.9478 10.256L19.9505 10.2506V10.2493H19.9518L19.3332 9.99996ZM9.99985 12C9.46941 12 8.9607 11.7892 8.58563 11.4142C8.21056 11.0391 7.99985 10.5304 7.99985 9.99996H6.66651C6.66651 10.884 7.0177 11.7319 7.64282 12.357C8.26794 12.9821 9.11579 13.3333 9.99985 13.3333V12ZM11.9998 9.99996C11.9998 10.5304 11.7891 11.0391 11.4141 11.4142C11.039 11.7892 10.5303 12 9.99985 12V13.3333C10.8839 13.3333 11.7317 12.9821 12.3569 12.357C12.982 11.7319 13.3332 10.884 13.3332 9.99996H11.9998ZM9.99985 7.99996C10.5303 7.99996 11.039 8.21067 11.4141 8.58575C11.7891 8.96082 11.9998 9.46953 11.9998 9.99996H13.3332C13.3332 9.1159 12.982 8.26806 12.3569 7.64294C11.7317 7.01782 10.8839 6.66663 9.99985 6.66663V7.99996ZM9.99985 6.66663C9.11579 6.66663 8.26794 7.01782 7.64282 7.64294C7.0177 8.26806 6.66651 9.1159 6.66651 9.99996H7.99985C7.99985 9.46953 8.21056 8.96082 8.58563 8.58575C8.9607 8.21067 9.46941 7.99996 9.99985 7.99996V6.66663Z" fill="#C4C4C4"/>
</svg>
