<svg width="30" height="30" viewBox="0 0 30 30" fill="none" xmlns="http://www.w3.org/2000/svg">
<path d="M25.3555 19.4617H23.4289V16.2891C23.4289 15.9055 23.1179 15.5945 22.7344 15.5945H15.6945V13.1164H20.1562C20.5398 13.1164 20.8508 12.8054 20.8508 12.4219V4.64453C20.8508 4.26096 20.5398 3.95 20.1562 3.95H9.84375C9.46018 3.95 9.14922 4.26096 9.14922 4.64453V12.4219C9.14922 12.8054 9.46018 13.1164 9.84375 13.1164H14.3055V15.5945H7.26562C6.88206 15.5945 6.57109 15.9055 6.57109 16.2891V19.4617H4.64453C4.26096 19.4617 3.95 19.7727 3.95 20.1562V25.3555C3.95 25.739 4.26096 26.05 4.64453 26.05H9.84375C10.2273 26.05 10.5383 25.739 10.5383 25.3555V20.1562C10.5383 19.7727 10.2273 19.4617 9.84375 19.4617H7.96016V16.9836H14.3055V19.4617H12.4219C12.0383 19.4617 11.7273 19.7727 11.7273 20.1562V25.3555C11.7273 25.739 12.0383 26.05 12.4219 26.05H17.5781C17.9617 26.05 18.2727 25.739 18.2727 25.3555V20.1562C18.2727 19.7727 17.9617 19.4617 17.5781 19.4617H15.6945V16.9836H22.0398V19.4617H20.1562C19.7727 19.4617 19.4617 19.7727 19.4617 20.1562V25.3555C19.4617 25.739 19.7727 26.05 20.1562 26.05H25.3555C25.739 26.05 26.05 25.739 26.05 25.3555V20.1562C26.05 19.7727 25.739 19.4617 25.3555 19.4617ZM10.5383 5.33906H19.4617V11.7273H10.5383V5.33906ZM9.14922 24.6609H5.33906V20.8508H9.14922V24.6609ZM16.8836 24.6609H13.1164V20.8508H16.8836V24.6609ZM24.6609 24.6609H20.8508V20.8508H24.6609V24.6609Z" fill="#171717" stroke="#171717" stroke-width="0.1"/>
</svg>
