<svg width="60" height="58" viewBox="0 0 60 58" fill="none" xmlns="http://www.w3.org/2000/svg">
<path d="M24.5699 36.6325H22.9741V33.3268C22.9741 32.798 22.5456 32.3693 22.0167 32.3693C21.4878 32.3693 21.0592 32.798 21.0592 33.3268V36.6325H18.9331V29.497C18.9331 28.9682 18.5045 28.5396 17.9756 28.5396C17.4467 28.5396 17.0182 28.9682 17.0182 29.497V36.6325H14.8921V33.3268C14.8921 32.798 14.4636 32.3693 13.9347 32.3693C13.4058 32.3693 12.9772 32.798 12.9772 33.3268V36.6325H10.8509V29.497C10.8509 28.9682 10.4224 28.5396 9.89348 28.5396C9.36459 28.5396 8.93604 28.9682 8.93604 29.497V37.59C8.93604 38.1187 9.36459 38.5474 9.89348 38.5474H24.5699C25.0988 38.5474 25.5273 38.1187 25.5273 37.59C25.5273 37.0612 25.0986 36.6325 24.5699 36.6325Z" fill="white"/>
<path d="M24.5699 5.79834H9.89348C9.36459 5.79834 8.93604 6.22702 8.93604 6.75579C8.93604 7.28455 9.36459 7.71323 9.89348 7.71323H24.5699C25.0988 7.71323 25.5273 7.28455 25.5273 6.75579C25.5273 6.22702 25.0986 5.79834 24.5699 5.79834Z" fill="white"/>
<path d="M24.5699 10.3467H9.89348C9.36459 10.3467 8.93604 10.7754 8.93604 11.3041C8.93604 11.8329 9.36459 12.2616 9.89348 12.2616H24.5699C25.0988 12.2616 25.5273 11.8329 25.5273 11.3041C25.5273 10.7754 25.0986 10.3467 24.5699 10.3467Z" fill="white"/>
<path d="M9.89348 16.8099H17.2316C17.7605 16.8099 18.1891 16.3812 18.1891 15.8525C18.1891 15.3237 17.7605 14.895 17.2316 14.895H9.89348C9.36459 14.895 8.93604 15.3237 8.93604 15.8525C8.93604 16.3812 9.36459 16.8099 9.89348 16.8099Z" fill="white"/>
<path d="M24.5699 19.4429H9.89348C9.36459 19.4429 8.93604 19.8716 8.93604 20.4003C8.93604 20.9291 9.36459 21.3578 9.89348 21.3578H24.5699C25.0988 21.3578 25.5273 20.9291 25.5273 20.4003C25.5273 19.8716 25.0986 19.4429 24.5699 19.4429Z" fill="white"/>
<path d="M24.5699 23.9912H9.89348C9.36459 23.9912 8.93604 24.4199 8.93604 24.9487C8.93604 25.4774 9.36459 25.9061 9.89348 25.9061H24.5699C25.0988 25.9061 25.5273 25.4774 25.5273 24.9487C25.5273 24.4199 25.0986 23.9912 24.5699 23.9912Z" fill="white"/>
<path d="M29.9999 6.49072C29.471 6.49072 29.0425 6.9194 29.0425 7.44817V39.7266C29.0425 40.2554 29.471 40.6841 29.9999 40.6841C30.5288 40.6841 30.9574 40.2554 30.9574 39.7266V7.44817C30.9574 6.91928 30.5288 6.49072 29.9999 6.49072Z" fill="white"/>
<path d="M59.0426 8.35147H56.1702V1.64934C56.1702 1.12058 55.7417 0.691895 55.2128 0.691895H33.6679C32.2871 0.691895 30.9826 1.21977 30 2.14377C29.0173 1.21977 27.7127 0.691895 26.3321 0.691895H4.78723C4.25834 0.691895 3.82979 1.12058 3.82979 1.64934V8.35147H0.957447C0.428553 8.35147 0 8.78015 0 9.30892V50.3559C0 50.8847 0.428553 51.3134 0.957447 51.3134H26.1494L27.2212 52.5636C27.4031 52.7757 27.6687 52.8978 27.9481 52.8978L32.0526 52.8974C32.3321 52.8974 32.5977 52.7752 32.7795 52.5629L33.8505 51.3133H39.0956V54.8192C39.0956 56.1918 40.2124 57.3085 41.5852 57.3085H43.6278C45.0003 57.3085 46.1169 56.1918 46.1169 54.8192V51.3133H59.0426C59.5714 51.3133 60 50.8846 60 50.3558V9.30892C60 8.78015 59.5714 8.35147 59.0426 8.35147ZM44.2021 15.1172V47.3512H41.0106V15.1172H44.2021ZM41.0106 49.2661H44.2021V51.181H41.0106V49.2661ZM41.4894 13.2023L42.6065 10.5214L43.7234 13.2023H41.4894ZM43.6279 55.3938H41.5854C41.2739 55.3938 41.0106 55.1307 41.0106 54.8193V53.0959H44.2021V54.8193C44.2021 55.1307 43.9392 55.3938 43.6279 55.3938ZM58.0851 49.3985H46.117V14.1597C46.117 14.1278 46.1154 14.096 46.1122 14.0644C46.1095 14.0379 46.1053 14.012 46.1006 13.9862C46.0997 13.9814 46.0993 13.9764 46.0983 13.9716C46.0851 13.9058 46.0653 13.8425 46.0394 13.7822L43.4903 7.66389C43.3417 7.30709 42.9931 7.07462 42.6065 7.07462C42.2201 7.07462 41.8713 7.30696 41.7227 7.66377L39.1729 13.7827C39.1472 13.8427 39.1274 13.9058 39.1143 13.9714C39.1132 13.9768 39.1129 13.9822 39.1118 13.9875C39.1072 14.0128 39.1029 14.0383 39.1003 14.0642C39.0971 14.0959 39.0955 14.1277 39.0955 14.1596V49.3984H33.6677C33.1776 49.3984 32.7212 49.6312 32.4326 50.0248L31.6118 50.9825L28.3879 50.9827L27.5667 50.0249C27.2777 49.6312 26.8211 49.3984 26.3316 49.3984H1.91489V10.2664H3.82979V42.6964C3.82979 43.2251 4.25834 43.6538 4.78723 43.6538H26.3321C27.3973 43.6538 28.391 44.1433 29.0426 44.9742V46.3044C28.2332 45.8298 27.3017 45.5687 26.3321 45.5687H4.78723C4.25834 45.5687 3.82979 45.9974 3.82979 46.5261C3.82979 47.0549 4.25834 47.4836 4.78723 47.4836H26.3321C27.4883 47.4836 28.5614 48.0593 29.2029 49.0236C29.224 49.055 29.2462 49.0839 29.2699 49.1119C29.2762 49.1193 29.2829 49.1262 29.2894 49.1333C29.3072 49.153 29.3254 49.1719 29.3447 49.19C29.3533 49.1981 29.3618 49.2059 29.3706 49.2135C29.3908 49.2311 29.4119 49.2478 29.4334 49.2638C29.4406 49.269 29.4475 49.2747 29.4548 49.2798C29.4846 49.3006 29.5157 49.3199 29.548 49.3372C29.5796 49.3542 29.6124 49.3689 29.6459 49.3823C29.6538 49.3855 29.662 49.3881 29.67 49.3911C29.6962 49.4007 29.7226 49.4092 29.7498 49.4165C29.7596 49.4192 29.7696 49.4219 29.7795 49.4241C29.8062 49.4304 29.8333 49.4354 29.8607 49.4395C29.8703 49.4409 29.8797 49.4427 29.8894 49.4438C29.9258 49.448 29.9627 49.4507 30.0003 49.4507C30.0382 49.4507 30.0747 49.448 30.1109 49.4438C30.121 49.4427 30.1308 49.4407 30.1408 49.4392C30.1677 49.4353 30.1944 49.4303 30.2207 49.4241C30.2311 49.4217 30.2411 49.419 30.2514 49.4162C30.278 49.409 30.3042 49.4005 30.3299 49.3911C30.3383 49.388 30.3467 49.3852 30.355 49.3819C30.388 49.3687 30.4201 49.3542 30.4511 49.3377C30.485 49.3197 30.5157 49.3004 30.5455 49.2798C30.5531 49.2745 30.5603 49.2687 30.5678 49.263C30.5891 49.2473 30.6097 49.231 30.6296 49.2136C30.6386 49.2059 30.6474 49.1978 30.656 49.1896C30.6751 49.1718 30.6932 49.1531 30.7106 49.1337C30.7173 49.1263 30.7242 49.1192 30.7307 49.1115C30.7543 49.0837 30.7764 49.0548 30.7967 49.0244C31.4387 48.0592 32.5118 47.4835 33.6683 47.4835H36.2238C36.7527 47.4835 37.1812 47.0548 37.1812 46.526C37.1812 45.9973 36.7527 45.5686 36.2238 45.5686H33.6683C32.6986 45.5686 31.7672 45.8295 30.9578 46.3041V44.9741C31.6091 44.1433 32.603 43.6537 33.6683 43.6537H36.2238C36.7527 43.6537 37.1812 43.225 37.1812 42.6962C37.1812 42.1675 36.7527 41.7388 36.2238 41.7388H33.6683C32.2874 41.7388 30.983 42.2661 30.0003 43.1895C29.0175 42.2663 27.7131 41.7388 26.3325 41.7388H5.74468V2.60679H26.3321C27.4882 2.60679 28.5611 3.18304 29.2026 4.14828C29.3801 4.41534 29.6793 4.57581 30 4.57581C30.3207 4.57581 30.6199 4.41534 30.7975 4.14828C31.4387 3.18304 32.512 2.60692 33.6679 2.60692H54.2553V41.739H48.9894C48.4605 41.739 48.0319 42.1677 48.0319 42.6965C48.0319 43.2253 48.4605 43.6539 48.9894 43.6539H55.2128C55.7417 43.6539 56.1702 43.2253 56.1702 42.6965V10.2664H58.0851V49.3985Z" fill="white"/>
<path d="M55.2126 45.5688H48.9892C48.4603 45.5688 48.0317 45.9975 48.0317 46.5263C48.0317 47.0551 48.4603 47.4837 48.9892 47.4837H55.2126C55.7415 47.4837 56.17 47.0551 56.17 46.5263C56.17 45.9975 55.7415 45.5688 55.2126 45.5688Z" fill="white"/>
</svg>
