<svg width="62" height="62" viewBox="0 0 62 62" fill="none" xmlns="http://www.w3.org/2000/svg">
<mask id="path-1-outside-1" maskUnits="userSpaceOnUse" x="0" y="0" width="62" height="62" fill="black">
<rect fill="white" width="62" height="62"/>
<path d="M59.1084 25.6446H53.109C53.0211 25.2798 52.9266 24.9231 52.8268 24.5783L58.0182 21.5817C58.9194 21.0612 59.2296 19.9018 58.7091 18.9992L55.2441 12.9981C54.7237 12.0982 53.5656 11.7881 52.663 12.3072L47.4503 15.3171C47.2 15.0562 46.9418 14.7979 46.6796 14.5463L49.6906 9.33333C50.2097 8.43211 49.8996 7.27396 48.9984 6.75213L42.9976 3.28701C42.0964 2.76651 40.937 3.07535 40.4165 3.97923L37.4201 9.17093C37.0767 9.07242 36.7239 8.9779 36.3539 8.89004V2.89031C36.3539 1.84798 35.5059 1 34.4636 1H27.535C26.4927 1 25.6448 1.84798 25.6448 2.89031V8.89004C25.2747 8.9779 24.9207 9.07109 24.5786 9.17093L21.5822 3.97923C21.0603 3.07668 19.9036 2.76651 19.0011 3.28701L12.9989 6.75213C12.0978 7.27396 11.7876 8.43211 12.3081 9.33333L15.3178 14.5463C15.0556 14.7966 14.7973 15.0548 14.5471 15.3171L9.33429 12.3072C8.43178 11.7867 7.27368 12.0969 6.75188 12.9981L3.28691 18.9992C2.76643 19.9018 3.07659 21.0599 3.9791 21.5817L9.17056 24.5783C9.07206 24.9217 8.97755 25.2745 8.88969 25.6446H2.89023C1.84794 25.6446 1 26.4925 1 27.5349V34.4638C1 35.5061 1.84794 36.3541 2.89023 36.3541H8.88969C8.97755 36.7242 9.07073 37.0769 9.17056 37.4204L3.9791 40.4169C3.07659 40.9388 2.76643 42.0969 3.28824 42.9981L6.75321 49.0005C7.27368 49.9004 8.43045 50.2106 9.33429 49.6901L14.5471 46.6802C14.7986 46.9452 15.0569 47.2021 15.3191 47.451L12.3094 52.664C11.7889 53.5652 12.0991 54.7234 13.0003 55.2452L19.0024 58.7117C19.9049 59.2335 21.063 58.9207 21.5835 58.0194L24.5799 52.8277C24.9247 52.9276 25.2814 53.0221 25.6461 53.11V59.1097C25.6461 60.152 26.4941 61 27.5364 61H34.465C35.5073 61 36.3552 60.152 36.3552 59.1097V53.11C36.7199 53.0221 37.0767 52.9276 37.4214 52.8277L40.4178 58.0194C40.9383 58.9207 42.0977 59.2348 42.9989 58.7103L49.0011 55.2452C49.9009 54.7234 50.2111 53.5652 49.6906 52.664L46.6809 47.451C46.9431 47.1994 47.2014 46.9412 47.4516 46.6802L52.6657 49.6914C53.5642 50.2093 54.725 49.8991 55.2455 48.9992L58.7104 42.9981C59.2322 42.0969 58.9207 40.9374 58.0196 40.4169L52.8281 37.4204C52.9279 37.0743 53.0224 36.7188 53.1103 36.3541H59.1098C60.1521 36.3541 61 35.5061 61 34.4638V27.5349C60.9973 26.4925 60.1507 25.6446 59.1084 25.6446ZM59.7381 34.4638C59.7381 34.8112 59.4545 35.0935 59.1084 35.0935H52.0986L51.9921 35.59C51.8444 36.2676 51.6727 36.9185 51.481 37.5242L51.3266 38.0075L57.3913 41.5072C57.6921 41.6816 57.7959 42.0676 57.6229 42.3685L54.1579 48.3695C53.9849 48.6704 53.5975 48.7742 53.2967 48.6025L47.2107 45.0881L46.8699 45.4622C46.424 45.9507 45.9514 46.4247 45.4629 46.8693L45.0888 47.2101L48.6017 53.295C48.7748 53.5958 48.6723 53.9832 48.3714 54.1576L42.3706 57.6227C42.0698 57.7931 41.6824 57.692 41.5094 57.3911L38.0098 51.3261L37.5266 51.4806C36.9209 51.6723 36.27 51.8453 35.5924 51.9917L35.0959 52.0982V59.1084C35.0959 59.4558 34.8124 59.738 34.4663 59.738H27.5377C27.1903 59.738 26.9081 59.4545 26.9081 59.1084V52.0982L26.4115 51.9917C25.7327 51.844 25.0817 51.6723 24.4774 51.4806L23.9942 51.3261L20.4933 57.3911C20.3189 57.692 19.9329 57.7931 19.6334 57.6227L13.6326 54.1576C13.3317 53.9832 13.2279 53.5972 13.4023 53.2963L16.9165 47.2101L16.5411 46.8679C16.0579 46.4286 15.584 45.9547 15.1328 45.4622L14.792 45.0881L8.70733 48.6012C8.40383 48.7756 8.01912 48.6717 7.84608 48.3709L4.38111 42.3698C4.20673 42.069 4.31056 41.6829 4.61139 41.5085L10.6761 38.0088L10.5217 37.5269C10.33 36.9252 10.1623 36.2915 10.0105 35.5913L9.90269 35.0961H2.89289C2.54546 35.0961 2.26326 34.8126 2.26326 34.4665V27.5375C2.26326 27.1901 2.54546 26.9079 2.89289 26.9079H9.90269L10.0105 26.4127C10.1623 25.7125 10.33 25.0788 10.5217 24.4771L10.6761 23.9952L4.61273 20.4955C4.31189 20.3211 4.20673 19.935 4.38111 19.6342L7.84474 13.6331C8.01912 13.3336 8.40382 13.2284 8.70599 13.4028L14.7907 16.9159L15.1314 16.5418C15.5774 16.0532 16.0512 15.5793 16.5398 15.1334L16.9138 14.7926L13.4009 8.70767C13.2279 8.40681 13.3304 8.02077 13.6312 7.84638L19.632 4.38126C19.9315 4.20687 20.3176 4.3107 20.4919 4.61155L23.9929 10.6765L24.4761 10.5221C25.0777 10.3304 25.71 10.1627 26.4102 10.0109L26.9054 9.90309V2.89297C26.9054 2.54553 27.1876 2.26331 27.535 2.26331H34.4636C34.8111 2.26331 35.0933 2.54553 35.0933 2.89297V9.90309L35.5885 10.0109C36.2886 10.1627 36.9223 10.3304 37.5239 10.5221L38.0058 10.6765L41.5054 4.61289C41.6784 4.3107 42.0658 4.20687 42.3666 4.38126L48.3674 7.84505C48.6683 8.01944 48.7721 8.40548 48.6004 8.70634L45.0862 14.7913L45.4602 15.1321C45.9527 15.582 46.4266 16.0559 46.8672 16.5405L47.208 16.9145L53.294 13.4015C53.5922 13.2271 53.9809 13.3309 54.1553 13.6318L57.6189 19.6329C57.7933 19.9337 57.6894 20.3211 57.3886 20.4955L51.3239 23.9952L51.4783 24.4784C51.67 25.0841 51.8431 25.7351 51.9895 26.4127L52.096 26.9092H59.1058C59.4532 26.9092 59.7354 27.1928 59.7354 27.5389V34.4638H59.7381Z"/>
</mask>
<path d="M59.1084 25.6446H53.109C53.0211 25.2798 52.9266 24.9231 52.8268 24.5783L58.0182 21.5817C58.9194 21.0612 59.2296 19.9018 58.7091 18.9992L55.2441 12.9981C54.7237 12.0982 53.5656 11.7881 52.663 12.3072L47.4503 15.3171C47.2 15.0562 46.9418 14.7979 46.6796 14.5463L49.6906 9.33333C50.2097 8.43211 49.8996 7.27396 48.9984 6.75213L42.9976 3.28701C42.0964 2.76651 40.937 3.07535 40.4165 3.97923L37.4201 9.17093C37.0767 9.07242 36.7239 8.9779 36.3539 8.89004V2.89031C36.3539 1.84798 35.5059 1 34.4636 1H27.535C26.4927 1 25.6448 1.84798 25.6448 2.89031V8.89004C25.2747 8.9779 24.9207 9.07109 24.5786 9.17093L21.5822 3.97923C21.0603 3.07668 19.9036 2.76651 19.0011 3.28701L12.9989 6.75213C12.0978 7.27396 11.7876 8.43211 12.3081 9.33333L15.3178 14.5463C15.0556 14.7966 14.7973 15.0548 14.5471 15.3171L9.33429 12.3072C8.43178 11.7867 7.27368 12.0969 6.75188 12.9981L3.28691 18.9992C2.76643 19.9018 3.07659 21.0599 3.9791 21.5817L9.17056 24.5783C9.07206 24.9217 8.97755 25.2745 8.88969 25.6446H2.89023C1.84794 25.6446 1 26.4925 1 27.5349V34.4638C1 35.5061 1.84794 36.3541 2.89023 36.3541H8.88969C8.97755 36.7242 9.07073 37.0769 9.17056 37.4204L3.9791 40.4169C3.07659 40.9388 2.76643 42.0969 3.28824 42.9981L6.75321 49.0005C7.27368 49.9004 8.43045 50.2106 9.33429 49.6901L14.5471 46.6802C14.7986 46.9452 15.0569 47.2021 15.3191 47.451L12.3094 52.664C11.7889 53.5652 12.0991 54.7234 13.0003 55.2452L19.0024 58.7117C19.9049 59.2335 21.063 58.9207 21.5835 58.0194L24.5799 52.8277C24.9247 52.9276 25.2814 53.0221 25.6461 53.11V59.1097C25.6461 60.152 26.4941 61 27.5364 61H34.465C35.5073 61 36.3552 60.152 36.3552 59.1097V53.11C36.7199 53.0221 37.0767 52.9276 37.4214 52.8277L40.4178 58.0194C40.9383 58.9207 42.0977 59.2348 42.9989 58.7103L49.0011 55.2452C49.9009 54.7234 50.2111 53.5652 49.6906 52.664L46.6809 47.451C46.9431 47.1994 47.2014 46.9412 47.4516 46.6802L52.6657 49.6914C53.5642 50.2093 54.725 49.8991 55.2455 48.9992L58.7104 42.9981C59.2322 42.0969 58.9207 40.9374 58.0196 40.4169L52.8281 37.4204C52.9279 37.0743 53.0224 36.7188 53.1103 36.3541H59.1098C60.1521 36.3541 61 35.5061 61 34.4638V27.5349C60.9973 26.4925 60.1507 25.6446 59.1084 25.6446ZM59.7381 34.4638C59.7381 34.8112 59.4545 35.0935 59.1084 35.0935H52.0986L51.9921 35.59C51.8444 36.2676 51.6727 36.9185 51.481 37.5242L51.3266 38.0075L57.3913 41.5072C57.6921 41.6816 57.7959 42.0676 57.6229 42.3685L54.1579 48.3695C53.9849 48.6704 53.5975 48.7742 53.2967 48.6025L47.2107 45.0881L46.8699 45.4622C46.424 45.9507 45.9514 46.4247 45.4629 46.8693L45.0888 47.2101L48.6017 53.295C48.7748 53.5958 48.6723 53.9832 48.3714 54.1576L42.3706 57.6227C42.0698 57.7931 41.6824 57.692 41.5094 57.3911L38.0098 51.3261L37.5266 51.4806C36.9209 51.6723 36.27 51.8453 35.5924 51.9917L35.0959 52.0982V59.1084C35.0959 59.4558 34.8124 59.738 34.4663 59.738H27.5377C27.1903 59.738 26.9081 59.4545 26.9081 59.1084V52.0982L26.4115 51.9917C25.7327 51.844 25.0817 51.6723 24.4774 51.4806L23.9942 51.3261L20.4933 57.3911C20.3189 57.692 19.9329 57.7931 19.6334 57.6227L13.6326 54.1576C13.3317 53.9832 13.2279 53.5972 13.4023 53.2963L16.9165 47.2101L16.5411 46.8679C16.0579 46.4286 15.584 45.9547 15.1328 45.4622L14.792 45.0881L8.70733 48.6012C8.40383 48.7756 8.01912 48.6717 7.84608 48.3709L4.38111 42.3698C4.20673 42.069 4.31056 41.6829 4.61139 41.5085L10.6761 38.0088L10.5217 37.5269C10.33 36.9252 10.1623 36.2915 10.0105 35.5913L9.90269 35.0961H2.89289C2.54546 35.0961 2.26326 34.8126 2.26326 34.4665V27.5375C2.26326 27.1901 2.54546 26.9079 2.89289 26.9079H9.90269L10.0105 26.4127C10.1623 25.7125 10.33 25.0788 10.5217 24.4771L10.6761 23.9952L4.61273 20.4955C4.31189 20.3211 4.20673 19.935 4.38111 19.6342L7.84474 13.6331C8.01912 13.3336 8.40382 13.2284 8.70599 13.4028L14.7907 16.9159L15.1314 16.5418C15.5774 16.0532 16.0512 15.5793 16.5398 15.1334L16.9138 14.7926L13.4009 8.70767C13.2279 8.40681 13.3304 8.02077 13.6312 7.84638L19.632 4.38126C19.9315 4.20687 20.3176 4.3107 20.4919 4.61155L23.9929 10.6765L24.4761 10.5221C25.0777 10.3304 25.71 10.1627 26.4102 10.0109L26.9054 9.90309V2.89297C26.9054 2.54553 27.1876 2.26331 27.535 2.26331H34.4636C34.8111 2.26331 35.0933 2.54553 35.0933 2.89297V9.90309L35.5885 10.0109C36.2886 10.1627 36.9223 10.3304 37.5239 10.5221L38.0058 10.6765L41.5054 4.61289C41.6784 4.3107 42.0658 4.20687 42.3666 4.38126L48.3674 7.84505C48.6683 8.01944 48.7721 8.40548 48.6004 8.70634L45.0862 14.7913L45.4602 15.1321C45.9527 15.582 46.4266 16.0559 46.8672 16.5405L47.208 16.9145L53.294 13.4015C53.5922 13.2271 53.9809 13.3309 54.1553 13.6318L57.6189 19.6329C57.7933 19.9337 57.6894 20.3211 57.3886 20.4955L51.3239 23.9952L51.4783 24.4784C51.67 25.0841 51.8431 25.7351 51.9895 26.4127L52.096 26.9092H59.1058C59.4532 26.9092 59.7354 27.1928 59.7354 27.5389V34.4638H59.7381Z" fill="white"/>
<path d="M59.1084 25.6446H53.109C53.0211 25.2798 52.9266 24.9231 52.8268 24.5783L58.0182 21.5817C58.9194 21.0612 59.2296 19.9018 58.7091 18.9992L55.2441 12.9981C54.7237 12.0982 53.5656 11.7881 52.663 12.3072L47.4503 15.3171C47.2 15.0562 46.9418 14.7979 46.6796 14.5463L49.6906 9.33333C50.2097 8.43211 49.8996 7.27396 48.9984 6.75213L42.9976 3.28701C42.0964 2.76651 40.937 3.07535 40.4165 3.97923L37.4201 9.17093C37.0767 9.07242 36.7239 8.9779 36.3539 8.89004V2.89031C36.3539 1.84798 35.5059 1 34.4636 1H27.535C26.4927 1 25.6448 1.84798 25.6448 2.89031V8.89004C25.2747 8.9779 24.9207 9.07109 24.5786 9.17093L21.5822 3.97923C21.0603 3.07668 19.9036 2.76651 19.0011 3.28701L12.9989 6.75213C12.0978 7.27396 11.7876 8.43211 12.3081 9.33333L15.3178 14.5463C15.0556 14.7966 14.7973 15.0548 14.5471 15.3171L9.33429 12.3072C8.43178 11.7867 7.27368 12.0969 6.75188 12.9981L3.28691 18.9992C2.76643 19.9018 3.07659 21.0599 3.9791 21.5817L9.17056 24.5783C9.07206 24.9217 8.97755 25.2745 8.88969 25.6446H2.89023C1.84794 25.6446 1 26.4925 1 27.5349V34.4638C1 35.5061 1.84794 36.3541 2.89023 36.3541H8.88969C8.97755 36.7242 9.07073 37.0769 9.17056 37.4204L3.9791 40.4169C3.07659 40.9388 2.76643 42.0969 3.28824 42.9981L6.75321 49.0005C7.27368 49.9004 8.43045 50.2106 9.33429 49.6901L14.5471 46.6802C14.7986 46.9452 15.0569 47.2021 15.3191 47.451L12.3094 52.664C11.7889 53.5652 12.0991 54.7234 13.0003 55.2452L19.0024 58.7117C19.9049 59.2335 21.063 58.9207 21.5835 58.0194L24.5799 52.8277C24.9247 52.9276 25.2814 53.0221 25.6461 53.11V59.1097C25.6461 60.152 26.4941 61 27.5364 61H34.465C35.5073 61 36.3552 60.152 36.3552 59.1097V53.11C36.7199 53.0221 37.0767 52.9276 37.4214 52.8277L40.4178 58.0194C40.9383 58.9207 42.0977 59.2348 42.9989 58.7103L49.0011 55.2452C49.9009 54.7234 50.2111 53.5652 49.6906 52.664L46.6809 47.451C46.9431 47.1994 47.2014 46.9412 47.4516 46.6802L52.6657 49.6914C53.5642 50.2093 54.725 49.8991 55.2455 48.9992L58.7104 42.9981C59.2322 42.0969 58.9207 40.9374 58.0196 40.4169L52.8281 37.4204C52.9279 37.0743 53.0224 36.7188 53.1103 36.3541H59.1098C60.1521 36.3541 61 35.5061 61 34.4638V27.5349C60.9973 26.4925 60.1507 25.6446 59.1084 25.6446ZM59.7381 34.4638C59.7381 34.8112 59.4545 35.0935 59.1084 35.0935H52.0986L51.9921 35.59C51.8444 36.2676 51.6727 36.9185 51.481 37.5242L51.3266 38.0075L57.3913 41.5072C57.6921 41.6816 57.7959 42.0676 57.6229 42.3685L54.1579 48.3695C53.9849 48.6704 53.5975 48.7742 53.2967 48.6025L47.2107 45.0881L46.8699 45.4622C46.424 45.9507 45.9514 46.4247 45.4629 46.8693L45.0888 47.2101L48.6017 53.295C48.7748 53.5958 48.6723 53.9832 48.3714 54.1576L42.3706 57.6227C42.0698 57.7931 41.6824 57.692 41.5094 57.3911L38.0098 51.3261L37.5266 51.4806C36.9209 51.6723 36.27 51.8453 35.5924 51.9917L35.0959 52.0982V59.1084C35.0959 59.4558 34.8124 59.738 34.4663 59.738H27.5377C27.1903 59.738 26.9081 59.4545 26.9081 59.1084V52.0982L26.4115 51.9917C25.7327 51.844 25.0817 51.6723 24.4774 51.4806L23.9942 51.3261L20.4933 57.3911C20.3189 57.692 19.9329 57.7931 19.6334 57.6227L13.6326 54.1576C13.3317 53.9832 13.2279 53.5972 13.4023 53.2963L16.9165 47.2101L16.5411 46.8679C16.0579 46.4286 15.584 45.9547 15.1328 45.4622L14.792 45.0881L8.70733 48.6012C8.40383 48.7756 8.01912 48.6717 7.84608 48.3709L4.38111 42.3698C4.20673 42.069 4.31056 41.6829 4.61139 41.5085L10.6761 38.0088L10.5217 37.5269C10.33 36.9252 10.1623 36.2915 10.0105 35.5913L9.90269 35.0961H2.89289C2.54546 35.0961 2.26326 34.8126 2.26326 34.4665V27.5375C2.26326 27.1901 2.54546 26.9079 2.89289 26.9079H9.90269L10.0105 26.4127C10.1623 25.7125 10.33 25.0788 10.5217 24.4771L10.6761 23.9952L4.61273 20.4955C4.31189 20.3211 4.20673 19.935 4.38111 19.6342L7.84474 13.6331C8.01912 13.3336 8.40382 13.2284 8.70599 13.4028L14.7907 16.9159L15.1314 16.5418C15.5774 16.0532 16.0512 15.5793 16.5398 15.1334L16.9138 14.7926L13.4009 8.70767C13.2279 8.40681 13.3304 8.02077 13.6312 7.84638L19.632 4.38126C19.9315 4.20687 20.3176 4.3107 20.4919 4.61155L23.9929 10.6765L24.4761 10.5221C25.0777 10.3304 25.71 10.1627 26.4102 10.0109L26.9054 9.90309V2.89297C26.9054 2.54553 27.1876 2.26331 27.535 2.26331H34.4636C34.8111 2.26331 35.0933 2.54553 35.0933 2.89297V9.90309L35.5885 10.0109C36.2886 10.1627 36.9223 10.3304 37.5239 10.5221L38.0058 10.6765L41.5054 4.61289C41.6784 4.3107 42.0658 4.20687 42.3666 4.38126L48.3674 7.84505C48.6683 8.01944 48.7721 8.40548 48.6004 8.70634L45.0862 14.7913L45.4602 15.1321C45.9527 15.582 46.4266 16.0559 46.8672 16.5405L47.208 16.9145L53.294 13.4015C53.5922 13.2271 53.9809 13.3309 54.1553 13.6318L57.6189 19.6329C57.7933 19.9337 57.6894 20.3211 57.3886 20.4955L51.3239 23.9952L51.4783 24.4784C51.67 25.0841 51.8431 25.7351 51.9895 26.4127L52.096 26.9092H59.1058C59.4532 26.9092 59.7354 27.1928 59.7354 27.5389V34.4638H59.7381Z" stroke="white" mask="url(#path-1-outside-1)"/>
<path d="M30.9995 15.4731C22.4393 15.4731 15.4746 22.4381 15.4746 30.9987C15.4746 39.5593 22.4393 46.5243 30.9995 46.5243C39.5597 46.5243 46.5244 39.5593 46.5244 30.9987C46.5244 22.4381 39.5597 15.4731 30.9995 15.4731ZM30.9995 44.765C23.4089 44.765 17.2339 38.5896 17.2339 30.9987C17.2339 23.4078 23.4089 17.2325 30.9995 17.2325C38.59 17.2325 44.7651 23.4078 44.7651 30.9987C44.7651 38.5896 38.59 44.765 30.9995 44.765Z" fill="white" stroke="white" stroke-width="0.5"/>
</svg>
