<svg width="30" height="30" viewBox="0 0 30 30" fill="none" xmlns="http://www.w3.org/2000/svg">
<path d="M15.0001 20.0001C14.708 20.0007 14.425 19.899 14.2001 19.7126L6.7001 13.4626C6.44483 13.2504 6.2843 12.9455 6.25382 12.615C6.22335 12.2845 6.32543 11.9554 6.5376 11.7001C6.74977 11.4448 7.05466 11.2843 7.3852 11.2538C7.71573 11.2233 8.04483 11.3254 8.3001 11.5376L15.0001 17.1376L21.7001 11.7376C21.828 11.6338 21.9751 11.5562 22.133 11.5094C22.2909 11.4626 22.4565 11.4475 22.6203 11.465C22.7841 11.4824 22.9428 11.532 23.0874 11.611C23.2319 11.6899 23.3594 11.7967 23.4626 11.9251C23.5771 12.0536 23.6638 12.2044 23.7173 12.368C23.7708 12.5316 23.7899 12.7045 23.7735 12.8758C23.757 13.0471 23.7054 13.2132 23.6218 13.3637C23.5382 13.5141 23.4244 13.6457 23.2876 13.7501L15.7876 19.7876C15.5562 19.9445 15.279 20.0193 15.0001 20.0001Z" fill="#FFB401"/>
</svg>
