<svg xmlns="http://www.w3.org/2000/svg" xmlns:xlink="http://www.w3.org/1999/xlink"><defs><symbol viewBox="0 0 13 13" fill="none" id="alert">
<path d="M2.3335 0H11.0002C11.5306 0 12.0393 0.210714 12.4144 0.585786C12.7894 0.960859 13.0002 1.46957 13.0002 2V8C13.0002 8.53043 12.7894 9.03914 12.4144 9.41421C12.0393 9.78929 11.5306 10 11.0002 10H7.94283L5.4715 12.4713C5.37826 12.5645 5.25949 12.628 5.13018 12.6537C5.00088 12.6794 4.86686 12.6662 4.74506 12.6158C4.62326 12.5653 4.51915 12.4799 4.44589 12.3703C4.37264 12.2607 4.33352 12.1318 4.3335 12V10H2.3335C1.80306 10 1.29436 9.78929 0.919283 9.41421C0.54421 9.03914 0.333496 8.53043 0.333496 8V2C0.333496 1.46957 0.54421 0.960859 0.919283 0.585786C1.29436 0.210714 1.80306 0 2.3335 0ZM11.0002 0.666667H2.3335C1.97987 0.666667 1.64074 0.807142 1.39069 1.05719C1.14064 1.30724 1.00016 1.64638 1.00016 2V8C1.00016 8.35362 1.14064 8.69276 1.39069 8.94281C1.64074 9.19286 1.97987 9.33333 2.3335 9.33333H5.00016V12L7.66683 9.33333H11.0002C11.3538 9.33333 11.6929 9.19286 11.943 8.94281C12.193 8.69276 12.3335 8.35362 12.3335 8V2C12.3335 1.64638 12.193 1.30724 11.943 1.05719C11.6929 0.807142 11.3538 0.666667 11.0002 0.666667ZM6.3335 2H7.00016V5.33333H6.3335V2ZM6.3335 6.66667H7.00016V8H6.3335V6.66667Z" fill="#C42222" />
</symbol><symbol viewBox="0 0 30 30" fill="none" id="arrow-down">
<path d="M15.0001 20.0001C14.708 20.0007 14.425 19.899 14.2001 19.7126L6.7001 13.4626C6.44483 13.2504 6.2843 12.9455 6.25382 12.615C6.22335 12.2845 6.32543 11.9554 6.5376 11.7001C6.74977 11.4448 7.05466 11.2843 7.3852 11.2538C7.71573 11.2233 8.04483 11.3254 8.3001 11.5376L15.0001 17.1376L21.7001 11.7376C21.828 11.6338 21.9751 11.5562 22.133 11.5094C22.2909 11.4626 22.4565 11.4475 22.6203 11.465C22.7841 11.4824 22.9428 11.532 23.0874 11.611C23.2319 11.6899 23.3594 11.7967 23.4626 11.9251C23.5771 12.0536 23.6638 12.2044 23.7173 12.368C23.7708 12.5316 23.7899 12.7045 23.7735 12.8758C23.757 13.0471 23.7054 13.2132 23.6218 13.3637C23.5382 13.5141 23.4244 13.6457 23.2876 13.7501L15.7876 19.7876C15.5562 19.9445 15.279 20.0193 15.0001 20.0001Z" fill="#FFB401" />
</symbol><symbol viewBox="0 0 10 18" fill="#DFA008" id="arrow_left">
    <path d="M8.50024 0.250074C8.79231 0.249504 9.07535 0.351221 9.30024 0.537573C9.42681 0.642509 9.53144 0.771387 9.60813 0.916821C9.68482 1.06226 9.73207 1.22139 9.74716 1.38511C9.76226 1.54883 9.7449 1.71392 9.6961 1.87092C9.64729 2.02793 9.56799 2.17376 9.46274 2.30007L3.86274 9.00007L9.26274 15.7126C9.36657 15.8404 9.44411 15.9876 9.4909 16.1455C9.53769 16.3034 9.55281 16.469 9.53539 16.6328C9.51796 16.7966 9.46834 16.9553 9.38937 17.0999C9.31041 17.2444 9.20365 17.3719 9.07524 17.4751C8.94591 17.5889 8.79445 17.6747 8.63037 17.7272C8.4663 17.7797 8.29314 17.7977 8.12177 17.7801C7.95041 17.7625 7.78453 17.7096 7.63455 17.6249C7.48457 17.5401 7.35373 17.4253 7.25024 17.2876L1.21274 9.78757C1.02889 9.56391 0.928381 9.28335 0.928381 8.99382C0.928381 8.70429 1.02889 8.42374 1.21274 8.20007L7.46274 0.700075C7.58814 0.548803 7.74743 0.429222 7.92769 0.351036C8.10795 0.272852 8.30411 0.23826 8.50024 0.250074Z" fill="#DFA008" />
</symbol><symbol viewBox="0 0 7 13" fill="none" id="back">
<path d="M0 6.5L6.75 0.870834L6.75 12.1292L0 6.5Z" fill="#517679" />
</symbol><symbol viewBox="0 0 30 30" fill="none" id="burger">
<path d="M26.25 12.5H3.75" stroke="#171717" stroke-width="2" stroke-linecap="round" stroke-linejoin="round" />
<path d="M26.25 7.5H3.75" stroke="#171717" stroke-width="2" stroke-linecap="round" stroke-linejoin="round" />
<path d="M26.25 17.5H3.75" stroke="#171717" stroke-width="2" stroke-linecap="round" stroke-linejoin="round" />
<path d="M26.25 22.5H3.75" stroke="#171717" stroke-width="2" stroke-linecap="round" stroke-linejoin="round" />
</symbol><symbol viewBox="0 0 13 7" fill="none" id="chevron-down">
<path d="M6.5 7L0.870834 0.25L12.1292 0.25L6.5 7Z" fill="#C4C4C4" />
</symbol><symbol viewBox="0 0 13 7" fill="none" id="chevron-up">
<path d="M6.5 0L12.1292 6.75H0.870835L6.5 0Z" fill="#363636" />
</symbol><symbol viewBox="0 0 8 15" fill="none" id="clip">
<path d="M1 4.25V11.6786C1 11.6786 1 14 4 14C7 14 7 11.6786 7 11.6786V2.39286C7 2.39286 7 1 5 1C3 1 3 2.39286 3 2.39286V10.75C3 10.75 3 11.6786 4 11.6786C5 11.6786 5 10.75 5 10.75V4.25" stroke="#C4C4C4" />
</symbol><symbol viewBox="0 0 24 24" fill="none" id="closer">
<path d="M4 4L20 20" stroke="#171717" stroke-width="2" stroke-linecap="round" stroke-linejoin="round" />
<path d="M4 20L20 4.00003" stroke="#171717" stroke-width="2" stroke-linecap="round" stroke-linejoin="round" />
</symbol><symbol viewBox="0 0 36 48" fill="none" id="date-back">
<rect x="36" y="48" width="36" height="48" transform="rotate(-180 36 48)" fill="#363636" />
<path d="M12 25L21 18.9378L21 31.0622L12 25Z" fill="white" />
</symbol><symbol viewBox="0 0 36 48" fill="none" id="date-forward">
<rect width="36" height="48" fill="#363636" />
<path d="M24 23L15 29.0622V16.9378L24 23Z" fill="white" />
</symbol><symbol viewBox="0 0 31 8" fill="none" id="direction-arrow">
<path d="M30.3536 4.35356C30.5488 4.15829 30.5488 3.84171 30.3536 3.64645L27.1716 0.464468C26.9763 0.269206 26.6597 0.269206 26.4645 0.464468C26.2692 0.659731 26.2692 0.976313 26.4645 1.17158L29.2929 4L26.4645 6.82843C26.2692 7.02369 26.2692 7.34027 26.4645 7.53554C26.6597 7.7308 26.9763 7.7308 27.1716 7.53554L30.3536 4.35356ZM-4.37114e-08 4.5L30 4.5L30 3.5L4.37114e-08 3.5L-4.37114e-08 4.5Z" fill="#757474" />
</symbol><symbol viewBox="0 0 54 60" fill="none" id="documets">
<path d="M43.0634 49.0646C43.2811 48.8891 43.4206 48.6206 43.4206 48.3191C43.4206 48.3107 43.4206 4.78723 43.4206 4.78723C43.4206 4.25834 42.9921 3.82979 42.4632 3.82979H14.763C14.0799 1.61451 12.0137 0 9.57731 0C7.18012 0 5.08255 1.59753 4.39255 3.82979H1.32463C0.795741 3.82979 0.367188 4.25834 0.367188 4.78723V59.0426C0.367188 59.5714 0.795741 60 1.32463 60H31.7315C32.0411 60 32.3094 59.8606 32.4849 59.6433L43.0634 49.0646ZM32.6972 56.7227V49.2766H40.1432L32.6972 56.7227ZM9.57731 1.91489C10.9385 1.91489 12.1205 2.69426 12.7027 3.82979H6.4517C7.03944 2.68749 8.23574 1.91489 9.57731 1.91489ZM2.28208 5.74468H13.088V12.4468C13.088 13.3268 12.3722 14.0426 11.4922 14.0426C10.6122 14.0426 9.89646 13.3268 9.89646 12.4468V8.61702C9.89646 8.08813 9.46791 7.65957 8.93902 7.65957C8.41012 7.65957 7.98157 8.08813 7.98157 8.61702V12.4468C7.98157 14.3825 9.55651 15.9574 11.4922 15.9574C13.4279 15.9574 15.0028 14.3825 15.0028 12.4468V5.74468H41.5057V47.3617H31.7398C31.2109 47.3617 30.7823 47.7903 30.7823 48.3191V58.0851H2.28208V5.74468Z" fill="white" />
<path d="M34.8032 44.1063C35.3321 44.1063 35.7607 43.6777 35.7607 43.1489C35.7607 42.62 35.3321 42.1914 34.8032 42.1914H8.98381C8.45492 42.1914 8.02637 42.62 8.02637 43.1489C8.02637 43.6777 8.45492 44.1063 8.98381 44.1063H34.8032Z" fill="white" />
<path d="M8.98381 38.3617H34.8032C35.3321 38.3617 35.7607 37.9331 35.7607 37.4042C35.7607 36.8753 35.3321 36.4468 34.8032 36.4468H8.98381C8.45492 36.4468 8.02637 36.8753 8.02637 37.4042C8.02637 37.9331 8.45492 38.3617 8.98381 38.3617Z" fill="white" />
<path d="M8.98381 32.617H34.8032C35.3321 32.617 35.7607 32.1885 35.7607 31.6596C35.7607 31.1307 35.3321 30.7021 34.8032 30.7021H8.98381C8.45492 30.7021 8.02637 31.1307 8.02637 31.6596C8.02637 32.1885 8.45492 32.617 8.98381 32.617Z" fill="white" />
<path d="M8.98381 26.8724H34.8032C35.3321 26.8724 35.7607 26.4439 35.7607 25.915C35.7607 25.3861 35.3321 24.9575 34.8032 24.9575H8.98381C8.45492 24.9575 8.02637 25.3861 8.02637 25.915C8.02637 26.4439 8.45492 26.8724 8.98381 26.8724Z" fill="white" />
<path d="M8.98381 21.1278H34.8032C35.3321 21.1278 35.7607 20.6992 35.7607 20.1703C35.7607 19.6414 35.3321 19.2129 34.8032 19.2129H8.98381C8.45492 19.2129 8.02637 19.6414 8.02637 20.1703C8.02637 20.6992 8.45492 21.1278 8.98381 21.1278Z" fill="white" />
<path d="M47.5695 3.82959H46.2929C45.764 3.82959 45.3354 4.25814 45.3354 4.78704C45.3354 5.31593 45.764 5.74448 46.2929 5.74448H46.612V58.0849H36.3901C35.8612 58.0849 35.4326 58.5135 35.4326 59.0424C35.4326 59.5713 35.8612 59.9998 36.3901 59.9998H47.5695C48.0984 59.9998 48.5269 59.5713 48.5269 59.0424V4.78704C48.5269 4.25814 48.0984 3.82959 47.5695 3.82959Z" fill="white" />
<path d="M52.6764 3.82959H51.3998C50.8709 3.82959 50.4424 4.25814 50.4424 4.78704C50.4424 5.31593 50.8709 5.74448 51.3998 5.74448H51.719V58.0849H51.3998C50.8709 58.0849 50.4424 58.5135 50.4424 59.0424C50.4424 59.5713 50.8709 59.9998 51.3998 59.9998H52.6764C53.2053 59.9998 53.6339 59.5713 53.6339 59.0424V4.78704C53.6339 4.25814 53.2053 3.82959 52.6764 3.82959Z" fill="white" />
</symbol><symbol viewBox="0 0 15 15" fill="none" id="download">
<path d="M11.875 5.625H9.375V1.875H5.625V5.625H3.125L7.5 10.625L11.875 5.625ZM2.5 11.875H12.5V13.125H2.5V11.875Z" fill="#363636" />
</symbol><symbol viewBox="0 0 20 20" fill="none" id="edit">
<path d="M5.83325 14.1778L9.51075 14.1653L17.5374 6.21533C17.8524 5.90033 18.0258 5.48199 18.0258 5.03699C18.0258 4.59199 17.8524 4.17366 17.5374 3.85866L16.2158 2.53699C15.5858 1.90699 14.4866 1.91033 13.8616 2.53449L5.83325 10.4862V14.1778ZM15.0374 3.71533L16.3616 5.03449L15.0308 6.35283L13.7091 5.03199L15.0374 3.71533ZM7.49992 11.1812L12.5249 6.20366L13.8466 7.52533L8.82242 12.5012L7.49992 12.5053V11.1812Z" fill="#C4C4C4" />
<path d="M4.16667 17.5H15.8333C16.7525 17.5 17.5 16.7525 17.5 15.8333V8.61L15.8333 10.2767V15.8333H6.79833C6.77667 15.8333 6.75417 15.8417 6.7325 15.8417C6.705 15.8417 6.6775 15.8342 6.64917 15.8333H4.16667V4.16667H9.8725L11.5392 2.5H4.16667C3.2475 2.5 2.5 3.2475 2.5 4.16667V15.8333C2.5 16.7525 3.2475 17.5 4.16667 17.5Z" fill="#C4C4C4" />
</symbol><symbol viewBox="0 0 46 60" fill="none" id="education">
<path d="M45.7752 47.504C45.7897 47.4854 45.8042 47.4668 45.8173 47.4471C45.8209 47.4419 45.8237 47.4363 45.8271 47.4309C45.8407 47.41 45.8538 47.3886 45.8656 47.3666C45.8677 47.3627 45.8693 47.3585 45.8713 47.3546C45.8836 47.3307 45.8953 47.3067 45.9057 47.2819C45.9068 47.2791 45.9076 47.2762 45.9087 47.2735C45.9192 47.2474 45.929 47.221 45.9372 47.194C45.9382 47.1908 45.9387 47.1873 45.9397 47.1841C45.9475 47.1576 45.9546 47.1308 45.96 47.1034C45.9616 47.0957 45.9622 47.0879 45.9636 47.0801C45.9676 47.057 45.9717 47.0341 45.974 47.0105C45.9771 46.9789 45.9788 46.9469 45.9788 46.9149V0.957447C45.9788 0.428553 45.5501 0 45.0214 0L0.978804 0C0.450165 0 0.0214844 0.428553 0.0214844 0.957447L0.0214844 59.0426C0.0214844 59.5714 0.450165 60 0.978931 60H32.8938C32.9259 60 32.9578 59.9983 32.9894 59.9951C33.0132 59.9927 33.0364 59.9888 33.0595 59.9847C33.0671 59.9834 33.0747 59.9828 33.0823 59.9814C33.1096 59.9759 33.1363 59.9687 33.1627 59.9612C33.166 59.9602 33.1696 59.9595 33.1729 59.9585C33.1994 59.9505 33.2252 59.9409 33.2506 59.9307C33.2541 59.9293 33.2575 59.9283 33.261 59.927C33.2851 59.9169 33.3083 59.9055 33.3314 59.8937C33.3362 59.8911 33.3411 59.8892 33.3457 59.8866C33.3668 59.8754 33.387 59.8628 33.407 59.85C33.4134 59.846 33.42 59.8425 33.4263 59.8383C33.4449 59.8257 33.4627 59.8121 33.4803 59.7983C33.4873 59.7928 33.4947 59.788 33.5016 59.7823C33.5232 59.7646 33.5437 59.7457 33.5637 59.7263C33.566 59.7239 33.5686 59.7221 33.5709 59.7197L45.6986 47.592C45.7005 47.5901 45.702 47.588 45.704 47.5861C45.724 47.5657 45.7433 47.5448 45.7615 47.5226C45.7663 47.5166 45.7705 47.51 45.7752 47.504ZM1.93638 1.91489L44.064 1.91489V45.9574H32.8938C32.3651 45.9574 31.9364 46.386 31.9364 46.9149V58.0851H1.93638L1.93638 1.91489ZM42.7101 47.8723L33.8513 56.7312V47.8723H42.7101Z" fill="white" />
<path d="M19.0063 12.1278L37.3621 12.1278C37.8908 12.1278 38.3195 11.6992 38.3195 11.1703C38.3195 10.6414 37.8908 10.2129 37.3621 10.2129L19.0063 10.2129C18.4775 10.2129 18.0488 10.6414 18.0488 11.1703C18.0488 11.6992 18.4775 12.1278 19.0063 12.1278Z" fill="white" />
<path d="M10.5147 14.4005C10.7016 14.5874 10.9467 14.6808 11.1916 14.6808C11.4366 14.6808 11.6817 14.5874 11.8686 14.4005L16.975 9.29409C17.3489 8.92005 17.3489 8.31392 16.975 7.94001C16.6011 7.56622 15.9948 7.56622 15.6211 7.94001L11.1916 12.3694L9.95373 11.1315C9.57981 10.7577 8.97356 10.7577 8.59977 11.1315C8.22586 11.5055 8.22586 12.1117 8.59977 12.4856L10.5147 14.4005Z" fill="white" />
<path d="M16.6172 20.1064C16.6172 20.6353 17.0459 21.0638 17.5746 21.0638H37.3619C37.8906 21.0638 38.3193 20.6353 38.3193 20.1064C38.3193 19.5775 37.8906 19.1489 37.3619 19.1489H17.5746C17.0459 19.1489 16.6172 19.5775 16.6172 20.1064Z" fill="white" />
<path d="M13.7445 16.5957H8.63811C8.10934 16.5957 7.68066 17.0243 7.68066 17.5531V22.6595C7.68066 23.1884 8.10934 23.617 8.63811 23.617H13.7445C14.2733 23.617 14.7019 23.1884 14.7019 22.6595V17.5531C14.7019 17.0243 14.2733 16.5957 13.7445 16.5957ZM12.787 21.7021H9.59556V18.5106H12.787V21.7021Z" fill="white" />
<path d="M37.3619 28.085H17.5746C17.0459 28.085 16.6172 28.5135 16.6172 29.0424C16.6172 29.5713 17.0459 29.9999 17.5746 29.9999H37.3619C37.8906 29.9999 38.3193 29.5713 38.3193 29.0424C38.3193 28.5135 37.8906 28.085 37.3619 28.085Z" fill="white" />
<path d="M13.7445 25.5317H8.63811C8.10934 25.5317 7.68066 25.9603 7.68066 26.4892V31.5956C7.68066 32.1245 8.10934 32.553 8.63811 32.553H13.7445C14.2733 32.553 14.7019 32.1245 14.7019 31.5956V26.4892C14.7019 25.9603 14.2733 25.5317 13.7445 25.5317ZM12.787 30.6381H9.59556V27.4466H12.787V30.6381Z" fill="white" />
<path d="M37.3619 37.0215H17.5746C17.0459 37.0215 16.6172 37.45 16.6172 37.9789C16.6172 38.5078 17.0459 38.9364 17.5746 38.9364H37.3619C37.8906 38.9364 38.3193 38.5078 38.3193 37.9789C38.3193 37.45 37.8906 37.0215 37.3619 37.0215Z" fill="white" />
<path d="M13.7445 34.4683H8.63811C8.10934 34.4683 7.68066 34.8968 7.68066 35.4257V40.5321C7.68066 41.061 8.10934 41.4895 8.63811 41.4895H13.7445C14.2733 41.4895 14.7019 41.061 14.7019 40.5321V35.4257C14.7019 34.8968 14.2733 34.4683 13.7445 34.4683ZM12.787 39.5746H9.59556V36.3832H12.787V39.5746Z" fill="white" />
<path d="M29.064 45.9575H17.5746C17.0459 45.9575 16.6172 46.3861 16.6172 46.915C16.6172 47.4439 17.0459 47.8724 17.5746 47.8724H29.064C29.5928 47.8724 30.0214 47.4439 30.0214 46.915C30.0214 46.3861 29.5928 45.9575 29.064 45.9575Z" fill="white" />
<path d="M13.7445 43.4043H8.63811C8.10934 43.4043 7.68066 43.8328 7.68066 44.3617V49.4681C7.68066 49.997 8.10934 50.4256 8.63811 50.4256H13.7445C14.2733 50.4256 14.7019 49.997 14.7019 49.4681V44.3617C14.7019 43.8328 14.2733 43.4043 13.7445 43.4043ZM12.787 48.5107H9.59556V45.3192H12.787V48.5107Z" fill="white" />
</symbol><symbol viewBox="0 0 30 30" fill="none" id="eye">
<path fill-rule="evenodd" clip-rule="evenodd" d="M3.00801 16.02C2.73958 15.6043 2.53214 15.2542 2.38775 15C2.53214 14.7458 2.73958 14.3957 3.00801 13.98C3.59012 13.0787 4.45254 11.8794 5.57329 10.6839C7.83302 8.27356 11.0245 6 15 6C18.9755 6 22.167 8.27356 24.4267 10.6839C25.5475 11.8794 26.4099 13.0787 26.992 13.98C27.2604 14.3957 27.4679 14.7458 27.6122 15C27.4679 15.2542 27.2604 15.6043 26.992 16.02C26.4099 16.9213 25.5475 18.1206 24.4267 19.3161C22.167 21.7264 18.9755 24 15 24C11.0245 24 7.83302 21.7264 5.57329 19.3161C4.45254 18.1206 3.59012 16.9213 3.00801 16.02ZM29.6441 14.5521C29.6443 14.5524 29.6444 14.5528 28.75 15C29.6444 15.4472 29.6443 15.4476 29.6441 15.4479L29.6436 15.4489L29.6423 15.4515L29.6383 15.4594L29.6247 15.4859C29.6133 15.5082 29.5969 15.5398 29.5756 15.58C29.5331 15.6604 29.471 15.7754 29.3896 15.9199C29.2271 16.209 28.9871 16.6172 28.6721 17.105C28.0432 18.0787 27.1088 19.3794 25.8858 20.6839C23.458 23.2736 19.7745 26 15 26C10.2255 26 6.54198 23.2736 4.11421 20.6839C2.89121 19.3794 1.95675 18.0787 1.32793 17.105C1.0129 16.6172 0.77294 16.209 0.610358 15.9199C0.529029 15.7754 0.466949 15.6604 0.424411 15.58C0.403139 15.5398 0.386743 15.5082 0.37526 15.4859L0.361721 15.4594L0.357722 15.4515L0.356416 15.4489L0.355936 15.4479C0.355745 15.4476 0.355573 15.4472 1.25 15C0.355573 14.5528 0.355745 14.5524 0.355936 14.5521L0.356416 14.5511L0.357722 14.5485L0.361721 14.5406L0.37526 14.5141C0.386743 14.4918 0.403139 14.4602 0.424411 14.42C0.466949 14.3396 0.529029 14.2246 0.610358 14.0801C0.77294 13.791 1.0129 13.3828 1.32793 12.895C1.95675 11.9213 2.89121 10.6206 4.11421 9.31606C6.54198 6.72644 10.2255 4 15 4C19.7745 4 23.458 6.72644 25.8858 9.31606C27.1088 10.6206 28.0432 11.9213 28.6721 12.895C28.9871 13.3828 29.2271 13.791 29.3896 14.0801C29.471 14.2246 29.5331 14.3396 29.5756 14.42C29.5969 14.4602 29.6133 14.4918 29.6247 14.5141L29.6383 14.5406L29.6423 14.5485L29.6436 14.5511L29.6441 14.5521ZM1.25 15L0.355573 15.4472C0.214809 15.1657 0.214809 14.8343 0.355573 14.5528L1.25 15ZM28.75 15L29.6444 14.5528C29.7852 14.8343 29.7852 15.1657 29.6444 15.4472L28.75 15ZM12.25 15C12.25 13.4812 13.4812 12.25 15 12.25C16.5188 12.25 17.75 13.4812 17.75 15C17.75 16.5188 16.5188 17.75 15 17.75C13.4812 17.75 12.25 16.5188 12.25 15ZM15 10.25C12.3766 10.25 10.25 12.3766 10.25 15C10.25 17.6234 12.3766 19.75 15 19.75C17.6234 19.75 19.75 17.6234 19.75 15C19.75 12.3766 17.6234 10.25 15 10.25Z" fill="#171717" />
</symbol><symbol viewBox="0 0 30 30" id="icon-class">
    <defs>
        <style>
            #icon-class .cls-1{fill:#eda2a2}
        </style>
    </defs>
    <g id="icon-class_Group_57" data-name="Group 57" transform="translate(-698.3 -168.5)">
        <g id="icon-class_Group_37" data-name="Group 37">
            <g id="icon-class_Group_34" data-name="Group 34">
                <g id="icon-class_Group_33" data-name="Group 33">
                    <path id="icon-class_Path_310" d="M713.3 173.4a5.015 5.015 0 0 0-5 5 5.081 5.081 0 0 0 5 5 5.015 5.015 0 0 0 5-5 5.081 5.081 0 0 0-5-5zm0 7.6a2.5 2.5 0 1 1 2.5-2.5 2.476 2.476 0 0 1-2.5 2.5z" class="cls-1" data-name="Path 310" />
                </g>
            </g>
            <g id="icon-class_Group_36" data-name="Group 36">
                <g id="icon-class_Group_35" data-name="Group 35">
                    <path id="icon-class_Path_311" d="M719.9 183.4a1.267 1.267 0 0 0-1.8 0 6.941 6.941 0 0 1-9.8 0 1.273 1.273 0 1 0-1.8 1.8 9.241 9.241 0 0 0 5.6 2.7l-3.6 3.6a1.273 1.273 0 0 0 1.8 1.8l2.9-2.9 2.9 2.9a1.489 1.489 0 0 0 .9.4 1.222 1.222 0 0 0 .9-.4 1.268 1.268 0 0 0 0-1.8l-3.6-3.6a9.241 9.241 0 0 0 5.6-2.7 1.268 1.268 0 0 0 0-1.8z" class="cls-1" data-name="Path 311" />
                </g>
            </g>
        </g>
        <g id="icon-class_Group_38" data-name="Group 38">
            <path id="icon-class_Path_312" d="M698.3 168.5v30h30v-30zm28.1 28.2h-26.3v-26.3h26.3z" class="cls-1" data-name="Path 312" />
        </g>
    </g>
</symbol><symbol viewBox="0 0 30 30" id="icon-class-active">
    <defs>
        <style>
            #icon-class-active .cls-1{fill:#dd4748}
        </style>
    </defs>
    <g id="icon-class-active_Group_59" data-name="Group 59" transform="translate(-698.3 -168.5)">
        <g id="icon-class-active_Group_37" data-name="Group 37">
            <g id="icon-class-active_Group_34" data-name="Group 34">
                <g id="icon-class-active_Group_33" data-name="Group 33">
                    <path id="icon-class-active_Path_310" d="M713.3 173.4a5.015 5.015 0 0 0-5 5 5.081 5.081 0 0 0 5 5 5.015 5.015 0 0 0 5-5 5.081 5.081 0 0 0-5-5zm0 7.6a2.5 2.5 0 1 1 2.5-2.5 2.476 2.476 0 0 1-2.5 2.5z" class="cls-1" data-name="Path 310" />
                </g>
            </g>
            <g id="icon-class-active_Group_36" data-name="Group 36">
                <g id="icon-class-active_Group_35" data-name="Group 35">
                    <path id="icon-class-active_Path_311" d="M719.9 183.4a1.267 1.267 0 0 0-1.8 0 6.941 6.941 0 0 1-9.8 0 1.273 1.273 0 1 0-1.8 1.8 9.241 9.241 0 0 0 5.6 2.7l-3.6 3.6a1.273 1.273 0 0 0 1.8 1.8l2.9-2.9 2.9 2.9a1.489 1.489 0 0 0 .9.4 1.222 1.222 0 0 0 .9-.4 1.268 1.268 0 0 0 0-1.8l-3.6-3.6a9.241 9.241 0 0 0 5.6-2.7 1.268 1.268 0 0 0 0-1.8z" class="cls-1" data-name="Path 311" />
                </g>
            </g>
        </g>
        <g id="icon-class-active_Group_38" data-name="Group 38">
            <path id="icon-class-active_Path_312" d="M698.3 168.5v30h30v-30zm28.1 28.2h-26.3v-26.3h26.3z" class="cls-1" data-name="Path 312" />
        </g>
    </g>
</symbol><symbol viewBox="0 0 30 30" id="icon-facebook">
    <defs>
        <style>
            #icon-facebook .cls-1{fill:#eda2a2}
        </style>
    </defs>
    <g id="icon-facebook_Group_56" data-name="Group 56" transform="translate(-742.3 -168.5)">
        <path id="icon-facebook_Path_308" d="M754.7 193.3h4v-9.7h2.7a29.872 29.872 0 0 0 .4-3.3h-3.1V178a.965.965 0 0 1 .9-.8h2.2v-3.4h-3c-4.2 0-4.1 3.3-4.1 3.8v2.7h-2v3.3h2v9.7z" class="cls-1" data-name="Path 308" />
        <path id="icon-facebook_Path_309" d="M742.3 168.5v30h30v-30zm28.1 28.2h-26.3v-26.3h26.3z" class="cls-1" data-name="Path 309" />
    </g>
</symbol><symbol viewBox="0 0 30 30" id="icon-facebook-active">
    <defs>
        <style>
            #icon-facebook-active .cls-1{fill:#dd4748}
        </style>
    </defs>
    <g id="icon-facebook-active_Group_58" data-name="Group 58" transform="translate(-742.3 -168.5)">
        <path id="icon-facebook-active_Path_308" d="M754.7 193.3h4v-9.7h2.7a29.872 29.872 0 0 0 .4-3.3h-3.1V178a.965.965 0 0 1 .9-.8h2.2v-3.4h-3c-4.2 0-4.1 3.3-4.1 3.8v2.7h-2v3.3h2v9.7z" class="cls-1" data-name="Path 308" />
        <path id="icon-facebook-active_Path_309" d="M742.3 168.5v30h30v-30zm28.1 28.2h-26.3v-26.3h26.3z" class="cls-1" data-name="Path 309" />
    </g>
</symbol><symbol viewBox="0 0 30 30" id="icon-google">
    <defs>
        <style>
            #icon-google .cls-1{fill:#eda2a2}
        </style>
    </defs>
    <g id="icon-google_Group_55" data-name="Group 55" transform="translate(-785.3 -168.5)">
        <path id="icon-google_Path_305" d="M785.3 168.5v30h30v-30zm27.6 27.6h-25.2v-25.2h25.2z" class="cls-1" data-name="Path 305" />
        <path id="icon-google_Path_306" d="M796 178.7a4.207 4.207 0 0 1 3 1.2l2.1-2a7.006 7.006 0 0 0-5.1-2.1 7.6 7.6 0 0 0 0 15.2 7.008 7.008 0 0 0 7.3-7.4 5.284 5.284 0 0 0-.1-1.3H796v2.6h4.3a4.149 4.149 0 0 1-4.3 3.3 4.781 4.781 0 0 1-4.7-4.8 4.694 4.694 0 0 1 4.7-4.7z" class="cls-1" data-name="Path 306" />
        <path id="icon-google_Path_307" d="M807.9 186.8h2.2v-2.2h2.2v-2.2h-2.2v-2.2h-2.2v2.2h-2.2v2.2h2.2z" class="cls-1" data-name="Path 307" />
    </g>
</symbol><symbol viewBox="0 0 30 30" id="icon-google-active">
    <defs>
        <style>
            #icon-google-active .cls-1{fill:#dd4748}
        </style>
    </defs>
    <g id="icon-google-active_Group_61" data-name="Group 61" transform="translate(-785.3 -168.5)">
        <path id="icon-google-active_Path_305" d="M785.3 168.5v30h30v-30zm27.6 27.6h-25.2v-25.2h25.2z" class="cls-1" data-name="Path 305" />
        <path id="icon-google-active_Path_306" d="M796 178.7a4.207 4.207 0 0 1 3 1.2l2.1-2a7.006 7.006 0 0 0-5.1-2.1 7.6 7.6 0 0 0 0 15.2 7.008 7.008 0 0 0 7.3-7.4 5.284 5.284 0 0 0-.1-1.3H796v2.6h4.3a4.149 4.149 0 0 1-4.3 3.3 4.781 4.781 0 0 1-4.7-4.8 4.694 4.694 0 0 1 4.7-4.7z" class="cls-1" data-name="Path 306" />
        <path id="icon-google-active_Path_307" d="M807.9 186.8h2.2v-2.2h2.2v-2.2h-2.2v-2.2h-2.2v2.2h-2.2v2.2h2.2z" class="cls-1" data-name="Path 307" />
    </g>
</symbol><symbol viewBox="0 0 30 30" id="icon-vk">
    <defs>
        <style>
            #icon-vk .cls-1{fill:#eda2a2}
        </style>
    </defs>
    <g id="icon-vk_Group_54" data-name="Group 54" transform="translate(-654.3 -168.5)">
        <path id="icon-vk_Path_303" d="M663.2 185.6a11.12 11.12 0 0 0 2.7 2.6 8.219 8.219 0 0 0 4.1.9c.7 0 .9-.2.9-.9a2.768 2.768 0 0 1 .3-1.3.534.534 0 0 1 .9-.2 1.2 1.2 0 0 1 .5.5c.4.4.7.8 1.1 1.2a2.086 2.086 0 0 0 1.8.7h2.8c.5 0 .7-.6.4-1.1a3.592 3.592 0 0 0-.7-1c-.6-.7-1.3-1.3-1.9-1.9s-.6-.9-.2-1.6c.5-.7 1.1-1.4 1.6-2.1a6.345 6.345 0 0 0 1.2-2.1c.2-.5 0-.7-.5-.8h-3.4a.666.666 0 0 0-.7.5c-.2.5-.4.9-.6 1.3a10.313 10.313 0 0 1-1.8 2.8c-.2.2-.4.4-.6.3-.4-.1-.5-.7-.5-.9v-3.6c-.1-.5-.2-.7-.7-.8H667a1.489 1.489 0 0 0-.9.4c-.1.2-.2.3.1.3a1.071 1.071 0 0 1 .9 1 11.307 11.307 0 0 1 0 2.6 1.853 1.853 0 0 1-.2.7c-.2.4-.4.4-.7.2a2.7 2.7 0 0 1-.7-.8 17.036 17.036 0 0 1-1.9-3.5.76.76 0 0 0-.8-.6H660c-.6 0-.7.3-.5.8a50.7 50.7 0 0 0 3.7 6.4z" class="cls-1" data-name="Path 303" />
        <path id="icon-vk_Path_304" d="M654.3 168.5v30h30v-30zm28.1 28.2h-26.3v-26.3h26.3z" class="cls-1" data-name="Path 304" />
    </g>
</symbol><symbol viewBox="0 0 30 30" id="icon-vk-active">
    <defs>
        <style>
            #icon-vk-active .cls-1{fill:#dd4748}
        </style>
    </defs>
    <g id="icon-vk-active_Group_60" data-name="Group 60" transform="translate(-654.3 -168.5)">
        <path id="icon-vk-active_Path_303" d="M663.2 185.6a11.12 11.12 0 0 0 2.7 2.6 8.219 8.219 0 0 0 4.1.9c.7 0 .9-.2.9-.9a2.768 2.768 0 0 1 .3-1.3.534.534 0 0 1 .9-.2 1.2 1.2 0 0 1 .5.5c.4.4.7.8 1.1 1.2a2.086 2.086 0 0 0 1.8.7h2.8c.5 0 .7-.6.4-1.1a3.592 3.592 0 0 0-.7-1c-.6-.7-1.3-1.3-1.9-1.9s-.6-.9-.2-1.6c.5-.7 1.1-1.4 1.6-2.1a6.345 6.345 0 0 0 1.2-2.1c.2-.5 0-.7-.5-.8h-3.4a.666.666 0 0 0-.7.5c-.2.5-.4.9-.6 1.3a10.313 10.313 0 0 1-1.8 2.8c-.2.2-.4.4-.6.3-.4-.1-.5-.7-.5-.9v-3.6c-.1-.5-.2-.7-.7-.8H667a1.489 1.489 0 0 0-.9.4c-.1.2-.2.3.1.3a1.071 1.071 0 0 1 .9 1 11.307 11.307 0 0 1 0 2.6 1.853 1.853 0 0 1-.2.7c-.2.4-.4.4-.7.2a2.7 2.7 0 0 1-.7-.8 17.036 17.036 0 0 1-1.9-3.5.76.76 0 0 0-.8-.6H660c-.6 0-.7.3-.5.8a50.7 50.7 0 0 0 3.7 6.4z" class="cls-1" data-name="Path 303" />
        <path id="icon-vk-active_Path_304" d="M654.3 168.5v30h30v-30zm28.1 28.2h-26.3v-26.3h26.3z" class="cls-1" data-name="Path 304" />
    </g>
</symbol><symbol viewBox="0 0 8 13" fill="none" id="left">
<path d="M0 6.5L7.5 0.870834L7.5 12.1292L0 6.5Z" fill="#617F88" />
</symbol><symbol viewBox="0 0 48 48" id="likes">
    <path fill="#F44336" d="M34,9c-4.2,0-7.9,2.1-10,5.4C21.9,11.1,18.2,9,14,9C7.4,9,2,14.4,2,21c0,11.9,22,24,22,24s22-12,22-24 C46,14.4,40.6,9,34,9z" />
</symbol><symbol viewBox="0 0 525 75" fill="none" id="logo">
<path d="M105.9 21.74C106.847 21.9667 107.56 22.3733 108.04 22.96C108.533 23.5333 108.78 24.2733 108.78 25.18C108.78 26.3933 108.333 27.3333 107.44 28C106.56 28.6667 105.273 29 103.58 29H97.18V15H103.2C104.733 15 105.927 15.3133 106.78 15.94C107.647 16.5533 108.08 17.44 108.08 18.6C108.08 19.36 107.887 20.0067 107.5 20.54C107.127 21.0733 106.593 21.4733 105.9 21.74ZM99.16 21.16H103.06C104.033 21.16 104.773 20.9667 105.28 20.58C105.8 20.1933 106.06 19.6267 106.06 18.88C106.06 18.1333 105.8 17.5667 105.28 17.18C104.76 16.78 104.02 16.58 103.06 16.58H99.16V21.16ZM103.54 27.42C105.687 27.42 106.76 26.62 106.76 25.02C106.76 24.22 106.487 23.6333 105.94 23.26C105.407 22.8733 104.607 22.68 103.54 22.68H99.16V27.42H103.54ZM122.281 27.26V29H112.121V15H122.001V16.74H114.121V21.04H121.141V22.74H114.121V27.26H122.281ZM136.862 15V29H134.902V16.74H128.702L128.562 20.84C128.496 22.7733 128.336 24.34 128.082 25.54C127.842 26.74 127.456 27.6467 126.922 28.26C126.389 28.86 125.669 29.16 124.762 29.16C124.349 29.16 123.929 29.1067 123.502 29L123.642 27.22C123.856 27.2733 124.069 27.3 124.282 27.3C124.856 27.3 125.316 27.0733 125.662 26.62C126.009 26.1533 126.269 25.46 126.442 24.54C126.616 23.62 126.729 22.4067 126.782 20.9L127.002 15H136.862ZM147.363 19.88C149.03 19.88 150.303 20.2533 151.183 21C152.076 21.7467 152.523 22.8467 152.523 24.3C152.523 25.8333 152.043 27 151.083 27.8C150.136 28.6 148.776 29 147.003 29H141.223V15H143.203V19.88H147.363ZM146.923 27.42C148.083 27.42 148.97 27.16 149.583 26.64C150.21 26.1067 150.523 25.34 150.523 24.34C150.523 22.42 149.323 21.46 146.923 21.46H143.203V27.42H146.923ZM161.741 29.16C160.341 29.16 159.074 28.8533 157.941 28.24C156.821 27.6133 155.941 26.76 155.301 25.68C154.661 24.5867 154.341 23.36 154.341 22C154.341 20.64 154.661 19.42 155.301 18.34C155.941 17.2467 156.827 16.3933 157.961 15.78C159.094 15.1533 160.361 14.84 161.761 14.84C162.854 14.84 163.854 15.0267 164.761 15.4C165.667 15.76 166.441 16.3 167.081 17.02L165.781 18.28C164.727 17.1733 163.414 16.62 161.841 16.62C160.801 16.62 159.861 16.8533 159.021 17.32C158.181 17.7867 157.521 18.4333 157.041 19.26C156.574 20.0733 156.341 20.9867 156.341 22C156.341 23.0133 156.574 23.9333 157.041 24.76C157.521 25.5733 158.181 26.2133 159.021 26.68C159.861 27.1467 160.801 27.38 161.841 27.38C163.401 27.38 164.714 26.82 165.781 25.7L167.081 26.96C166.441 27.68 165.661 28.2267 164.741 28.6C163.834 28.9733 162.834 29.16 161.741 29.16ZM174.716 22.84H171.796V29H169.836V15H171.796V21.08H174.756L179.156 15H181.296L176.296 21.78L181.536 29H179.256L174.716 22.84ZM183.586 15H185.566V25.8L193.846 15H195.686V29H193.726V18.22L185.426 29H183.586V15ZM200.051 15H202.031V25.8L210.311 15H212.151V29H210.191V18.22L201.891 29H200.051V15ZM206.071 14.02C204.978 14.02 204.131 13.7867 203.531 13.32C202.944 12.84 202.644 12.16 202.631 11.28H204.051C204.064 11.8 204.244 12.2067 204.591 12.5C204.951 12.78 205.444 12.92 206.071 12.92C206.671 12.92 207.151 12.78 207.511 12.5C207.884 12.2067 208.078 11.8 208.091 11.28H209.491C209.478 12.1467 209.171 12.82 208.571 13.3C207.984 13.78 207.151 14.02 206.071 14.02ZM228.147 29.16C226.747 29.16 225.48 28.8533 224.347 28.24C223.227 27.6133 222.347 26.76 221.707 25.68C221.067 24.5867 220.747 23.36 220.747 22C220.747 20.64 221.067 19.42 221.707 18.34C222.347 17.2467 223.234 16.3933 224.367 15.78C225.5 15.1533 226.767 14.84 228.167 14.84C229.26 14.84 230.26 15.0267 231.167 15.4C232.074 15.76 232.847 16.3 233.487 17.02L232.187 18.28C231.134 17.1733 229.82 16.62 228.247 16.62C227.207 16.62 226.267 16.8533 225.427 17.32C224.587 17.7867 223.927 18.4333 223.447 19.26C222.98 20.0733 222.747 20.9867 222.747 22C222.747 23.0133 222.98 23.9333 223.447 24.76C223.927 25.5733 224.587 26.2133 225.427 26.68C226.267 27.1467 227.207 27.38 228.247 27.38C229.807 27.38 231.12 26.82 232.187 25.7L233.487 26.96C232.847 27.68 232.067 28.2267 231.147 28.6C230.24 28.9733 229.24 29.16 228.147 29.16ZM246.403 27.26V29H236.243V15H246.123V16.74H238.243V21.04H245.263V22.74H238.243V27.26H246.403ZM260.983 15V29H259.023V16.74H252.823L252.683 20.84C252.617 22.7733 252.457 24.34 252.203 25.54C251.963 26.74 251.577 27.6467 251.043 28.26C250.51 28.86 249.79 29.16 248.883 29.16C248.47 29.16 248.05 29.1067 247.623 29L247.763 27.22C247.977 27.2733 248.19 27.3 248.403 27.3C248.977 27.3 249.437 27.0733 249.783 26.62C250.13 26.1533 250.39 25.46 250.563 24.54C250.737 23.62 250.85 22.4067 250.903 20.9L251.123 15H260.983ZM271.484 19.88C273.151 19.88 274.424 20.2533 275.304 21C276.197 21.7467 276.644 22.8467 276.644 24.3C276.644 25.8333 276.164 27 275.204 27.8C274.257 28.6 272.897 29 271.124 29H265.344V15H267.324V19.88H271.484ZM271.044 27.42C272.204 27.42 273.091 27.16 273.704 26.64C274.331 26.1067 274.644 25.34 274.644 24.34C274.644 22.42 273.444 21.46 271.044 21.46H267.324V27.42H271.044ZM285.862 29.16C284.462 29.16 283.195 28.8533 282.062 28.24C280.942 27.6133 280.062 26.76 279.422 25.68C278.782 24.5867 278.462 23.36 278.462 22C278.462 20.64 278.782 19.42 279.422 18.34C280.062 17.2467 280.949 16.3933 282.082 15.78C283.215 15.1533 284.482 14.84 285.882 14.84C286.975 14.84 287.975 15.0267 288.882 15.4C289.789 15.76 290.562 16.3 291.202 17.02L289.902 18.28C288.849 17.1733 287.535 16.62 285.962 16.62C284.922 16.62 283.982 16.8533 283.142 17.32C282.302 17.7867 281.642 18.4333 281.162 19.26C280.695 20.0733 280.462 20.9867 280.462 22C280.462 23.0133 280.695 23.9333 281.162 24.76C281.642 25.5733 282.302 26.2133 283.142 26.68C283.982 27.1467 284.922 27.38 285.962 27.38C287.522 27.38 288.835 26.82 289.902 25.7L291.202 26.96C290.562 27.68 289.782 28.2267 288.862 28.6C287.955 28.9733 286.955 29.16 285.862 29.16ZM298.837 22.84H295.917V29H293.957V15H295.917V21.08H298.877L303.277 15H305.417L300.417 21.78L305.657 29H303.377L298.837 22.84ZM313.968 29.16C312.555 29.16 311.282 28.8533 310.148 28.24C309.015 27.6133 308.122 26.7533 307.468 25.66C306.828 24.5667 306.508 23.3467 306.508 22C306.508 20.6533 306.828 19.4333 307.468 18.34C308.122 17.2467 309.015 16.3933 310.148 15.78C311.282 15.1533 312.555 14.84 313.968 14.84C315.368 14.84 316.635 15.1533 317.768 15.78C318.902 16.3933 319.788 17.2467 320.428 18.34C321.068 19.42 321.388 20.64 321.388 22C321.388 23.36 321.068 24.5867 320.428 25.68C319.788 26.76 318.902 27.6133 317.768 28.24C316.635 28.8533 315.368 29.16 313.968 29.16ZM313.968 27.38C314.995 27.38 315.915 27.1467 316.728 26.68C317.555 26.2133 318.202 25.5733 318.668 24.76C319.148 23.9333 319.388 23.0133 319.388 22C319.388 20.9867 319.148 20.0733 318.668 19.26C318.202 18.4333 317.555 17.7867 316.728 17.32C315.915 16.8533 314.995 16.62 313.968 16.62C312.942 16.62 312.008 16.8533 311.168 17.32C310.342 17.7867 309.688 18.4333 309.208 19.26C308.742 20.0733 308.508 20.9867 308.508 22C308.508 23.0133 308.742 23.9333 309.208 24.76C309.688 25.5733 310.342 26.2133 311.168 26.68C312.008 27.1467 312.942 27.38 313.968 27.38ZM324.914 15L328.574 20.12L332.234 15H334.574L329.834 21.72L334.954 29H332.594L328.574 23.42L324.574 29H322.274L327.374 21.8L322.614 15H324.914ZM343.265 29.16C341.852 29.16 340.578 28.8533 339.445 28.24C338.312 27.6133 337.418 26.7533 336.765 25.66C336.125 24.5667 335.805 23.3467 335.805 22C335.805 20.6533 336.125 19.4333 336.765 18.34C337.418 17.2467 338.312 16.3933 339.445 15.78C340.578 15.1533 341.852 14.84 343.265 14.84C344.665 14.84 345.932 15.1533 347.065 15.78C348.198 16.3933 349.085 17.2467 349.725 18.34C350.365 19.42 350.685 20.64 350.685 22C350.685 23.36 350.365 24.5867 349.725 25.68C349.085 26.76 348.198 27.6133 347.065 28.24C345.932 28.8533 344.665 29.16 343.265 29.16ZM343.265 27.38C344.292 27.38 345.212 27.1467 346.025 26.68C346.852 26.2133 347.498 25.5733 347.965 24.76C348.445 23.9333 348.685 23.0133 348.685 22C348.685 20.9867 348.445 20.0733 347.965 19.26C347.498 18.4333 346.852 17.7867 346.025 17.32C345.212 16.8533 344.292 16.62 343.265 16.62C342.238 16.62 341.305 16.8533 340.465 17.32C339.638 17.7867 338.985 18.4333 338.505 19.26C338.038 20.0733 337.805 20.9867 337.805 22C337.805 23.0133 338.038 23.9333 338.505 24.76C338.985 25.5733 339.638 26.2133 340.465 26.68C341.305 27.1467 342.238 27.38 343.265 27.38ZM360.228 21.7C361.108 21.94 361.794 22.36 362.288 22.96C362.781 23.5467 363.028 24.2533 363.028 25.08C363.028 25.9067 362.761 26.6333 362.228 27.26C361.708 27.8733 361.008 28.3467 360.128 28.68C359.261 29 358.314 29.16 357.288 29.16C356.354 29.16 355.428 29.02 354.508 28.74C353.588 28.46 352.748 28.04 351.988 27.48L352.688 26C353.301 26.48 353.988 26.84 354.748 27.08C355.508 27.32 356.274 27.44 357.048 27.44C358.168 27.44 359.108 27.2067 359.868 26.74C360.628 26.26 361.008 25.6067 361.008 24.78C361.008 24.0733 360.721 23.5333 360.148 23.16C359.574 22.7733 358.768 22.58 357.728 22.58H354.608V20.96H357.588C358.481 20.96 359.174 20.78 359.668 20.42C360.174 20.0467 360.428 19.5333 360.428 18.88C360.428 18.1467 360.101 17.5667 359.448 17.14C358.794 16.7133 357.968 16.5 356.968 16.5C356.314 16.5 355.648 16.5933 354.968 16.78C354.301 16.9667 353.668 17.2467 353.068 17.62L352.428 15.98C353.134 15.58 353.881 15.28 354.668 15.08C355.454 14.88 356.241 14.78 357.028 14.78C358.014 14.78 358.921 14.9333 359.748 15.24C360.574 15.5467 361.228 15.9933 361.708 16.58C362.201 17.1667 362.448 17.8533 362.448 18.64C362.448 19.3467 362.248 19.9667 361.848 20.5C361.461 21.0333 360.921 21.4333 360.228 21.7ZM376.424 15V29H374.464V24.92H370.604C370.364 24.92 370.184 24.9133 370.064 24.9L367.264 29H365.144L368.244 24.56C367.244 24.2267 366.478 23.6733 365.944 22.9C365.411 22.1133 365.144 21.16 365.144 20.04C365.144 18.4533 365.651 17.22 366.664 16.34C367.691 15.4467 369.071 15 370.804 15H376.424ZM367.164 20.02C367.164 21.06 367.464 21.86 368.064 22.42C368.678 22.9667 369.578 23.24 370.764 23.24H374.464V16.74H370.884C369.684 16.74 368.764 17.02 368.124 17.58C367.484 18.14 367.164 18.9533 367.164 20.02ZM380.793 15H382.773V25.8L391.053 15H392.893V29H390.933V18.22L382.633 29H380.793V15ZM386.813 14.02C385.72 14.02 384.873 13.7867 384.273 13.32C383.687 12.84 383.387 12.16 383.373 11.28H384.793C384.807 11.8 384.987 12.2067 385.333 12.5C385.693 12.78 386.187 12.92 386.813 12.92C387.413 12.92 387.893 12.78 388.253 12.5C388.627 12.2067 388.82 11.8 388.833 11.28H390.233C390.22 12.1467 389.913 12.82 389.313 13.3C388.727 13.78 387.893 14.02 386.813 14.02ZM403.518 29.16C402.118 29.16 400.851 28.8533 399.718 28.24C398.598 27.6133 397.718 26.76 397.078 25.68C396.438 24.5867 396.118 23.36 396.118 22C396.118 20.64 396.438 19.42 397.078 18.34C397.718 17.2467 398.605 16.3933 399.738 15.78C400.871 15.1533 402.138 14.84 403.538 14.84C404.631 14.84 405.631 15.0267 406.538 15.4C407.445 15.76 408.218 16.3 408.858 17.02L407.558 18.28C406.505 17.1733 405.191 16.62 403.618 16.62C402.578 16.62 401.638 16.8533 400.798 17.32C399.958 17.7867 399.298 18.4333 398.818 19.26C398.351 20.0733 398.118 20.9867 398.118 22C398.118 23.0133 398.351 23.9333 398.818 24.76C399.298 25.5733 399.958 26.2133 400.798 26.68C401.638 27.1467 402.578 27.38 403.618 27.38C405.178 27.38 406.491 26.82 407.558 25.7L408.858 26.96C408.218 27.68 407.438 28.2267 406.518 28.6C405.611 28.9733 404.611 29.16 403.518 29.16ZM421.077 16.74H416.277V29H414.317V16.74H409.537V15H421.077V16.74ZM432.228 21.74C433.175 21.9667 433.888 22.3733 434.368 22.96C434.861 23.5333 435.108 24.2733 435.108 25.18C435.108 26.3933 434.661 27.3333 433.768 28C432.888 28.6667 431.601 29 429.908 29H423.508V15H429.528C431.061 15 432.255 15.3133 433.108 15.94C433.975 16.5533 434.408 17.44 434.408 18.6C434.408 19.36 434.215 20.0067 433.828 20.54C433.455 21.0733 432.921 21.4733 432.228 21.74ZM425.488 21.16H429.388C430.361 21.16 431.101 20.9667 431.608 20.58C432.128 20.1933 432.388 19.6267 432.388 18.88C432.388 18.1333 432.128 17.5667 431.608 17.18C431.088 16.78 430.348 16.58 429.388 16.58H425.488V21.16ZM429.868 27.42C432.015 27.42 433.088 26.62 433.088 25.02C433.088 24.22 432.815 23.6333 432.268 23.26C431.735 22.8733 430.935 22.68 429.868 22.68H425.488V27.42H429.868ZM448.61 27.26V29H438.45V15H448.33V16.74H440.45V21.04H447.47V22.74H440.45V27.26H448.61ZM463.79 15V29H461.79V22.76H453.75V29H451.75V15H453.75V21.02H461.79V15H463.79ZM480.197 15V29H478.197V22.76H470.157V29H468.157V15H470.157V21.02H478.197V15H480.197ZM490.703 19.88C492.369 19.88 493.643 20.2533 494.523 21C495.416 21.7467 495.863 22.8467 495.863 24.3C495.863 25.8333 495.383 27 494.423 27.8C493.476 28.6 492.116 29 490.343 29H484.563V15H486.543V19.88H490.703ZM490.263 27.42C491.423 27.42 492.309 27.16 492.923 26.64C493.549 26.1067 493.863 25.34 493.863 24.34C493.863 22.42 492.663 21.46 490.263 21.46H486.543V27.42H490.263ZM498.083 15H500.063V29H498.083V15ZM504.426 15H506.406V25.8L514.686 15H516.526V29H514.566V18.22L506.266 29H504.426V15ZM510.446 14.02C509.353 14.02 508.506 13.7867 507.906 13.32C507.319 12.84 507.019 12.16 507.006 11.28H508.426C508.439 11.8 508.619 12.2067 508.966 12.5C509.326 12.78 509.819 12.92 510.446 12.92C511.046 12.92 511.526 12.78 511.886 12.5C512.259 12.2067 512.453 11.8 512.466 11.28H513.866C513.853 12.1467 513.546 12.82 512.946 13.3C512.359 13.78 511.526 14.02 510.446 14.02ZM106.8 46.74H102V59H100.04V46.74H95.26V45H106.8V46.74ZM119.391 57.26V59H109.231V45H119.111V46.74H111.231V51.04H118.251V52.74H111.231V57.26H119.391ZM123.175 45L126.835 50.12L130.495 45H132.835L128.095 51.72L133.215 59H130.855L126.835 53.42L122.835 59H120.535L125.635 51.8L120.875 45H123.175ZM147.306 45V59H145.306V52.76H137.266V59H135.266V45H137.266V51.02H145.306V45H147.306ZM151.672 45H153.652V55.8L161.932 45H163.772V59H161.812V48.22L153.512 59H151.672V45ZM173.017 52.84H170.097V59H168.137V45H170.097V51.08H173.057L177.457 45H179.597L174.597 51.78L179.837 59H177.557L173.017 52.84ZM193.445 45L187.225 56.54C186.731 57.46 186.151 58.1467 185.485 58.6C184.818 59.0533 184.091 59.28 183.305 59.28C182.691 59.28 182.065 59.14 181.425 58.86L181.945 57.26C182.438 57.4333 182.878 57.52 183.265 57.52C184.145 57.52 184.871 57.0533 185.445 56.12L185.765 55.62L180.125 45H182.265L186.805 53.88L191.465 45H193.445ZM208.5 59L208.48 48.8L203.42 57.3H202.5L197.44 48.86V59H195.52V45H197.16L203 54.84L208.76 45H210.4L210.42 59H208.5ZM220.149 45H222.129V55.8L230.409 45H232.249V59H230.289V48.22L221.989 59H220.149V45ZM249.594 59L249.574 48.8L244.514 57.3H243.594L238.534 48.86V59H236.614V45H238.254L244.094 54.84L249.854 45H251.494L251.514 59H249.594ZM266.031 57.26V59H255.871V45H265.751V46.74H257.871V51.04H264.891V52.74H257.871V57.26H266.031ZM281.212 45V59H279.212V52.76H271.172V59H269.172V45H271.172V51.02H279.212V45H281.212ZM285.578 45H287.558V55.8L295.838 45H297.678V59H295.718V48.22L287.418 59H285.578V45ZM316.574 46.74H309.374L309.394 59H307.414V45H316.594L316.574 46.74ZM315.425 59.12C315.051 59.12 314.731 58.9933 314.465 58.74C314.198 58.4733 314.065 58.14 314.065 57.74C314.065 57.3533 314.198 57.0333 314.465 56.78C314.731 56.5133 315.051 56.38 315.425 56.38C315.798 56.38 316.111 56.5067 316.365 56.76C316.618 57.0133 316.745 57.34 316.745 57.74C316.745 58.14 316.611 58.4733 316.345 58.74C316.091 58.9933 315.785 59.12 315.425 59.12ZM319.856 45H321.836V55.8L330.116 45H331.956V59H329.996V48.22L321.696 59H319.856V45ZM336.421 59.12C336.047 59.12 335.727 58.9933 335.461 58.74C335.194 58.4733 335.061 58.14 335.061 57.74C335.061 57.3533 335.194 57.0333 335.461 56.78C335.727 56.5133 336.047 56.38 336.421 56.38C336.794 56.38 337.107 56.5067 337.361 56.76C337.614 57.0133 337.741 57.34 337.741 57.74C337.741 58.14 337.607 58.4733 337.341 58.74C337.087 58.9933 336.781 59.12 336.421 59.12ZM363.763 45V59H346.223V45H348.203V57.26H354.023V45H355.983V57.26H361.803V45H363.763ZM368.118 45H370.098V55.8L378.378 45H380.218V59H378.258V48.22L369.958 59H368.118V45ZM384.582 45H395.142V46.7H386.562V50.7H390.922C392.589 50.7 393.856 51.0467 394.722 51.74C395.589 52.4333 396.022 53.4333 396.022 54.74C396.022 56.1133 395.549 57.1667 394.602 57.9C393.669 58.6333 392.329 59 390.582 59H384.582V45ZM390.502 57.42C391.649 57.42 392.522 57.2 393.122 56.76C393.722 56.32 394.022 55.6733 394.022 54.82C394.022 53.1267 392.849 52.28 390.502 52.28H386.562V57.42H390.502ZM408.253 55.5H400.813L399.273 59H397.213L403.553 45H405.533L411.893 59H409.793L408.253 55.5ZM407.553 53.9L404.533 47.04L401.513 53.9H407.553ZM426.349 45V59H424.349V52.76H416.309V59H414.309V45H416.309V51.02H424.349V45H426.349ZM437.015 59.16C435.602 59.16 434.328 58.8533 433.195 58.24C432.062 57.6133 431.168 56.7533 430.515 55.66C429.875 54.5667 429.555 53.3467 429.555 52C429.555 50.6533 429.875 49.4333 430.515 48.34C431.168 47.2467 432.062 46.3933 433.195 45.78C434.328 45.1533 435.602 44.84 437.015 44.84C438.415 44.84 439.682 45.1533 440.815 45.78C441.948 46.3933 442.835 47.2467 443.475 48.34C444.115 49.42 444.435 50.64 444.435 52C444.435 53.36 444.115 54.5867 443.475 55.68C442.835 56.76 441.948 57.6133 440.815 58.24C439.682 58.8533 438.415 59.16 437.015 59.16ZM437.015 57.38C438.042 57.38 438.962 57.1467 439.775 56.68C440.602 56.2133 441.248 55.5733 441.715 54.76C442.195 53.9333 442.435 53.0133 442.435 52C442.435 50.9867 442.195 50.0733 441.715 49.26C441.248 48.4333 440.602 47.7867 439.775 47.32C438.962 46.8533 438.042 46.62 437.015 46.62C435.988 46.62 435.055 46.8533 434.215 47.32C433.388 47.7867 432.735 48.4333 432.255 49.26C431.788 50.0733 431.555 50.9867 431.555 52C431.555 53.0133 431.788 53.9333 432.255 54.76C432.735 55.5733 433.388 56.2133 434.215 56.68C435.055 57.1467 435.988 57.38 437.015 57.38ZM456.388 51.74C457.335 51.9667 458.048 52.3733 458.528 52.96C459.022 53.5333 459.268 54.2733 459.268 55.18C459.268 56.3933 458.822 57.3333 457.928 58C457.048 58.6667 455.762 59 454.068 59H447.668V45H453.688C455.222 45 456.415 45.3133 457.268 45.94C458.135 46.5533 458.568 47.44 458.568 48.6C458.568 49.36 458.375 50.0067 457.988 50.54C457.615 51.0733 457.082 51.4733 456.388 51.74ZM449.648 51.16H453.548C454.522 51.16 455.262 50.9667 455.768 50.58C456.288 50.1933 456.548 49.6267 456.548 48.88C456.548 48.1333 456.288 47.5667 455.768 47.18C455.248 46.78 454.508 46.58 453.548 46.58H449.648V51.16ZM454.028 57.42C456.175 57.42 457.248 56.62 457.248 55.02C457.248 54.22 456.975 53.6333 456.428 53.26C455.895 52.8733 455.095 52.68 454.028 52.68H449.648V57.42H454.028ZM471.71 55.5H464.27L462.73 59H460.67L467.01 45H468.99L475.35 59H473.25L471.71 55.5ZM471.01 53.9L467.99 47.04L464.97 53.9H471.01Z" fill="white" />
<path d="M73.8161 28.7979L66.9558 27.0813C66.5941 26.0697 66.1699 25.0564 65.6878 24.0508L69.3331 17.9748C69.7024 17.3599 69.6047 16.5725 69.0981 16.066L58.9343 5.90054C58.4277 5.39238 57.6373 5.29775 57.0255 5.66558L50.9478 9.31245C49.9438 8.83022 48.9306 8.40601 47.9189 8.04448L46.2021 1.18403C46.0283 0.488232 45.4041 0 44.687 0H30.3132C29.5961 0 28.972 0.488232 28.798 1.18403L27.0814 8.04434C26.0697 8.40601 25.0565 8.83022 24.0525 9.3123L17.9748 5.66543C17.3599 5.29922 16.5725 5.39224 16.066 5.90039L5.90216 16.0658C5.39562 16.5724 5.29791 17.3597 5.6672 17.9747L9.31247 24.0507C8.83024 25.0563 8.40602 26.0694 8.0445 27.0812L1.18404 28.7979C0.488233 28.9718 0 29.596 0 30.3132V44.687C0 45.4041 0.488233 46.0282 1.18404 46.2022L8.04435 47.9188C8.40602 48.9305 8.83024 49.9437 9.31232 50.9493L5.66705 57.0253C5.29776 57.6403 5.39547 58.4276 5.90201 58.9342L16.0659 69.098C16.5695 69.6031 17.3583 69.6992 17.9747 69.333L24.0507 65.6877C25.0563 66.1699 26.0694 66.5941 27.0812 66.9557L28.7979 73.816C28.9719 74.5118 29.5959 75 30.3131 75H44.6869C45.4041 75 46.0281 74.5118 46.2021 73.816L47.9188 66.9557C48.9304 66.594 49.9436 66.1698 50.9493 65.6877L57.0253 69.333C57.6402 69.7006 58.4276 69.6062 58.9341 69.098L69.098 58.9342C69.6045 58.4276 69.7022 57.6403 69.3329 57.0253L65.6877 50.9493C66.1699 49.9437 66.5941 48.9306 66.9557 47.9188L73.816 46.2022C74.5118 46.0282 75 45.4041 75 44.687V30.3132C75.0001 29.596 74.5119 28.9718 73.8161 28.7979ZM71.8752 43.4678L65.3719 45.0943C64.8485 45.224 64.4288 45.6163 64.264 46.129C63.8153 47.5175 63.2279 48.9229 62.5183 50.3068C62.2711 50.786 62.291 51.3598 62.5687 51.8235L66.0264 57.5868L57.5866 66.0265L51.825 62.5689C51.3626 62.2942 50.7919 62.2729 50.3083 62.5185C48.9228 63.2281 47.5174 63.8155 46.1289 64.2642C45.6162 64.429 45.2241 64.8486 45.0943 65.372L43.4677 71.8753H31.5323L29.9057 65.372C29.7761 64.8486 29.3838 64.429 28.8711 64.2642C27.4826 63.8155 26.0772 63.2281 24.6917 62.5185C24.2095 62.2698 23.6359 62.2912 23.175 62.5689L17.4134 66.0265L8.97365 57.5867L12.4313 51.8234C12.709 51.3595 12.7288 50.7858 12.4817 50.3067C11.7721 48.9227 11.1847 47.5173 10.736 46.1288C10.5712 45.6161 10.1515 45.224 9.62814 45.0942L3.12496 43.4678V31.5322L9.62829 29.9057C10.1517 29.776 10.5714 29.3837 10.7362 28.871C11.1848 27.4825 11.7722 26.0771 12.4818 24.6932C12.7291 24.214 12.7092 23.6402 12.4314 23.1765L8.97365 17.4133L17.4134 8.97217L23.1767 12.4314C23.6406 12.7106 24.2142 12.732 24.6934 12.4818C26.0773 11.7722 27.4827 11.1848 28.8712 10.7361C29.3839 10.5713 29.7761 10.1517 29.9059 9.62827L31.5324 3.12495H43.4679L45.0944 9.62827C45.2241 10.1517 45.6163 10.5713 46.129 10.7361C47.5176 11.1848 48.9229 11.7722 50.3069 12.4818C50.7845 12.7291 51.3599 12.7077 51.8236 12.4314L57.5869 8.97217L66.0266 17.4133L62.569 23.1766C62.2913 23.6405 62.2715 24.2142 62.5186 24.6933C63.2282 26.0773 63.8156 27.4827 64.2643 28.8712C64.4291 29.3839 64.8488 29.776 65.3721 29.9058L71.8755 31.5324V43.4678H71.8752Z" fill="#FFB401" />
<path d="M53.4437 38.4349C53.3129 37.9851 52.9771 37.6177 52.5309 37.4534C52.4408 37.4202 51.7107 37.1601 50.5767 36.9931C55.4215 31.8023 53.8219 25.7378 53.4437 24.5534C53.3129 24.1035 52.9771 23.7361 52.5309 23.5718C52.3229 23.4951 48.6967 22.2077 44.5653 23.6554C44.7986 22.6918 44.935 21.6324 44.935 20.4699C44.935 13.0324 39.3415 9.7634 38.219 9.18307C37.8106 8.95785 37.3148 8.93727 36.8841 9.13892C36.6064 9.26883 30.081 12.4133 30.081 20.4699C30.081 21.6348 30.218 22.6964 30.4522 23.6615C26.3135 22.2041 22.6776 23.4949 22.4693 23.5718C22.023 23.7361 21.6872 24.1035 21.5564 24.5534C21.1783 25.7378 19.5787 31.8023 24.4235 36.9931C23.2895 37.1601 22.5594 37.4202 22.4693 37.4534C22.023 37.6177 21.6871 37.9852 21.5563 38.435C21.1703 39.6442 19.5104 45.9388 24.7335 51.198C27.7561 54.2415 31.1107 54.9676 33.6241 54.9676C34.5546 54.9676 35.3679 54.8678 36.0083 54.7494V64.5085C36.0083 65.3321 36.6714 66 37.4895 66C38.3076 66 38.9707 65.3321 38.9707 64.5085V54.7456C39.614 54.8656 40.4353 54.9674 41.3759 54.9674C43.8891 54.9674 47.2442 54.2411 50.2665 51.1979C55.4896 45.9385 53.8297 39.644 53.4437 38.4349ZM36.0083 50.1C35.9754 50.777 35.881 51.346 35.7908 51.7551C34.2075 52.1093 30.2462 52.5302 26.8284 49.0886C23.462 45.6993 23.8148 41.7765 24.1875 40.0649C25.183 39.847 27.1257 39.6042 29.2764 40.307C29.418 40.3604 29.5592 40.4108 29.6996 40.4578C30.8386 40.8927 32.0213 41.6026 33.1421 42.7311C35.2779 44.8816 35.9157 47.2456 36.0083 49.1049V50.1ZM36.0083 36.2187C35.9754 36.8957 35.881 37.4647 35.7908 37.8736C34.8098 38.0933 32.9159 38.3372 30.8041 37.6735C30.5901 37.5904 30.3772 37.5148 30.1659 37.4463C29.0612 37.007 27.9172 36.3036 26.8282 35.2072C23.462 31.8177 23.8148 27.8951 24.1875 26.1836C25.7693 25.8373 29.7418 25.426 33.1421 28.8498C33.1637 28.8716 33.1833 28.8935 33.2045 28.9151C33.3344 29.0619 33.4647 29.2022 33.5949 29.337C35.3678 31.3522 35.9226 33.5038 36.0083 35.2236V36.2187ZM37.5104 28.7354C37.0462 28.4356 36.3772 27.9415 35.6978 27.2272C35.6285 27.1507 35.5584 27.0742 35.4864 26.998C34.2489 25.6137 33.0433 23.4903 33.0433 20.4699C33.0433 15.6082 36.1331 13.0857 37.5004 12.2075C38.9648 13.151 41.9724 15.6735 41.9724 20.4699C41.9724 23.3201 40.9102 25.3653 39.756 26.7476C39.5161 26.9895 39.2915 27.2338 39.0799 27.4793C38.4877 28.059 37.9205 28.4723 37.5104 28.7354ZM38.9799 35.7353C38.9778 33.9843 39.4277 31.6672 41.2694 29.4911C41.4876 29.2728 41.707 29.0379 41.9244 28.7854C45.3234 25.4189 49.2385 25.8301 50.8119 26.1806C51.1847 27.8906 51.5399 31.8157 48.1716 35.2072C47.0847 36.3018 45.943 37.0046 44.8402 37.4443C44.6253 37.5138 44.4089 37.5906 44.1911 37.6751C42.0796 38.3378 40.1869 38.093 39.2098 37.8741C39.1002 37.377 38.984 36.6469 38.9797 35.7734C38.9797 35.7607 38.9799 35.748 38.9799 35.7353ZM48.1716 49.0886C44.7532 52.5308 40.7917 52.1092 39.2121 51.7563C38.8678 50.1697 38.4514 46.1612 41.8579 42.7311C42.9478 41.6336 44.0926 40.9301 45.1982 40.4907C45.4091 40.4224 45.6214 40.3473 45.8348 40.2643C47.942 39.6021 49.8316 39.8437 50.8119 40.0619C51.1847 41.7721 51.5399 45.6972 48.1716 49.0886Z" fill="#FFB401" />
</symbol><symbol viewBox="0 0 6 9" fill="none" id="next">
<path d="M6 4.5L0.75 8.39711L0.75 0.602886L6 4.5Z" fill="#ECA600" />
</symbol><symbol viewBox="0 0 60 52" fill="none" id="paid-education">
<path d="M19.309 46.0425C18.7801 46.0425 18.3516 46.4712 18.3516 46.9999V49.8723C18.3516 50.401 18.7801 50.8297 19.309 50.8297C19.8379 50.8297 20.2665 50.401 20.2665 49.8723V46.9999C20.2665 46.4712 19.8379 46.0425 19.309 46.0425Z" fill="white" />
<path d="M40.6913 46.0425C40.1624 46.0425 39.7339 46.4712 39.7339 46.9999V50.8297C39.7339 51.3585 40.1624 51.7872 40.6913 51.7872C41.2202 51.7872 41.6488 51.3585 41.6488 50.8297V46.9999C41.6488 46.4712 41.2202 46.0425 40.6913 46.0425Z" fill="white" />
<path d="M3.51067 14.1278H16.7554C17.2842 14.1278 17.7128 13.6991 17.7128 13.1703C17.7128 12.6416 17.2842 12.2129 16.7554 12.2129H3.51067C2.98178 12.2129 2.55322 12.6416 2.55322 13.1703C2.55322 13.6991 2.98178 14.1278 3.51067 14.1278Z" fill="white" />
<path d="M3.51067 10.2982H16.7554C17.2842 10.2982 17.7128 9.86952 17.7128 9.34075C17.7128 8.81198 17.2842 8.3833 16.7554 8.3833H3.51067C2.98178 8.3833 2.55322 8.81198 2.55322 9.34075C2.55322 9.86952 2.98178 10.2982 3.51067 10.2982Z" fill="white" />
<path d="M8.61711 40.2979H51.3831C51.912 40.2979 52.3405 39.8692 52.3405 39.3404V24.6596C52.3405 24.1308 51.912 23.7021 51.3831 23.7021H44.7607C44.2318 23.7021 43.8033 24.1308 43.8033 24.6596C43.8033 25.1884 44.2318 25.617 44.7607 25.617H50.4256V38.383H9.57456V25.617H40.931C41.4598 25.617 41.8884 25.1884 41.8884 24.6596C41.8884 24.1308 41.4598 23.7021 40.931 23.7021H8.61711C8.08822 23.7021 7.65967 24.1308 7.65967 24.6596V39.3404C7.65967 39.8692 8.08822 40.2979 8.61711 40.2979Z" fill="white" />
<path d="M20.8171 14.1247C21.3437 14.1667 21.8058 13.7744 21.8483 13.2473L22.5081 5.06472C22.6366 3.47268 24.0944 2.12778 25.6915 2.12778H34.3085C35.9057 2.12778 37.3634 3.47268 37.492 5.06472L38.1517 13.2473C38.1921 13.7483 38.6112 14.1279 39.1051 14.1279C39.1307 14.1279 39.1568 14.1269 39.183 14.1247C39.7101 14.0822 40.1029 13.6205 40.0604 13.0934L39.4006 4.91076C39.1915 2.3203 36.9072 0.212891 34.3085 0.212891H25.6915C23.0929 0.212891 20.8085 2.3203 20.5994 4.91076L19.9397 13.0934C19.8972 13.6205 20.29 14.0822 20.8171 14.1247Z" fill="white" />
<path d="M59.0426 16.0426H52.3404V9.34046C52.3404 8.81169 51.9119 8.38301 51.383 8.38301H49.7872V5.51067C49.7872 4.9819 49.3587 4.55322 48.8298 4.55322C48.3009 4.55322 47.8723 4.9819 47.8723 5.51067V8.38301H46.2766C45.7477 8.38301 45.3191 8.81169 45.3191 9.34046V16.0426H0.957447C0.428553 16.0426 0 16.4713 0 17V20.8298C0 21.3586 0.428553 21.7873 0.957447 21.7873H3.82979V50.8298C3.82979 51.3586 4.25834 51.7873 4.78723 51.7873C5.31613 51.7873 5.74468 51.3586 5.74468 50.8298V44.1277H54.2553V50.8298C54.2553 51.3586 54.6839 51.7873 55.2128 51.7873C55.7417 51.7873 56.1702 51.3586 56.1702 50.8298V21.7873H59.0426C59.5714 21.7873 60 21.3586 60 20.8298V17C60 16.4713 59.5714 16.0426 59.0426 16.0426ZM47.234 10.2979H50.4255V16.0426H47.234V10.2979ZM54.2553 42.2128H5.74468V21.7873H54.2553V42.2128ZM58.0851 19.8724H1.91489V17.9575H58.0851V19.8724Z" fill="white" />
</symbol><symbol viewBox="0 0 30 30" fill="none" id="personal">
<path d="M15 13.75C17.7614 13.75 20 11.5114 20 8.75C20 5.98858 17.7614 3.75 15 3.75C12.2386 3.75 10 5.98858 10 8.75C10 11.5114 12.2386 13.75 15 13.75Z" stroke="#171717" stroke-width="2" stroke-linecap="round" stroke-linejoin="round" />
<path d="M5 26.25V23.75C5 22.4239 5.70238 21.1521 6.95262 20.2145C8.20286 19.2768 9.89856 18.75 11.6667 18.75H18.3333C20.1014 18.75 21.7971 19.2768 23.0474 20.2145C24.2976 21.1521 25 22.4239 25 23.75V26.25" stroke="#171717" stroke-width="2" stroke-linecap="round" stroke-linejoin="round" />
</symbol><symbol viewBox="0 0 60 58" fill="none" id="places">
<path d="M52.6275 50.064H11.9679C11.936 50.064 11.9042 50.0656 11.8726 50.0688C11.8474 50.0714 11.8228 50.0755 11.7981 50.0799C11.792 50.0811 11.7856 50.0815 11.7795 50.0827C11.7491 50.0887 11.7194 50.0964 11.6901 50.1052C11.6555 50.1157 11.6231 50.1274 11.5917 50.1409L5.47209 52.6906C5.11528 52.8393 4.88281 53.1879 4.88281 53.5743C4.88281 53.9609 5.11515 54.3095 5.47196 54.4581L11.5911 57.008C11.6509 57.0337 11.714 57.0535 11.7795 57.0665C11.7854 57.0676 11.7915 57.0681 11.7974 57.0692C11.8221 57.0736 11.847 57.0778 11.8724 57.0804C11.9041 57.0836 11.9359 57.0852 11.9678 57.0852H52.6274C54 57.0852 55.1167 55.9683 55.1167 54.5956V52.5531C55.1169 51.1806 54.0001 50.064 52.6275 50.064ZM12.9254 51.9789H45.1594V55.1703H12.9254V51.9789ZM47.0743 51.9789H48.9892V55.1703H47.0743V51.9789ZM11.0105 52.4575V54.6915L8.32962 53.5743L11.0105 52.4575ZM53.202 54.5956C53.202 54.9071 52.9389 55.1703 52.6275 55.1703H50.9041V51.9789H52.6275C52.9389 51.9789 53.202 52.2418 53.202 52.5531V54.5956Z" fill="white" />
<path d="M59.8383 34.9575C59.8423 34.9515 59.8457 34.9451 59.8495 34.939C59.8624 34.9187 59.8751 34.8983 59.8866 34.877C59.8892 34.8724 59.8911 34.8674 59.8935 34.8627C59.9054 34.8396 59.9169 34.8162 59.9268 34.7922C59.9283 34.7888 59.9293 34.7853 59.9307 34.7819C59.9409 34.7565 59.9505 34.7307 59.9585 34.7043C59.9597 34.7004 59.9604 34.6965 59.9614 34.6926C59.969 34.6667 59.9759 34.6404 59.9812 34.6136C59.9829 34.6056 59.9835 34.5973 59.9849 34.5892C59.9889 34.5666 59.9929 34.5439 59.9951 34.5207C59.9983 34.4891 60 34.4572 60 34.4252V1.872C60 1.34323 59.5713 0.914551 59.0426 0.914551H0.957447C0.428681 0.914551 0 1.34323 0 1.872V45.9146C0 46.4433 0.428681 46.872 0.957447 46.872H47.5532C47.5852 46.872 47.6171 46.8703 47.6488 46.8671C47.672 46.8648 47.6946 46.8609 47.7174 46.8569C47.7254 46.8555 47.7337 46.8549 47.7417 46.8532C47.7686 46.8479 47.7949 46.841 47.8208 46.8333C47.8246 46.8322 47.8286 46.8315 47.8324 46.8304C47.8588 46.8223 47.8846 46.8128 47.91 46.8026C47.9134 46.8011 47.917 46.8001 47.9203 46.7987C47.9445 46.7888 47.9678 46.7773 47.9908 46.7654C47.9955 46.763 48.0004 46.7611 48.0051 46.7585C48.0264 46.747 48.0469 46.7344 48.0672 46.7214C48.0733 46.7174 48.0797 46.7141 48.0857 46.7101C48.1049 46.6972 48.1233 46.6831 48.1416 46.6688C48.148 46.6638 48.1546 46.6594 48.1609 46.6543C48.185 46.6344 48.2082 46.6135 48.2304 46.5914L59.7194 35.1023C59.7415 35.0802 59.7626 35.057 59.7823 35.0327C59.7874 35.0265 59.7918 35.0198 59.7968 35.0134C59.8111 34.9952 59.8254 34.9769 59.8383 34.9575ZM1.91489 2.82944H58.0851V33.4677H47.5532C47.0244 33.4677 46.5957 33.8964 46.5957 34.4252V44.9571H1.91489V2.82944ZM56.7312 35.3826L48.5106 43.6031V35.3826H56.7312Z" fill="white" />
<path d="M43.7235 39.8508H38.9362V16.1337H52.9788V30.5955C52.9788 31.1242 53.4075 31.5529 53.9362 31.5529C54.465 31.5529 54.8937 31.1242 54.8937 30.5955V6.97844C54.8937 6.44968 54.465 6.021 53.9362 6.021H13.7235C13.1947 6.021 12.766 6.44968 12.766 6.97844C12.766 7.50721 13.1947 7.93589 13.7235 7.93589H52.9788V14.2188H7.02134V7.93589H9.89368C10.4224 7.93589 10.8511 7.50721 10.8511 6.97844C10.8511 6.44968 10.4224 6.021 9.89368 6.021H6.06389C5.53513 6.021 5.10645 6.44968 5.10645 6.97844V40.8082C5.10645 41.337 5.53513 41.7657 6.06389 41.7657H43.7235C44.2522 41.7657 44.6809 41.337 44.6809 40.8082C44.6809 40.2795 44.2522 39.8508 43.7235 39.8508ZM37.0213 39.8508H22.9788V16.1337H37.0213V39.8508ZM7.02134 16.1337H21.0639V39.8508H7.02134V16.1337Z" fill="white" />
</symbol><symbol viewBox="0 0 6 9" fill="none" id="previous">
<path d="M0 4.5L5.25 0.602886L5.25 8.39711L0 4.5Z" fill="#ECA600" />
</symbol><symbol viewBox="0 0 20 20" fill="none" id="pswdeye">
<path d="M0.666512 9.99996L0.0478448 9.75196C-0.0159483 9.91114 -0.0159483 10.0888 0.0478448 10.248L0.666512 9.99996ZM19.3332 9.99996L19.9518 10.248C20.0156 10.0888 20.0156 9.91114 19.9518 9.75196L19.3332 9.99996ZM9.99985 16C6.91451 16 4.74785 14.464 3.32918 12.888C2.55398 12.0208 1.9037 11.0497 1.39718 10.0026C1.36007 9.92332 1.32451 9.84331 1.29051 9.76263L1.28518 9.75329V9.75196L0.666512 9.99996L0.0478448 10.248V10.2506L0.0518449 10.256C0.0629468 10.2841 0.0745038 10.3121 0.0865115 10.34L0.190512 10.5706C0.75252 11.7351 1.47512 12.8149 2.33718 13.7786C3.91985 15.536 6.41851 17.3333 9.99985 17.3333V16ZM0.666512 9.99996L1.28518 10.248L1.29051 10.2373C1.32305 10.156 1.35863 10.0759 1.39718 9.99729C1.9037 8.95025 2.55398 7.97909 3.32918 7.11196C4.74651 5.53596 6.91451 3.99996 9.99985 3.99996V2.66663C6.41851 2.66663 3.91851 4.46396 2.33718 6.22129C1.4751 7.18496 0.752505 8.26482 0.190512 9.42929C0.142059 9.53318 0.095826 9.6381 0.0518449 9.74396L0.0491782 9.74929V9.75063H0.0465115L0.666512 9.99996ZM9.99985 3.99996C13.0852 3.99996 15.2518 5.53596 16.6705 7.11196C17.4457 7.97911 18.096 8.95027 18.6025 9.99729C18.6397 10.0765 18.6753 10.1566 18.7092 10.2373L18.7145 10.2466V10.248L19.3332 9.99996L19.9518 9.75196V9.74929L19.9478 9.74396C19.9378 9.71538 19.9262 9.68734 19.9132 9.65996C19.7563 9.30834 19.5828 8.9644 19.3932 8.62929C18.9043 7.76688 18.3241 6.95956 17.6625 6.22129C16.0798 4.46396 13.5812 2.66663 9.99985 2.66663V3.99996ZM19.3332 9.99996C19.1267 9.91804 18.9204 9.83537 18.7145 9.75196L18.7105 9.76263L18.6905 9.80929L18.6025 10.0026C18.096 11.0496 17.4457 12.0208 16.6705 12.888C15.2532 14.464 13.0852 16 9.99985 16V17.3333C13.5812 17.3333 16.0812 15.536 17.6625 13.78C18.5247 12.8159 19.2473 11.7356 19.8092 10.5706C19.8576 10.4667 19.9038 10.3618 19.9478 10.256L19.9505 10.2506V10.2493H19.9518L19.3332 9.99996ZM9.99985 12C9.46941 12 8.9607 11.7892 8.58563 11.4142C8.21056 11.0391 7.99985 10.5304 7.99985 9.99996H6.66651C6.66651 10.884 7.0177 11.7319 7.64282 12.357C8.26794 12.9821 9.11579 13.3333 9.99985 13.3333V12ZM11.9998 9.99996C11.9998 10.5304 11.7891 11.0391 11.4141 11.4142C11.039 11.7892 10.5303 12 9.99985 12V13.3333C10.8839 13.3333 11.7317 12.9821 12.3569 12.357C12.982 11.7319 13.3332 10.884 13.3332 9.99996H11.9998ZM9.99985 7.99996C10.5303 7.99996 11.039 8.21067 11.4141 8.58575C11.7891 8.96082 11.9998 9.46953 11.9998 9.99996H13.3332C13.3332 9.1159 12.982 8.26806 12.3569 7.64294C11.7317 7.01782 10.8839 6.66663 9.99985 6.66663V7.99996ZM9.99985 6.66663C9.11579 6.66663 8.26794 7.01782 7.64282 7.64294C7.0177 8.26806 6.66651 9.1159 6.66651 9.99996H7.99985C7.99985 9.46953 8.21056 8.96082 8.58563 8.58575C8.9607 8.21067 9.46941 7.99996 9.99985 7.99996V6.66663Z" fill="#C4C4C4" />
</symbol><symbol viewBox="0 0 8 13" fill="none" id="right">
<path d="M8 6.5L0.5 0.870834L0.5 12.1292L8 6.5Z" fill="#617F88" />
</symbol><symbol viewBox="0 0 83 20" fill="none" id="satellite">
<path d="M15.707 4.75977H26.1559V15.527H22.9003V7.29854H18.9633V15.527H15.707V4.75977ZM63.4508 9.86396V4.75977H60.1533V15.527H61.529L67.3616 10.4857V15.527H70.6375V4.75977H69.3435L63.4508 9.86396ZM71.9308 15.527H75.208V4.75977H71.9308V15.527ZM78.9423 10.0359L82.7838 4.7604H78.9639L75.2728 10.0359L79.1797 15.527H82.9996L78.9423 10.0359ZM35.3853 4.75977L32.6443 11.5869L30.0543 4.75977H26.5796L30.9605 15.527L29.0637 20H32.4527L37.855 7.29283H41.2054V15.527H44.4813V7.3125H47.7618V4.75977H35.3853ZM55.5827 8.56666H51.6824V4.7604H48.3849V15.5277H51.6824V11.0978H55.5827V15.5277H58.8789V4.75977H55.5827V8.56666Z" fill="white" />
<path d="M11.5585 5.40286C10.7627 4.30668 9.63938 3.84804 8.82793 3.69135L8.83316 3.69198L2.21074 2.43531C3.67018 0.934415 5.7253 0 8.00797 0C10.713 0 13.1101 1.32201 14.5604 3.35958L11.5585 5.40286ZM11.5585 10.4448C10.7627 11.5409 9.63938 11.9996 8.82793 12.1556H8.83316L2.21074 13.4117C3.66953 14.9119 5.7253 15.847 8.00797 15.847C10.713 15.847 13.1101 14.525 14.5604 12.4874L11.5585 10.4448ZM3.83692 8.55754H0.00130774C0.10135 10.0331 0.610717 11.3157 1.41759 12.4576L5.76911 11.6399C4.67257 10.9865 3.98208 9.92141 3.83692 8.55754ZM5.69261 4.27877L1.39667 3.47249C0.60287 4.608 0.100042 5.87228 0 7.31355H3.83692C3.97816 5.98203 4.64118 4.93914 5.69261 4.27877Z" fill="white" />
</symbol><symbol viewBox="0 0 30 30" fill="none" id="search">
<path d="M13.75 23.75C19.2728 23.75 23.75 19.2728 23.75 13.75C23.75 8.22715 19.2728 3.75 13.75 3.75C8.22715 3.75 3.75 8.22715 3.75 13.75C3.75 19.2728 8.22715 23.75 13.75 23.75Z" stroke="#171717" stroke-width="2" stroke-linecap="round" stroke-linejoin="round" />
<path d="M26.25 26.25L20.8125 20.8125" stroke="#171717" stroke-width="2" stroke-linecap="round" stroke-linejoin="round" />
</symbol><symbol viewBox="0 0 13 7" fill="none" id="select-down">
<path d="M6.5 7L0.870834 0.25L12.1292 0.25L6.5 7Z" fill="#C4C4C4" />
</symbol><symbol viewBox="0 0 30 30" fill="none" id="site-map">
<path d="M25.3555 19.4617H23.4289V16.2891C23.4289 15.9055 23.1179 15.5945 22.7344 15.5945H15.6945V13.1164H20.1562C20.5398 13.1164 20.8508 12.8054 20.8508 12.4219V4.64453C20.8508 4.26096 20.5398 3.95 20.1562 3.95H9.84375C9.46018 3.95 9.14922 4.26096 9.14922 4.64453V12.4219C9.14922 12.8054 9.46018 13.1164 9.84375 13.1164H14.3055V15.5945H7.26562C6.88206 15.5945 6.57109 15.9055 6.57109 16.2891V19.4617H4.64453C4.26096 19.4617 3.95 19.7727 3.95 20.1562V25.3555C3.95 25.739 4.26096 26.05 4.64453 26.05H9.84375C10.2273 26.05 10.5383 25.739 10.5383 25.3555V20.1562C10.5383 19.7727 10.2273 19.4617 9.84375 19.4617H7.96016V16.9836H14.3055V19.4617H12.4219C12.0383 19.4617 11.7273 19.7727 11.7273 20.1562V25.3555C11.7273 25.739 12.0383 26.05 12.4219 26.05H17.5781C17.9617 26.05 18.2727 25.739 18.2727 25.3555V20.1562C18.2727 19.7727 17.9617 19.4617 17.5781 19.4617H15.6945V16.9836H22.0398V19.4617H20.1562C19.7727 19.4617 19.4617 19.7727 19.4617 20.1562V25.3555C19.4617 25.739 19.7727 26.05 20.1562 26.05H25.3555C25.739 26.05 26.05 25.739 26.05 25.3555V20.1562C26.05 19.7727 25.739 19.4617 25.3555 19.4617ZM10.5383 5.33906H19.4617V11.7273H10.5383V5.33906ZM9.14922 24.6609H5.33906V20.8508H9.14922V24.6609ZM16.8836 24.6609H13.1164V20.8508H16.8836V24.6609ZM24.6609 24.6609H20.8508V20.8508H24.6609V24.6609Z" fill="#171717" stroke="#171717" stroke-width="0.1" />
</symbol><symbol viewBox="0 0 60 58" fill="none" id="teachers">
<path d="M24.5699 36.6325H22.9741V33.3268C22.9741 32.798 22.5456 32.3693 22.0167 32.3693C21.4878 32.3693 21.0592 32.798 21.0592 33.3268V36.6325H18.9331V29.497C18.9331 28.9682 18.5045 28.5396 17.9756 28.5396C17.4467 28.5396 17.0182 28.9682 17.0182 29.497V36.6325H14.8921V33.3268C14.8921 32.798 14.4636 32.3693 13.9347 32.3693C13.4058 32.3693 12.9772 32.798 12.9772 33.3268V36.6325H10.8509V29.497C10.8509 28.9682 10.4224 28.5396 9.89348 28.5396C9.36459 28.5396 8.93604 28.9682 8.93604 29.497V37.59C8.93604 38.1187 9.36459 38.5474 9.89348 38.5474H24.5699C25.0988 38.5474 25.5273 38.1187 25.5273 37.59C25.5273 37.0612 25.0986 36.6325 24.5699 36.6325Z" fill="white" />
<path d="M24.5699 5.79834H9.89348C9.36459 5.79834 8.93604 6.22702 8.93604 6.75579C8.93604 7.28455 9.36459 7.71323 9.89348 7.71323H24.5699C25.0988 7.71323 25.5273 7.28455 25.5273 6.75579C25.5273 6.22702 25.0986 5.79834 24.5699 5.79834Z" fill="white" />
<path d="M24.5699 10.3467H9.89348C9.36459 10.3467 8.93604 10.7754 8.93604 11.3041C8.93604 11.8329 9.36459 12.2616 9.89348 12.2616H24.5699C25.0988 12.2616 25.5273 11.8329 25.5273 11.3041C25.5273 10.7754 25.0986 10.3467 24.5699 10.3467Z" fill="white" />
<path d="M9.89348 16.8099H17.2316C17.7605 16.8099 18.1891 16.3812 18.1891 15.8525C18.1891 15.3237 17.7605 14.895 17.2316 14.895H9.89348C9.36459 14.895 8.93604 15.3237 8.93604 15.8525C8.93604 16.3812 9.36459 16.8099 9.89348 16.8099Z" fill="white" />
<path d="M24.5699 19.4429H9.89348C9.36459 19.4429 8.93604 19.8716 8.93604 20.4003C8.93604 20.9291 9.36459 21.3578 9.89348 21.3578H24.5699C25.0988 21.3578 25.5273 20.9291 25.5273 20.4003C25.5273 19.8716 25.0986 19.4429 24.5699 19.4429Z" fill="white" />
<path d="M24.5699 23.9912H9.89348C9.36459 23.9912 8.93604 24.4199 8.93604 24.9487C8.93604 25.4774 9.36459 25.9061 9.89348 25.9061H24.5699C25.0988 25.9061 25.5273 25.4774 25.5273 24.9487C25.5273 24.4199 25.0986 23.9912 24.5699 23.9912Z" fill="white" />
<path d="M29.9999 6.49072C29.471 6.49072 29.0425 6.9194 29.0425 7.44817V39.7266C29.0425 40.2554 29.471 40.6841 29.9999 40.6841C30.5288 40.6841 30.9574 40.2554 30.9574 39.7266V7.44817C30.9574 6.91928 30.5288 6.49072 29.9999 6.49072Z" fill="white" />
<path d="M59.0426 8.35147H56.1702V1.64934C56.1702 1.12058 55.7417 0.691895 55.2128 0.691895H33.6679C32.2871 0.691895 30.9826 1.21977 30 2.14377C29.0173 1.21977 27.7127 0.691895 26.3321 0.691895H4.78723C4.25834 0.691895 3.82979 1.12058 3.82979 1.64934V8.35147H0.957447C0.428553 8.35147 0 8.78015 0 9.30892V50.3559C0 50.8847 0.428553 51.3134 0.957447 51.3134H26.1494L27.2212 52.5636C27.4031 52.7757 27.6687 52.8978 27.9481 52.8978L32.0526 52.8974C32.3321 52.8974 32.5977 52.7752 32.7795 52.5629L33.8505 51.3133H39.0956V54.8192C39.0956 56.1918 40.2124 57.3085 41.5852 57.3085H43.6278C45.0003 57.3085 46.1169 56.1918 46.1169 54.8192V51.3133H59.0426C59.5714 51.3133 60 50.8846 60 50.3558V9.30892C60 8.78015 59.5714 8.35147 59.0426 8.35147ZM44.2021 15.1172V47.3512H41.0106V15.1172H44.2021ZM41.0106 49.2661H44.2021V51.181H41.0106V49.2661ZM41.4894 13.2023L42.6065 10.5214L43.7234 13.2023H41.4894ZM43.6279 55.3938H41.5854C41.2739 55.3938 41.0106 55.1307 41.0106 54.8193V53.0959H44.2021V54.8193C44.2021 55.1307 43.9392 55.3938 43.6279 55.3938ZM58.0851 49.3985H46.117V14.1597C46.117 14.1278 46.1154 14.096 46.1122 14.0644C46.1095 14.0379 46.1053 14.012 46.1006 13.9862C46.0997 13.9814 46.0993 13.9764 46.0983 13.9716C46.0851 13.9058 46.0653 13.8425 46.0394 13.7822L43.4903 7.66389C43.3417 7.30709 42.9931 7.07462 42.6065 7.07462C42.2201 7.07462 41.8713 7.30696 41.7227 7.66377L39.1729 13.7827C39.1472 13.8427 39.1274 13.9058 39.1143 13.9714C39.1132 13.9768 39.1129 13.9822 39.1118 13.9875C39.1072 14.0128 39.1029 14.0383 39.1003 14.0642C39.0971 14.0959 39.0955 14.1277 39.0955 14.1596V49.3984H33.6677C33.1776 49.3984 32.7212 49.6312 32.4326 50.0248L31.6118 50.9825L28.3879 50.9827L27.5667 50.0249C27.2777 49.6312 26.8211 49.3984 26.3316 49.3984H1.91489V10.2664H3.82979V42.6964C3.82979 43.2251 4.25834 43.6538 4.78723 43.6538H26.3321C27.3973 43.6538 28.391 44.1433 29.0426 44.9742V46.3044C28.2332 45.8298 27.3017 45.5687 26.3321 45.5687H4.78723C4.25834 45.5687 3.82979 45.9974 3.82979 46.5261C3.82979 47.0549 4.25834 47.4836 4.78723 47.4836H26.3321C27.4883 47.4836 28.5614 48.0593 29.2029 49.0236C29.224 49.055 29.2462 49.0839 29.2699 49.1119C29.2762 49.1193 29.2829 49.1262 29.2894 49.1333C29.3072 49.153 29.3254 49.1719 29.3447 49.19C29.3533 49.1981 29.3618 49.2059 29.3706 49.2135C29.3908 49.2311 29.4119 49.2478 29.4334 49.2638C29.4406 49.269 29.4475 49.2747 29.4548 49.2798C29.4846 49.3006 29.5157 49.3199 29.548 49.3372C29.5796 49.3542 29.6124 49.3689 29.6459 49.3823C29.6538 49.3855 29.662 49.3881 29.67 49.3911C29.6962 49.4007 29.7226 49.4092 29.7498 49.4165C29.7596 49.4192 29.7696 49.4219 29.7795 49.4241C29.8062 49.4304 29.8333 49.4354 29.8607 49.4395C29.8703 49.4409 29.8797 49.4427 29.8894 49.4438C29.9258 49.448 29.9627 49.4507 30.0003 49.4507C30.0382 49.4507 30.0747 49.448 30.1109 49.4438C30.121 49.4427 30.1308 49.4407 30.1408 49.4392C30.1677 49.4353 30.1944 49.4303 30.2207 49.4241C30.2311 49.4217 30.2411 49.419 30.2514 49.4162C30.278 49.409 30.3042 49.4005 30.3299 49.3911C30.3383 49.388 30.3467 49.3852 30.355 49.3819C30.388 49.3687 30.4201 49.3542 30.4511 49.3377C30.485 49.3197 30.5157 49.3004 30.5455 49.2798C30.5531 49.2745 30.5603 49.2687 30.5678 49.263C30.5891 49.2473 30.6097 49.231 30.6296 49.2136C30.6386 49.2059 30.6474 49.1978 30.656 49.1896C30.6751 49.1718 30.6932 49.1531 30.7106 49.1337C30.7173 49.1263 30.7242 49.1192 30.7307 49.1115C30.7543 49.0837 30.7764 49.0548 30.7967 49.0244C31.4387 48.0592 32.5118 47.4835 33.6683 47.4835H36.2238C36.7527 47.4835 37.1812 47.0548 37.1812 46.526C37.1812 45.9973 36.7527 45.5686 36.2238 45.5686H33.6683C32.6986 45.5686 31.7672 45.8295 30.9578 46.3041V44.9741C31.6091 44.1433 32.603 43.6537 33.6683 43.6537H36.2238C36.7527 43.6537 37.1812 43.225 37.1812 42.6962C37.1812 42.1675 36.7527 41.7388 36.2238 41.7388H33.6683C32.2874 41.7388 30.983 42.2661 30.0003 43.1895C29.0175 42.2663 27.7131 41.7388 26.3325 41.7388H5.74468V2.60679H26.3321C27.4882 2.60679 28.5611 3.18304 29.2026 4.14828C29.3801 4.41534 29.6793 4.57581 30 4.57581C30.3207 4.57581 30.6199 4.41534 30.7975 4.14828C31.4387 3.18304 32.512 2.60692 33.6679 2.60692H54.2553V41.739H48.9894C48.4605 41.739 48.0319 42.1677 48.0319 42.6965C48.0319 43.2253 48.4605 43.6539 48.9894 43.6539H55.2128C55.7417 43.6539 56.1702 43.2253 56.1702 42.6965V10.2664H58.0851V49.3985Z" fill="white" />
<path d="M55.2126 45.5688H48.9892C48.4603 45.5688 48.0317 45.9975 48.0317 46.5263C48.0317 47.0551 48.4603 47.4837 48.9892 47.4837H55.2126C55.7415 47.4837 56.17 47.0551 56.17 46.5263C56.17 45.9975 55.7415 45.5688 55.2126 45.5688Z" fill="white" />
</symbol><symbol viewBox="0 0 30 30" fill="none" id="vk">
<path d="M19.6044 0H10.3956C1.99213 0 0 1.99213 0 10.3956V19.6044C0 28.0079 1.99213 30 10.3956 30H19.6044C28.0079 30 30 28.0079 30 19.6044V10.3956C30 1.99213 27.9882 0 19.6044 0ZM24.2186 21.4006H22.0409C21.2159 21.4006 20.9618 20.7462 19.4778 19.2425C18.1888 17.9929 17.6179 17.8269 17.3001 17.8269C16.851 17.8269 16.7235 17.9535 16.7235 18.5694V20.5372C16.7235 21.065 16.5576 21.3818 15.1608 21.3818C12.8508 21.3818 10.2878 19.985 8.49067 17.3826C5.78044 13.569 5.03891 10.7125 5.03891 10.1219C5.03891 9.80407 5.16546 9.50689 5.77576 9.50689H7.95819C8.51036 9.50689 8.72035 9.76095 8.93503 10.3516C10.0141 13.4668 11.8112 16.1957 12.5527 16.1957C12.8265 16.1957 12.953 16.0692 12.953 15.3708V12.1534C12.8696 10.6694 12.0887 10.5419 12.0887 10.015C12.0887 9.76095 12.2987 9.50689 12.6352 9.50689H16.0673C16.5314 9.50689 16.702 9.76095 16.702 10.3075V14.648C16.702 15.1167 16.912 15.2826 17.0385 15.2826C17.3123 15.2826 17.5466 15.1167 18.0538 14.6086C19.6213 12.8508 20.7444 10.1406 20.7444 10.1406C20.8906 9.82282 21.1447 9.52564 21.6968 9.52564H23.8793C24.5336 9.52564 24.6799 9.86219 24.5336 10.3309C24.2599 11.6003 21.589 15.3698 21.589 15.3698C21.3593 15.7504 21.2712 15.9164 21.589 16.3411C21.8234 16.6589 22.5855 17.3179 23.0927 17.9085C24.0255 18.9678 24.7427 19.8566 24.9339 20.4715C25.1486 21.0818 24.8317 21.3996 24.2158 21.3996L24.2186 21.4006Z" fill="white" />
</symbol><symbol viewBox="0 0 62 62" fill="none" id="wheel">

<path d="M59.1084 25.6446H53.109C53.0211 25.2798 52.9266 24.9231 52.8268 24.5783L58.0182 21.5817C58.9194 21.0612 59.2296 19.9018 58.7091 18.9992L55.2441 12.9981C54.7237 12.0982 53.5656 11.7881 52.663 12.3072L47.4503 15.3171C47.2 15.0562 46.9418 14.7979 46.6796 14.5463L49.6906 9.33333C50.2097 8.43211 49.8996 7.27396 48.9984 6.75213L42.9976 3.28701C42.0964 2.76651 40.937 3.07535 40.4165 3.97923L37.4201 9.17093C37.0767 9.07242 36.7239 8.9779 36.3539 8.89004V2.89031C36.3539 1.84798 35.5059 1 34.4636 1H27.535C26.4927 1 25.6448 1.84798 25.6448 2.89031V8.89004C25.2747 8.9779 24.9207 9.07109 24.5786 9.17093L21.5822 3.97923C21.0603 3.07668 19.9036 2.76651 19.0011 3.28701L12.9989 6.75213C12.0978 7.27396 11.7876 8.43211 12.3081 9.33333L15.3178 14.5463C15.0556 14.7966 14.7973 15.0548 14.5471 15.3171L9.33429 12.3072C8.43178 11.7867 7.27368 12.0969 6.75188 12.9981L3.28691 18.9992C2.76643 19.9018 3.07659 21.0599 3.9791 21.5817L9.17056 24.5783C9.07206 24.9217 8.97755 25.2745 8.88969 25.6446H2.89023C1.84794 25.6446 1 26.4925 1 27.5349V34.4638C1 35.5061 1.84794 36.3541 2.89023 36.3541H8.88969C8.97755 36.7242 9.07073 37.0769 9.17056 37.4204L3.9791 40.4169C3.07659 40.9388 2.76643 42.0969 3.28824 42.9981L6.75321 49.0005C7.27368 49.9004 8.43045 50.2106 9.33429 49.6901L14.5471 46.6802C14.7986 46.9452 15.0569 47.2021 15.3191 47.451L12.3094 52.664C11.7889 53.5652 12.0991 54.7234 13.0003 55.2452L19.0024 58.7117C19.9049 59.2335 21.063 58.9207 21.5835 58.0194L24.5799 52.8277C24.9247 52.9276 25.2814 53.0221 25.6461 53.11V59.1097C25.6461 60.152 26.4941 61 27.5364 61H34.465C35.5073 61 36.3552 60.152 36.3552 59.1097V53.11C36.7199 53.0221 37.0767 52.9276 37.4214 52.8277L40.4178 58.0194C40.9383 58.9207 42.0977 59.2348 42.9989 58.7103L49.0011 55.2452C49.9009 54.7234 50.2111 53.5652 49.6906 52.664L46.6809 47.451C46.9431 47.1994 47.2014 46.9412 47.4516 46.6802L52.6657 49.6914C53.5642 50.2093 54.725 49.8991 55.2455 48.9992L58.7104 42.9981C59.2322 42.0969 58.9207 40.9374 58.0196 40.4169L52.8281 37.4204C52.9279 37.0743 53.0224 36.7188 53.1103 36.3541H59.1098C60.1521 36.3541 61 35.5061 61 34.4638V27.5349C60.9973 26.4925 60.1507 25.6446 59.1084 25.6446ZM59.7381 34.4638C59.7381 34.8112 59.4545 35.0935 59.1084 35.0935H52.0986L51.9921 35.59C51.8444 36.2676 51.6727 36.9185 51.481 37.5242L51.3266 38.0075L57.3913 41.5072C57.6921 41.6816 57.7959 42.0676 57.6229 42.3685L54.1579 48.3695C53.9849 48.6704 53.5975 48.7742 53.2967 48.6025L47.2107 45.0881L46.8699 45.4622C46.424 45.9507 45.9514 46.4247 45.4629 46.8693L45.0888 47.2101L48.6017 53.295C48.7748 53.5958 48.6723 53.9832 48.3714 54.1576L42.3706 57.6227C42.0698 57.7931 41.6824 57.692 41.5094 57.3911L38.0098 51.3261L37.5266 51.4806C36.9209 51.6723 36.27 51.8453 35.5924 51.9917L35.0959 52.0982V59.1084C35.0959 59.4558 34.8124 59.738 34.4663 59.738H27.5377C27.1903 59.738 26.9081 59.4545 26.9081 59.1084V52.0982L26.4115 51.9917C25.7327 51.844 25.0817 51.6723 24.4774 51.4806L23.9942 51.3261L20.4933 57.3911C20.3189 57.692 19.9329 57.7931 19.6334 57.6227L13.6326 54.1576C13.3317 53.9832 13.2279 53.5972 13.4023 53.2963L16.9165 47.2101L16.5411 46.8679C16.0579 46.4286 15.584 45.9547 15.1328 45.4622L14.792 45.0881L8.70733 48.6012C8.40383 48.7756 8.01912 48.6717 7.84608 48.3709L4.38111 42.3698C4.20673 42.069 4.31056 41.6829 4.61139 41.5085L10.6761 38.0088L10.5217 37.5269C10.33 36.9252 10.1623 36.2915 10.0105 35.5913L9.90269 35.0961H2.89289C2.54546 35.0961 2.26326 34.8126 2.26326 34.4665V27.5375C2.26326 27.1901 2.54546 26.9079 2.89289 26.9079H9.90269L10.0105 26.4127C10.1623 25.7125 10.33 25.0788 10.5217 24.4771L10.6761 23.9952L4.61273 20.4955C4.31189 20.3211 4.20673 19.935 4.38111 19.6342L7.84474 13.6331C8.01912 13.3336 8.40382 13.2284 8.70599 13.4028L14.7907 16.9159L15.1314 16.5418C15.5774 16.0532 16.0512 15.5793 16.5398 15.1334L16.9138 14.7926L13.4009 8.70767C13.2279 8.40681 13.3304 8.02077 13.6312 7.84638L19.632 4.38126C19.9315 4.20687 20.3176 4.3107 20.4919 4.61155L23.9929 10.6765L24.4761 10.5221C25.0777 10.3304 25.71 10.1627 26.4102 10.0109L26.9054 9.90309V2.89297C26.9054 2.54553 27.1876 2.26331 27.535 2.26331H34.4636C34.8111 2.26331 35.0933 2.54553 35.0933 2.89297V9.90309L35.5885 10.0109C36.2886 10.1627 36.9223 10.3304 37.5239 10.5221L38.0058 10.6765L41.5054 4.61289C41.6784 4.3107 42.0658 4.20687 42.3666 4.38126L48.3674 7.84505C48.6683 8.01944 48.7721 8.40548 48.6004 8.70634L45.0862 14.7913L45.4602 15.1321C45.9527 15.582 46.4266 16.0559 46.8672 16.5405L47.208 16.9145L53.294 13.4015C53.5922 13.2271 53.9809 13.3309 54.1553 13.6318L57.6189 19.6329C57.7933 19.9337 57.6894 20.3211 57.3886 20.4955L51.3239 23.9952L51.4783 24.4784C51.67 25.0841 51.8431 25.7351 51.9895 26.4127L52.096 26.9092H59.1058C59.4532 26.9092 59.7354 27.1928 59.7354 27.5389V34.4638H59.7381Z" fill="white" />
<path d="M59.1084 25.6446H53.109C53.0211 25.2798 52.9266 24.9231 52.8268 24.5783L58.0182 21.5817C58.9194 21.0612 59.2296 19.9018 58.7091 18.9992L55.2441 12.9981C54.7237 12.0982 53.5656 11.7881 52.663 12.3072L47.4503 15.3171C47.2 15.0562 46.9418 14.7979 46.6796 14.5463L49.6906 9.33333C50.2097 8.43211 49.8996 7.27396 48.9984 6.75213L42.9976 3.28701C42.0964 2.76651 40.937 3.07535 40.4165 3.97923L37.4201 9.17093C37.0767 9.07242 36.7239 8.9779 36.3539 8.89004V2.89031C36.3539 1.84798 35.5059 1 34.4636 1H27.535C26.4927 1 25.6448 1.84798 25.6448 2.89031V8.89004C25.2747 8.9779 24.9207 9.07109 24.5786 9.17093L21.5822 3.97923C21.0603 3.07668 19.9036 2.76651 19.0011 3.28701L12.9989 6.75213C12.0978 7.27396 11.7876 8.43211 12.3081 9.33333L15.3178 14.5463C15.0556 14.7966 14.7973 15.0548 14.5471 15.3171L9.33429 12.3072C8.43178 11.7867 7.27368 12.0969 6.75188 12.9981L3.28691 18.9992C2.76643 19.9018 3.07659 21.0599 3.9791 21.5817L9.17056 24.5783C9.07206 24.9217 8.97755 25.2745 8.88969 25.6446H2.89023C1.84794 25.6446 1 26.4925 1 27.5349V34.4638C1 35.5061 1.84794 36.3541 2.89023 36.3541H8.88969C8.97755 36.7242 9.07073 37.0769 9.17056 37.4204L3.9791 40.4169C3.07659 40.9388 2.76643 42.0969 3.28824 42.9981L6.75321 49.0005C7.27368 49.9004 8.43045 50.2106 9.33429 49.6901L14.5471 46.6802C14.7986 46.9452 15.0569 47.2021 15.3191 47.451L12.3094 52.664C11.7889 53.5652 12.0991 54.7234 13.0003 55.2452L19.0024 58.7117C19.9049 59.2335 21.063 58.9207 21.5835 58.0194L24.5799 52.8277C24.9247 52.9276 25.2814 53.0221 25.6461 53.11V59.1097C25.6461 60.152 26.4941 61 27.5364 61H34.465C35.5073 61 36.3552 60.152 36.3552 59.1097V53.11C36.7199 53.0221 37.0767 52.9276 37.4214 52.8277L40.4178 58.0194C40.9383 58.9207 42.0977 59.2348 42.9989 58.7103L49.0011 55.2452C49.9009 54.7234 50.2111 53.5652 49.6906 52.664L46.6809 47.451C46.9431 47.1994 47.2014 46.9412 47.4516 46.6802L52.6657 49.6914C53.5642 50.2093 54.725 49.8991 55.2455 48.9992L58.7104 42.9981C59.2322 42.0969 58.9207 40.9374 58.0196 40.4169L52.8281 37.4204C52.9279 37.0743 53.0224 36.7188 53.1103 36.3541H59.1098C60.1521 36.3541 61 35.5061 61 34.4638V27.5349C60.9973 26.4925 60.1507 25.6446 59.1084 25.6446ZM59.7381 34.4638C59.7381 34.8112 59.4545 35.0935 59.1084 35.0935H52.0986L51.9921 35.59C51.8444 36.2676 51.6727 36.9185 51.481 37.5242L51.3266 38.0075L57.3913 41.5072C57.6921 41.6816 57.7959 42.0676 57.6229 42.3685L54.1579 48.3695C53.9849 48.6704 53.5975 48.7742 53.2967 48.6025L47.2107 45.0881L46.8699 45.4622C46.424 45.9507 45.9514 46.4247 45.4629 46.8693L45.0888 47.2101L48.6017 53.295C48.7748 53.5958 48.6723 53.9832 48.3714 54.1576L42.3706 57.6227C42.0698 57.7931 41.6824 57.692 41.5094 57.3911L38.0098 51.3261L37.5266 51.4806C36.9209 51.6723 36.27 51.8453 35.5924 51.9917L35.0959 52.0982V59.1084C35.0959 59.4558 34.8124 59.738 34.4663 59.738H27.5377C27.1903 59.738 26.9081 59.4545 26.9081 59.1084V52.0982L26.4115 51.9917C25.7327 51.844 25.0817 51.6723 24.4774 51.4806L23.9942 51.3261L20.4933 57.3911C20.3189 57.692 19.9329 57.7931 19.6334 57.6227L13.6326 54.1576C13.3317 53.9832 13.2279 53.5972 13.4023 53.2963L16.9165 47.2101L16.5411 46.8679C16.0579 46.4286 15.584 45.9547 15.1328 45.4622L14.792 45.0881L8.70733 48.6012C8.40383 48.7756 8.01912 48.6717 7.84608 48.3709L4.38111 42.3698C4.20673 42.069 4.31056 41.6829 4.61139 41.5085L10.6761 38.0088L10.5217 37.5269C10.33 36.9252 10.1623 36.2915 10.0105 35.5913L9.90269 35.0961H2.89289C2.54546 35.0961 2.26326 34.8126 2.26326 34.4665V27.5375C2.26326 27.1901 2.54546 26.9079 2.89289 26.9079H9.90269L10.0105 26.4127C10.1623 25.7125 10.33 25.0788 10.5217 24.4771L10.6761 23.9952L4.61273 20.4955C4.31189 20.3211 4.20673 19.935 4.38111 19.6342L7.84474 13.6331C8.01912 13.3336 8.40382 13.2284 8.70599 13.4028L14.7907 16.9159L15.1314 16.5418C15.5774 16.0532 16.0512 15.5793 16.5398 15.1334L16.9138 14.7926L13.4009 8.70767C13.2279 8.40681 13.3304 8.02077 13.6312 7.84638L19.632 4.38126C19.9315 4.20687 20.3176 4.3107 20.4919 4.61155L23.9929 10.6765L24.4761 10.5221C25.0777 10.3304 25.71 10.1627 26.4102 10.0109L26.9054 9.90309V2.89297C26.9054 2.54553 27.1876 2.26331 27.535 2.26331H34.4636C34.8111 2.26331 35.0933 2.54553 35.0933 2.89297V9.90309L35.5885 10.0109C36.2886 10.1627 36.9223 10.3304 37.5239 10.5221L38.0058 10.6765L41.5054 4.61289C41.6784 4.3107 42.0658 4.20687 42.3666 4.38126L48.3674 7.84505C48.6683 8.01944 48.7721 8.40548 48.6004 8.70634L45.0862 14.7913L45.4602 15.1321C45.9527 15.582 46.4266 16.0559 46.8672 16.5405L47.208 16.9145L53.294 13.4015C53.5922 13.2271 53.9809 13.3309 54.1553 13.6318L57.6189 19.6329C57.7933 19.9337 57.6894 20.3211 57.3886 20.4955L51.3239 23.9952L51.4783 24.4784C51.67 25.0841 51.8431 25.7351 51.9895 26.4127L52.096 26.9092H59.1058C59.4532 26.9092 59.7354 27.1928 59.7354 27.5389V34.4638H59.7381Z" stroke="white" mask="url(#wheel_path-1-outside-1)" />
<path d="M30.9995 15.4731C22.4393 15.4731 15.4746 22.4381 15.4746 30.9987C15.4746 39.5593 22.4393 46.5243 30.9995 46.5243C39.5597 46.5243 46.5244 39.5593 46.5244 30.9987C46.5244 22.4381 39.5597 15.4731 30.9995 15.4731ZM30.9995 44.765C23.4089 44.765 17.2339 38.5896 17.2339 30.9987C17.2339 23.4078 23.4089 17.2325 30.9995 17.2325C38.59 17.2325 44.7651 23.4078 44.7651 30.9987C44.7651 38.5896 38.59 44.765 30.9995 44.765Z" fill="white" stroke="white" stroke-width="0.5" />
</symbol><mask id="wheel_path-1-outside-1" maskUnits="userSpaceOnUse" x="0" y="0" width="62" height="62" fill="black">
<rect fill="white" width="62" height="62" />
<path d="M59.1084 25.6446H53.109C53.0211 25.2798 52.9266 24.9231 52.8268 24.5783L58.0182 21.5817C58.9194 21.0612 59.2296 19.9018 58.7091 18.9992L55.2441 12.9981C54.7237 12.0982 53.5656 11.7881 52.663 12.3072L47.4503 15.3171C47.2 15.0562 46.9418 14.7979 46.6796 14.5463L49.6906 9.33333C50.2097 8.43211 49.8996 7.27396 48.9984 6.75213L42.9976 3.28701C42.0964 2.76651 40.937 3.07535 40.4165 3.97923L37.4201 9.17093C37.0767 9.07242 36.7239 8.9779 36.3539 8.89004V2.89031C36.3539 1.84798 35.5059 1 34.4636 1H27.535C26.4927 1 25.6448 1.84798 25.6448 2.89031V8.89004C25.2747 8.9779 24.9207 9.07109 24.5786 9.17093L21.5822 3.97923C21.0603 3.07668 19.9036 2.76651 19.0011 3.28701L12.9989 6.75213C12.0978 7.27396 11.7876 8.43211 12.3081 9.33333L15.3178 14.5463C15.0556 14.7966 14.7973 15.0548 14.5471 15.3171L9.33429 12.3072C8.43178 11.7867 7.27368 12.0969 6.75188 12.9981L3.28691 18.9992C2.76643 19.9018 3.07659 21.0599 3.9791 21.5817L9.17056 24.5783C9.07206 24.9217 8.97755 25.2745 8.88969 25.6446H2.89023C1.84794 25.6446 1 26.4925 1 27.5349V34.4638C1 35.5061 1.84794 36.3541 2.89023 36.3541H8.88969C8.97755 36.7242 9.07073 37.0769 9.17056 37.4204L3.9791 40.4169C3.07659 40.9388 2.76643 42.0969 3.28824 42.9981L6.75321 49.0005C7.27368 49.9004 8.43045 50.2106 9.33429 49.6901L14.5471 46.6802C14.7986 46.9452 15.0569 47.2021 15.3191 47.451L12.3094 52.664C11.7889 53.5652 12.0991 54.7234 13.0003 55.2452L19.0024 58.7117C19.9049 59.2335 21.063 58.9207 21.5835 58.0194L24.5799 52.8277C24.9247 52.9276 25.2814 53.0221 25.6461 53.11V59.1097C25.6461 60.152 26.4941 61 27.5364 61H34.465C35.5073 61 36.3552 60.152 36.3552 59.1097V53.11C36.7199 53.0221 37.0767 52.9276 37.4214 52.8277L40.4178 58.0194C40.9383 58.9207 42.0977 59.2348 42.9989 58.7103L49.0011 55.2452C49.9009 54.7234 50.2111 53.5652 49.6906 52.664L46.6809 47.451C46.9431 47.1994 47.2014 46.9412 47.4516 46.6802L52.6657 49.6914C53.5642 50.2093 54.725 49.8991 55.2455 48.9992L58.7104 42.9981C59.2322 42.0969 58.9207 40.9374 58.0196 40.4169L52.8281 37.4204C52.9279 37.0743 53.0224 36.7188 53.1103 36.3541H59.1098C60.1521 36.3541 61 35.5061 61 34.4638V27.5349C60.9973 26.4925 60.1507 25.6446 59.1084 25.6446ZM59.7381 34.4638C59.7381 34.8112 59.4545 35.0935 59.1084 35.0935H52.0986L51.9921 35.59C51.8444 36.2676 51.6727 36.9185 51.481 37.5242L51.3266 38.0075L57.3913 41.5072C57.6921 41.6816 57.7959 42.0676 57.6229 42.3685L54.1579 48.3695C53.9849 48.6704 53.5975 48.7742 53.2967 48.6025L47.2107 45.0881L46.8699 45.4622C46.424 45.9507 45.9514 46.4247 45.4629 46.8693L45.0888 47.2101L48.6017 53.295C48.7748 53.5958 48.6723 53.9832 48.3714 54.1576L42.3706 57.6227C42.0698 57.7931 41.6824 57.692 41.5094 57.3911L38.0098 51.3261L37.5266 51.4806C36.9209 51.6723 36.27 51.8453 35.5924 51.9917L35.0959 52.0982V59.1084C35.0959 59.4558 34.8124 59.738 34.4663 59.738H27.5377C27.1903 59.738 26.9081 59.4545 26.9081 59.1084V52.0982L26.4115 51.9917C25.7327 51.844 25.0817 51.6723 24.4774 51.4806L23.9942 51.3261L20.4933 57.3911C20.3189 57.692 19.9329 57.7931 19.6334 57.6227L13.6326 54.1576C13.3317 53.9832 13.2279 53.5972 13.4023 53.2963L16.9165 47.2101L16.5411 46.8679C16.0579 46.4286 15.584 45.9547 15.1328 45.4622L14.792 45.0881L8.70733 48.6012C8.40383 48.7756 8.01912 48.6717 7.84608 48.3709L4.38111 42.3698C4.20673 42.069 4.31056 41.6829 4.61139 41.5085L10.6761 38.0088L10.5217 37.5269C10.33 36.9252 10.1623 36.2915 10.0105 35.5913L9.90269 35.0961H2.89289C2.54546 35.0961 2.26326 34.8126 2.26326 34.4665V27.5375C2.26326 27.1901 2.54546 26.9079 2.89289 26.9079H9.90269L10.0105 26.4127C10.1623 25.7125 10.33 25.0788 10.5217 24.4771L10.6761 23.9952L4.61273 20.4955C4.31189 20.3211 4.20673 19.935 4.38111 19.6342L7.84474 13.6331C8.01912 13.3336 8.40382 13.2284 8.70599 13.4028L14.7907 16.9159L15.1314 16.5418C15.5774 16.0532 16.0512 15.5793 16.5398 15.1334L16.9138 14.7926L13.4009 8.70767C13.2279 8.40681 13.3304 8.02077 13.6312 7.84638L19.632 4.38126C19.9315 4.20687 20.3176 4.3107 20.4919 4.61155L23.9929 10.6765L24.4761 10.5221C25.0777 10.3304 25.71 10.1627 26.4102 10.0109L26.9054 9.90309V2.89297C26.9054 2.54553 27.1876 2.26331 27.535 2.26331H34.4636C34.8111 2.26331 35.0933 2.54553 35.0933 2.89297V9.90309L35.5885 10.0109C36.2886 10.1627 36.9223 10.3304 37.5239 10.5221L38.0058 10.6765L41.5054 4.61289C41.6784 4.3107 42.0658 4.20687 42.3666 4.38126L48.3674 7.84505C48.6683 8.01944 48.7721 8.40548 48.6004 8.70634L45.0862 14.7913L45.4602 15.1321C45.9527 15.582 46.4266 16.0559 46.8672 16.5405L47.208 16.9145L53.294 13.4015C53.5922 13.2271 53.9809 13.3309 54.1553 13.6318L57.6189 19.6329C57.7933 19.9337 57.6894 20.3211 57.3886 20.4955L51.3239 23.9952L51.4783 24.4784C51.67 25.0841 51.8431 25.7351 51.9895 26.4127L52.096 26.9092H59.1058C59.4532 26.9092 59.7354 27.1928 59.7354 27.5389V34.4638H59.7381Z" />
</mask></defs></svg>